<svg xmlns="http://www.w3.org/2000/svg" viewBox="0 0 500 500"><g id="freepik--background-complete--inject-6"><path d="M454.92,244.2H359.34s9.48-25.88,24.06-25.88,19.16,17.86,19.16,17.86,9.84-9.7,17.92-9.7,15.11,12.82,15.11,12.82S447,232.41,454.92,244.2Z" style="fill:#ebebeb"></path><path d="M270.11,84.09H174.54S184,58.2,198.6,58.2s19.15,17.87,19.15,17.87,9.84-9.71,17.92-9.71,15.11,12.83,15.11,12.83S262.2,72.29,270.11,84.09Z" style="fill:#ebebeb"></path><path d="M401.12,132.43H356.45S366.43,118,374.3,118s10.18,9.64,10.18,9.64,5.55-4.5,10.69-3.7S401.12,132.43,401.12,132.43Z" style="fill:#ebebeb"></path><path d="M132.08,253.19h-87S57,226.6,69.74,224.93,88.58,244.7,88.58,244.7s8.22-7.58,14.69-7.58,11.45,10,11.45,10S127.65,240.26,132.08,253.19Z" style="fill:#ebebeb"></path><path d="M222.32,168.62H163.56s10.09-19.27,21-19.55,16.71,14.58,16.71,14.58S218.35,150,222.32,168.62Z" style="fill:#ebebeb"></path><path d="M255.08,221.94H215.41s6.82-13,14.21-13.2,11.28,9.84,11.28,9.84S252.4,209.36,255.08,221.94Z" style="fill:#ebebeb"></path><path d="M451.14,68.2H411.48s6.81-13,14.2-13.2S437,64.85,437,64.85,448.46,55.62,451.14,68.2Z" style="fill:#ebebeb"></path><path d="M351,263H311.35s6.82-13,14.21-13.2,11.28,9.84,11.28,9.84S348.33,250.44,351,263Z" style="fill:#ebebeb"></path></g><g id="freepik--Floor--inject-6"><polygon points="40.29 420.49 92.72 420.24 145.14 420.16 250 419.99 354.86 420.15 407.28 420.24 459.71 420.49 407.28 420.73 354.86 420.82 250 420.99 145.14 420.82 92.72 420.73 40.29 420.49" style="fill:#263238"></polygon></g><g id="freepik--Shadow--inject-6"><ellipse cx="339.35" cy="459.96" rx="132.27" ry="12.76" style="fill:#ebebeb"></ellipse></g><g id="freepik--Flag--inject-6"><rect x="324.39" y="63.64" width="2.66" height="356.85" transform="translate(651.44 484.13) rotate(180)" style="fill:#dbdbdb"></rect><path d="M250.84,63.64h73.55a0,0,0,0,1,0,0V231.17a73.55,73.55,0,0,1-73.55,73.55h0a0,0,0,0,1,0,0V63.64A0,0,0,0,1,250.84,63.64Z" transform="translate(575.23 368.36) rotate(180)" style="fill:#909CF9"></path><path d="M250.84,63.64h73.55a0,0,0,0,1,0,0V231.17a73.55,73.55,0,0,1-73.55,73.55h0a0,0,0,0,1,0,0V63.64A0,0,0,0,1,250.84,63.64Z" transform="translate(575.23 368.36) rotate(180)" style="fill:#fff;opacity:0.5"></path><rect x="250.84" y="296.08" width="8.63" height="8.63" transform="translate(510.31 600.8) rotate(180)" style="fill:#909CF9"></rect><rect x="259.47" y="287.45" width="8.63" height="8.63" transform="translate(527.58 583.53) rotate(180)" style="fill:#909CF9"></rect><rect x="250.84" y="278.81" width="8.63" height="8.63" transform="translate(510.31 566.26) rotate(180)" style="fill:#909CF9"></rect><rect x="259.47" y="270.18" width="8.63" height="8.63" transform="translate(527.58 548.99) rotate(180)" style="fill:#909CF9"></rect><rect x="250.84" y="261.54" width="8.63" height="8.63" transform="translate(510.31 531.72) rotate(180)" style="fill:#909CF9"></rect><rect x="259.47" y="252.91" width="8.63" height="8.63" transform="translate(527.58 514.45) rotate(180)" style="fill:#909CF9"></rect><rect x="250.84" y="244.27" width="8.63" height="8.63" transform="translate(510.31 497.18) rotate(180)" style="fill:#909CF9"></rect><rect x="259.47" y="235.64" width="8.63" height="8.63" transform="translate(527.58 479.92) rotate(180)" style="fill:#909CF9"></rect><rect x="250.84" y="227.01" width="8.63" height="8.63" transform="translate(510.31 462.65) rotate(180)" style="fill:#909CF9"></rect><rect x="259.47" y="218.37" width="8.63" height="8.63" transform="translate(527.58 445.38) rotate(180)" style="fill:#909CF9"></rect><rect x="250.84" y="209.74" width="8.63" height="8.63" transform="translate(510.31 428.11) rotate(180)" style="fill:#909CF9"></rect><rect x="259.47" y="201.1" width="8.63" height="8.63" transform="translate(527.58 410.84) rotate(180)" style="fill:#909CF9"></rect><rect x="250.84" y="192.47" width="8.63" height="8.63" transform="translate(510.31 393.57) rotate(180)" style="fill:#909CF9"></rect><rect x="259.47" y="183.83" width="8.63" height="8.63" transform="translate(527.58 376.3) rotate(180)" style="fill:#909CF9"></rect><rect x="250.84" y="175.2" width="8.63" height="8.63" transform="translate(510.31 359.03) rotate(180)" style="fill:#909CF9"></rect><rect x="259.47" y="166.56" width="8.63" height="8.63" transform="translate(527.58 341.76) rotate(180)" style="fill:#909CF9"></rect><rect x="250.84" y="157.93" width="8.63" height="8.63" transform="translate(510.31 324.49) rotate(180)" style="fill:#909CF9"></rect><rect x="259.47" y="149.3" width="8.63" height="8.63" transform="translate(527.58 307.23) rotate(180)" style="fill:#909CF9"></rect><rect x="250.84" y="140.66" width="8.63" height="8.63" transform="translate(510.31 289.96) rotate(180)" style="fill:#909CF9"></rect><rect x="259.47" y="132.03" width="8.63" height="8.63" transform="translate(527.58 272.69) rotate(180)" style="fill:#909CF9"></rect><path d="M251,132h8.46v-8.64h-7.33A69.86,69.86,0,0,0,251,132Z" style="fill:#909CF9"></path><rect x="259.47" y="114.76" width="8.63" height="8.63" transform="translate(527.58 238.15) rotate(180)" style="fill:#909CF9"></rect><path d="M254.33,114.76h5.15v-8.63h-1.77A70.86,70.86,0,0,0,254.33,114.76Z" style="fill:#909CF9"></path><path d="M259.48,102.58v3.55h8.62V97.49h-5.63C261.4,99.14,260.41,100.83,259.48,102.58Z" style="fill:#909CF9"></path><rect x="268.11" y="296.08" width="8.63" height="8.63" transform="translate(544.85 600.8) rotate(180)" style="fill:#909CF9"></rect><rect x="276.74" y="287.45" width="8.63" height="8.63" transform="translate(562.12 583.53) rotate(180)" style="fill:#909CF9"></rect><rect x="268.11" y="278.81" width="8.63" height="8.63" transform="translate(544.85 566.26) rotate(180)" style="fill:#909CF9"></rect><rect x="276.74" y="270.18" width="8.63" height="8.63" transform="translate(562.12 548.99) rotate(180)" style="fill:#909CF9"></rect><rect x="268.11" y="261.54" width="8.63" height="8.63" transform="translate(544.85 531.72) rotate(180)" style="fill:#909CF9"></rect><rect x="276.74" y="252.91" width="8.63" height="8.63" transform="translate(562.12 514.45) rotate(180)" style="fill:#909CF9"></rect><rect x="268.11" y="244.27" width="8.63" height="8.63" transform="translate(544.85 497.18) rotate(180)" style="fill:#909CF9"></rect><rect x="276.74" y="235.64" width="8.63" height="8.63" transform="translate(562.12 479.92) rotate(180)" style="fill:#909CF9"></rect><rect x="268.11" y="227.01" width="8.63" height="8.63" transform="translate(544.85 462.65) rotate(180)" style="fill:#909CF9"></rect><rect x="276.74" y="218.37" width="8.63" height="8.63" transform="translate(562.12 445.38) rotate(180)" style="fill:#909CF9"></rect><rect x="268.11" y="209.74" width="8.63" height="8.63" transform="translate(544.85 428.11) rotate(180)" style="fill:#909CF9"></rect><rect x="276.74" y="201.1" width="8.63" height="8.63" transform="translate(562.12 410.84) rotate(180)" style="fill:#909CF9"></rect><rect x="268.11" y="192.47" width="8.63" height="8.63" transform="translate(544.85 393.57) rotate(180)" style="fill:#909CF9"></rect><rect x="276.74" y="183.83" width="8.63" height="8.63" transform="translate(562.12 376.3) rotate(180)" style="fill:#909CF9"></rect><rect x="268.11" y="175.2" width="8.63" height="8.63" transform="translate(544.85 359.03) rotate(180)" style="fill:#909CF9"></rect><rect x="276.74" y="166.56" width="8.63" height="8.63" transform="translate(562.12 341.76) rotate(180)" style="fill:#909CF9"></rect><rect x="268.11" y="157.93" width="8.63" height="8.63" transform="translate(544.85 324.49) rotate(180)" style="fill:#909CF9"></rect><rect x="276.74" y="149.3" width="8.63" height="8.63" transform="translate(562.12 307.23) rotate(180)" style="fill:#909CF9"></rect><rect x="268.11" y="140.66" width="8.63" height="8.63" transform="translate(544.85 289.96) rotate(180)" style="fill:#909CF9"></rect><rect x="276.74" y="132.03" width="8.63" height="8.63" transform="translate(562.12 272.69) rotate(180)" style="fill:#909CF9"></rect><rect x="268.11" y="123.39" width="8.63" height="8.63" transform="translate(544.85 255.42) rotate(180)" style="fill:#909CF9"></rect><rect x="276.74" y="114.76" width="8.63" height="8.63" transform="translate(562.12 238.15) rotate(180)" style="fill:#909CF9"></rect><rect x="268.11" y="106.12" width="8.63" height="8.63" transform="translate(544.85 220.88) rotate(180)" style="fill:#909CF9"></rect><path d="M268.1,89.86v7.63h8.64V88.85H269Z" style="fill:#909CF9"></path><rect x="276.74" y="97.49" width="8.63" height="8.63" transform="translate(562.12 203.61) rotate(180)" style="fill:#909CF9"></rect><path d="M276.74,81.17v7.68h8.64V80.22h-7.51Z" style="fill:#909CF9"></path><path d="M314.22,167.86H297.53A1.55,1.55,0,0,1,296,166.3v-9.24a1.57,1.57,0,0,1,3.14,0v7.66h5.17v-6.59a1.6,1.6,0,0,1,1.56-1.56,1.58,1.58,0,0,1,1.58,1.56v6.59h6.79a1.57,1.57,0,0,1,1.55,1.58A1.55,1.55,0,0,1,314.22,167.86Z" style="fill:#909CF9"></path><path d="M297.53,150.55A1.53,1.53,0,0,1,296,149a1.58,1.58,0,0,1,1.55-1.58h16.69a1.58,1.58,0,0,1,1.55,1.58,1.53,1.53,0,0,1-1.55,1.56Z" style="fill:#909CF9"></path><path d="M314.22,139a1.57,1.57,0,0,1,1.55,1.53,1.54,1.54,0,0,1-1.55,1.55H297.76a1.51,1.51,0,0,1-1.3-.62,1.56,1.56,0,0,1,.34-2.15l12.64-9.13H297.79a1.54,1.54,0,0,1-1.53-1.53,1.57,1.57,0,0,1,1.53-1.55h16.43a1.57,1.57,0,0,1,1.55,1.55,1.52,1.52,0,0,1-.57,1.16.44.44,0,0,1-.17.14l-12.55,9Z" style="fill:#909CF9"></path><path d="M297.53,121.11a1.53,1.53,0,0,1-1.55-1.55,1.58,1.58,0,0,1,1.55-1.59h16.69a1.58,1.58,0,0,1,1.55,1.59,1.53,1.53,0,0,1-1.55,1.55Z" style="fill:#909CF9"></path><path d="M310.85,113.31a1.48,1.48,0,0,1-.2-2.07,9.18,9.18,0,0,0,2.18-5.4,6,6,0,0,0-1.05-3.53,2.54,2.54,0,0,0-2-1.22,1.64,1.64,0,0,0-.91.26,2.72,2.72,0,0,0-.85.85,11.43,11.43,0,0,0-1.32,3.87v.06a15.51,15.51,0,0,1-1.11,3.64,6,6,0,0,1-2.2,2.63,4.29,4.29,0,0,1-2.32.65,5.22,5.22,0,0,1-4.13-2.26,8.36,8.36,0,0,1-1.5-4.89,11.06,11.06,0,0,1,2.26-6.16,1.46,1.46,0,0,1,2-.4,1.43,1.43,0,0,1,.43,2,8.19,8.19,0,0,0-1.81,4.55,5.4,5.4,0,0,0,1,3.17,2.23,2.23,0,0,0,1.78,1.07,1.39,1.39,0,0,0,.79-.2,2.68,2.68,0,0,0,.74-.76,9.91,9.91,0,0,0,1.24-3.54v0a16.38,16.38,0,0,1,1.19-3.9,6.6,6.6,0,0,1,2.34-2.83,4.55,4.55,0,0,1,2.41-.68,5.48,5.48,0,0,1,4.38,2.43,8.85,8.85,0,0,1,1.61,5.23,12.14,12.14,0,0,1-2.83,7.24A1.5,1.5,0,0,1,310.85,113.31Z" style="fill:#909CF9"></path><path d="M314.22,93.82H297.53A1.53,1.53,0,0,1,296,92.27a1.55,1.55,0,0,1,1.55-1.58h6.79V83.36h-6.79A1.53,1.53,0,0,1,296,81.81a1.56,1.56,0,0,1,1.55-1.59h16.69a1.56,1.56,0,0,1,1.55,1.59,1.53,1.53,0,0,1-1.55,1.55h-6.79v7.33h6.79a1.55,1.55,0,0,1,1.55,1.58A1.53,1.53,0,0,1,314.22,93.82Z" style="fill:#909CF9"></path></g><g id="freepik--Rings--inject-6"><path d="M66,210.1c-16,0-28.14-25.29-28.14-58.82S49.94,92.46,66,92.46s28.14,25.29,28.14,58.82S82,210.1,66,210.1Zm0-109.64c-9.53,0-20.14,20.87-20.14,50.82S56.46,202.1,66,202.1s20.14-20.87,20.14-50.82S75.51,100.46,66,100.46Z" style="fill:#909CF9;opacity:0.2"></path><polygon points="84.63 362.17 47.35 362.17 44.35 420.49 87.63 420.49 84.63 362.17" style="fill:#37474f"></polygon><rect x="63.69" y="204.85" width="4.6" height="157.31" style="fill:#ebebeb"></rect><path d="M66,208.1c-14.66,0-26.14-25-26.14-56.82S51.33,94.46,66,94.46s26.14,25,26.14,56.82S80.65,208.1,66,208.1ZM66,98.46c-12,0-22.14,24.19-22.14,52.82S54,204.1,66,204.1s22.14-24.19,22.14-52.82S78,98.46,66,98.46Z" style="fill:#909CF9;opacity:0.4"></path><path d="M178.33,280.1c-16.05,0-28.14-25.29-28.14-58.82s12.09-58.82,28.14-58.82,28.14,25.29,28.14,58.82S194.37,280.1,178.33,280.1Zm0-109.64c-9.53,0-20.14,20.87-20.14,50.82s10.61,50.82,20.14,50.82,20.14-20.87,20.14-50.82S187.86,170.46,178.33,170.46Z" style="fill:#909CF9;opacity:0.2"></path><polygon points="196.97 362.17 159.69 362.17 156.69 420.49 199.97 420.49 196.97 362.17" style="fill:#37474f"></polygon><rect x="176.03" y="274.85" width="4.6" height="87.31" style="fill:#ebebeb"></rect><path d="M178.33,278.1c-14.66,0-26.14-25-26.14-56.82s11.48-56.82,26.14-56.82,26.14,25,26.14,56.82S193,278.1,178.33,278.1Zm0-109.64c-12,0-22.14,24.19-22.14,52.82s10.14,52.82,22.14,52.82,22.14-24.19,22.14-52.82S190.33,168.46,178.33,168.46Z" style="fill:#909CF9;opacity:0.4"></path></g><g id="freepik--drone-2--inject-6"><path d="M152.58,106a81.35,81.35,0,0,1,11.92,4.27,14.53,14.53,0,0,1,1.4.76,3,3,0,0,1,1.18,1.09.48.48,0,0,1,0,.45.83.83,0,0,1-.35.27,3.09,3.09,0,0,1-.78.2,10.61,10.61,0,0,1-1.59.1,47.7,47.7,0,0,1-6.32-.55c-4.18-.61-8.32-1.45-12.44-2.39s-8.17-2.13-12.24-3.24l6.12,1.59c2,.56,4.09,1,6.15,1.51,4.12.91,8.26,1.73,12.44,2.32a51.06,51.06,0,0,0,6.29.58,10.13,10.13,0,0,0,1.56-.08,3.49,3.49,0,0,0,.74-.19c.24-.1.4-.29.31-.51a3.07,3.07,0,0,0-1.11-1c-.45-.27-.91-.52-1.38-.76a60.77,60.77,0,0,0-5.85-2.39C156.6,107.33,154.6,106.67,152.58,106Z" style="fill:#c7c7c7"></path><path d="M126.16,104.72c-1.42-.48-2.83-1-4.22-1.56a17.4,17.4,0,0,1-4-2.11,1.79,1.79,0,0,1-.39-.43.54.54,0,0,1,0-.61,2,2,0,0,1,1.08-.44,13,13,0,0,1,2.25-.09,44.81,44.81,0,0,1,4.49.38c3,.39,5.93.93,8.86,1.53s5.86,1.28,8.76,2c-2.92-.67-5.85-1.31-8.79-1.9s-5.89-1.09-8.86-1.46c-1.48-.19-3-.36-4.46-.41a12.73,12.73,0,0,0-2.23.07,1.78,1.78,0,0,0-1,.38c-.19.26.11.62.37.84a17.65,17.65,0,0,0,3.92,2.12C123.36,103.66,124.76,104.21,126.16,104.72Z" style="fill:#c7c7c7"></path><path d="M131.43,100.21c-2.52-.47-5-.9-7.57-1.26a72.18,72.18,0,0,0-7.63-.75c-.63,0-1.27,0-1.91,0a3.77,3.77,0,0,0-1.78.47c-.23.19-.16.51,0,.74a3.45,3.45,0,0,0,.69.63,14.08,14.08,0,0,0,1.63,1A59.93,59.93,0,0,0,122,104c4.81,1.73,9.71,3.19,14.64,4.53,2.47.67,4.95,1.3,7.45,1.85l7.47,1.75c-5-1.12-10-2.11-14.95-3.46s-9.86-2.76-14.69-4.47a60.88,60.88,0,0,1-7.08-3,13.17,13.17,0,0,1-1.65-1,3.8,3.8,0,0,1-.72-.67,1,1,0,0,1-.22-.47.58.58,0,0,1,.21-.49,3.7,3.7,0,0,1,1.87-.5,17.8,17.8,0,0,1,1.93,0A101.19,101.19,0,0,1,131.43,100.21Z" style="fill:#c7c7c7"></path><path d="M160.49,113.72c1.8.24,3.6.46,5.41.6a21.28,21.28,0,0,0,5.41-.06c.41-.08.94-.29.88-.71a2.13,2.13,0,0,0-.84-1,14.71,14.71,0,0,0-2.35-1.34c-1.63-.79-3.32-1.45-5-2.09-3.39-1.27-6.85-2.39-10.33-3.43s-7-2-10.49-2.91q5.29,1.25,10.54,2.77c3.48,1,7,2.11,10.36,3.37,1.7.65,3.38,1.33,5,2.12a15.58,15.58,0,0,1,2.37,1.38,2.19,2.19,0,0,1,.89,1.07.63.63,0,0,1-.34.63,2.61,2.61,0,0,1-.66.24,12.5,12.5,0,0,1-2.73.18c-.91,0-1.81-.08-2.72-.16C164.08,114.25,162.28,114,160.49,113.72Z" style="fill:#c7c7c7"></path><path d="M154.89,127.05a82.92,82.92,0,0,1,11.92,4.26c.47.24.94.48,1.39.76a3.13,3.13,0,0,1,1.19,1.1.52.52,0,0,1,0,.45.84.84,0,0,1-.34.26,2.8,2.8,0,0,1-.79.21,10.61,10.61,0,0,1-1.59.1,51.5,51.5,0,0,1-6.32-.55c-4.18-.61-8.32-1.45-12.44-2.4s-8.17-2.13-12.24-3.24l6.13,1.6c2,.55,4.09,1,6.15,1.5,4.11.92,8.26,1.74,12.43,2.33a51.24,51.24,0,0,0,6.29.58,10.26,10.26,0,0,0,1.57-.09,2.69,2.69,0,0,0,.74-.19c.24-.09.4-.29.31-.51a3.08,3.08,0,0,0-1.12-1c-.44-.28-.91-.52-1.38-.76a57.37,57.37,0,0,0-5.85-2.39C158.91,128.33,156.9,127.67,154.89,127.05Z" style="fill:#c7c7c7"></path><path d="M128.47,125.73c-1.42-.48-2.83-1-4.22-1.56a17.26,17.26,0,0,1-4-2.11,2,2,0,0,1-.39-.43.54.54,0,0,1,0-.61,1.84,1.84,0,0,1,1.07-.44,14.25,14.25,0,0,1,2.26-.1c1.5,0,3,.2,4.48.38,3,.4,5.93.94,8.87,1.54s5.85,1.28,8.75,2c-2.92-.68-5.84-1.31-8.78-1.9s-5.89-1.09-8.86-1.46c-1.49-.2-3-.36-4.47-.42a12.65,12.65,0,0,0-2.22.08,1.82,1.82,0,0,0-1,.37c-.2.27.1.62.37.84a17.46,17.46,0,0,0,3.92,2.13C125.66,124.67,127.06,125.21,128.47,125.73Z" style="fill:#c7c7c7"></path><path d="M133.73,121.22c-2.51-.47-5-.9-7.57-1.26a69.69,69.69,0,0,0-7.62-.75c-.64,0-1.28,0-1.91,0a3.53,3.53,0,0,0-1.78.47.5.5,0,0,0,0,.74,3.47,3.47,0,0,0,.69.63,14.08,14.08,0,0,0,1.63,1,61.52,61.52,0,0,0,7.07,2.93c4.81,1.72,9.71,3.19,14.65,4.53,2.47.66,4.94,1.3,7.44,1.85l7.47,1.74c-5-1.11-10-2.1-15-3.46s-9.86-2.75-14.68-4.46a61.91,61.91,0,0,1-7.08-3,13.24,13.24,0,0,1-1.65-1,3.21,3.21,0,0,1-.72-.66,1,1,0,0,1-.22-.47.58.58,0,0,1,.2-.49,3.73,3.73,0,0,1,1.88-.5,17.57,17.57,0,0,1,1.92,0A100.83,100.83,0,0,1,133.73,121.22Z" style="fill:#c7c7c7"></path><path d="M162.8,134.72c1.79.25,3.6.47,5.41.6a20.75,20.75,0,0,0,5.4,0c.41-.09.94-.29.89-.71a2.17,2.17,0,0,0-.85-1,15.47,15.47,0,0,0-2.34-1.35c-1.64-.78-3.32-1.45-5-2.08-3.4-1.28-6.85-2.39-10.33-3.43s-7-2-10.5-2.91q5.31,1.24,10.54,2.77c3.49,1,6.95,2.11,10.36,3.37,1.7.64,3.39,1.32,5,2.12a16,16,0,0,1,2.36,1.38,2.29,2.29,0,0,1,.9,1.06.67.67,0,0,1-.34.64,2.92,2.92,0,0,1-.66.24,12.54,12.54,0,0,1-2.73.18c-.91,0-1.82-.08-2.72-.16Q165.49,135.16,162.8,134.72Z" style="fill:#c7c7c7"></path><path d="M230.3,125.27c-2.08-.39-4.16-.74-6.25-1a58,58,0,0,0-6.29-.62c-.53,0-1,0-1.58,0a3.08,3.08,0,0,0-1.46.39c-.18.15-.13.4,0,.59a3.09,3.09,0,0,0,.56.52,10.66,10.66,0,0,0,1.35.8,48.69,48.69,0,0,0,5.83,2.42c4,1.42,8,2.63,12.09,3.74,2,.55,4.08,1.08,6.14,1.53l6.17,1.45c-4.12-.91-8.27-1.72-12.35-2.84s-8.14-2.27-12.12-3.68a49,49,0,0,1-5.85-2.46,11.24,11.24,0,0,1-1.36-.83,2.82,2.82,0,0,1-.6-.55,1,1,0,0,1-.18-.39.51.51,0,0,1,.17-.42,3.15,3.15,0,0,1,1.56-.42c.53,0,1.06,0,1.59,0A81.63,81.63,0,0,1,230.3,125.27Z" style="fill:#c7c7c7"></path><path d="M254.28,136.41c1.49.21,3,.38,4.47.49a17.51,17.51,0,0,0,4.46-.05c.34-.07.77-.24.72-.57a1.78,1.78,0,0,0-.69-.78,12.81,12.81,0,0,0-1.94-1.11c-1.35-.65-2.74-1.2-4.14-1.72-2.8-1-5.65-2-8.52-2.84s-5.76-1.65-8.66-2.41c2.92.68,5.82,1.43,8.7,2.28s5.74,1.73,8.56,2.77c1.4.54,2.79,1.1,4.14,1.76a12,12,0,0,1,1.95,1.14,1.91,1.91,0,0,1,.75.88.55.55,0,0,1-.29.54,1.92,1.92,0,0,1-.55.2,17.84,17.84,0,0,1-4.5,0C257.25,136.86,255.76,136.65,254.28,136.41Z" style="fill:#c7c7c7"></path><path d="M251.73,130a101.38,101.38,0,0,1,14.44,5.18c.57.28,1.14.58,1.69.92a3.74,3.74,0,0,1,1.42,1.32.56.56,0,0,1,0,.53,1.14,1.14,0,0,1-.41.32,4.35,4.35,0,0,1-.94.25,13.88,13.88,0,0,1-1.93.11,59.23,59.23,0,0,1-7.65-.67c-5.07-.74-10.09-1.75-15.07-2.89s-9.91-2.58-14.84-3.91l7.42,1.94c2.46.67,4.95,1.27,7.45,1.83,5,1.11,10,2.1,15.07,2.82a61,61,0,0,0,7.62.71,13.37,13.37,0,0,0,1.9-.11,3.84,3.84,0,0,0,.9-.23c.29-.11.5-.37.38-.64a3.7,3.7,0,0,0-1.35-1.25,18.09,18.09,0,0,0-1.67-.92,69.44,69.44,0,0,0-7.1-2.89C256.61,131.52,254.17,130.72,251.73,130Z" style="fill:#c7c7c7"></path><path d="M219.72,128.37c-1.72-.59-3.43-1.21-5.11-1.9-.84-.35-1.67-.71-2.48-1.12a12.67,12.67,0,0,1-2.33-1.43,3.35,3.35,0,0,1-.47-.52.67.67,0,0,1,0-.73,2.38,2.38,0,0,1,1.29-.52,15.72,15.72,0,0,1,2.74-.12c1.82.06,3.63.25,5.43.47,3.6.48,7.18,1.12,10.74,1.85s7.1,1.55,10.61,2.46q-5.3-1.25-10.64-2.32c-3.56-.7-7.14-1.32-10.74-1.78-1.79-.23-3.6-.43-5.41-.5a16.22,16.22,0,0,0-2.7.1,2.13,2.13,0,0,0-1.2.46c-.24.34.13.77.45,1a21.42,21.42,0,0,0,4.76,2.57C216.32,127.1,218,127.75,219.72,128.37Z" style="fill:#c7c7c7"></path><path d="M218.46,142.78c-2.07-.39-4.15-.74-6.24-1a58,58,0,0,0-6.29-.62c-.53,0-1.06,0-1.58,0a3.05,3.05,0,0,0-1.46.39c-.19.15-.13.4,0,.59a3.15,3.15,0,0,0,.57.52,10.66,10.66,0,0,0,1.35.8,48.69,48.69,0,0,0,5.83,2.42c4,1.42,8,2.63,12.09,3.74,2,.55,4.08,1.08,6.14,1.53l6.16,1.45c-4.12-.91-8.27-1.72-12.34-2.84s-8.14-2.27-12.12-3.68a48.27,48.27,0,0,1-5.85-2.46,10.51,10.51,0,0,1-1.36-.83,2.82,2.82,0,0,1-.6-.55.88.88,0,0,1-.18-.39.51.51,0,0,1,.17-.42,3.15,3.15,0,0,1,1.56-.42c.53,0,1.06,0,1.59,0A81.33,81.33,0,0,1,218.46,142.78Z" style="fill:#c7c7c7"></path><path d="M242.45,153.92c1.49.21,3,.38,4.47.49a17.51,17.51,0,0,0,4.46,0c.34-.07.76-.24.72-.57a1.74,1.74,0,0,0-.7-.78,12.24,12.24,0,0,0-1.93-1.11c-1.35-.65-2.74-1.2-4.14-1.72-2.8-1.05-5.66-2-8.52-2.84s-5.76-1.65-8.66-2.41c2.92.68,5.82,1.43,8.7,2.28s5.74,1.73,8.55,2.77c1.4.54,2.8,1.1,4.15,1.76a12,12,0,0,1,1.95,1.14,1.91,1.91,0,0,1,.75.88.57.57,0,0,1-.29.54,1.92,1.92,0,0,1-.55.2,17.84,17.84,0,0,1-4.5,0C245.42,154.37,243.93,154.16,242.45,153.92Z" style="fill:#c7c7c7"></path><path d="M239.9,147.48a101.38,101.38,0,0,1,14.44,5.18c.57.28,1.14.58,1.69.92a3.74,3.74,0,0,1,1.42,1.32.56.56,0,0,1-.05.53,1.14,1.14,0,0,1-.41.32,4.59,4.59,0,0,1-.95.25,15.47,15.47,0,0,1-1.92.12,61.07,61.07,0,0,1-7.65-.68c-5.07-.74-10.09-1.75-15.08-2.89s-9.9-2.58-14.84-3.91l7.43,1.94c2.46.68,5,1.27,7.45,1.83,5,1.11,10,2.1,15.07,2.82a60.8,60.8,0,0,0,7.62.71,13.45,13.45,0,0,0,1.9-.11,3.84,3.84,0,0,0,.9-.23c.29-.11.5-.37.38-.64a3.66,3.66,0,0,0-1.36-1.25,16.88,16.88,0,0,0-1.67-.92,69.27,69.27,0,0,0-7.09-2.89C244.77,149,242.34,148.23,239.9,147.48Z" style="fill:#c7c7c7"></path><path d="M207.89,145.88c-1.72-.59-3.43-1.21-5.11-1.9-.84-.35-1.67-.71-2.48-1.12a12.67,12.67,0,0,1-2.33-1.43,2.57,2.57,0,0,1-.47-.52.67.67,0,0,1,0-.73,2.35,2.35,0,0,1,1.29-.52,14.72,14.72,0,0,1,2.73-.11c1.82,0,3.63.24,5.44.46,3.6.48,7.18,1.12,10.74,1.85s7.09,1.55,10.61,2.46Q223,143.08,217.66,142c-3.56-.7-7.14-1.32-10.74-1.78-1.8-.23-3.6-.43-5.41-.5a16.22,16.22,0,0,0-2.7.1,2.13,2.13,0,0,0-1.2.46c-.24.34.13.77.45,1a21.42,21.42,0,0,0,4.76,2.57C204.49,144.61,206.18,145.26,207.89,145.88Z" style="fill:#c7c7c7"></path><polygon points="134.84 130.4 174.67 138.99 173.51 143.68 134.27 135.23 134.84 130.4" style="fill:#37474f"></polygon><polygon points="148.93 140.49 136.28 137.8 136.19 135.64 150.02 138.62 148.93 140.49" style="fill:#263238"></polygon><rect x="142.61" y="128.59" width="4.18" height="4.18" transform="translate(35.62 -30.92) rotate(13.9)" style="fill:#263238"></rect><rect x="144.57" y="126.39" width="1.8" height="2.3" transform="translate(34.89 -31.21) rotate(13.9)" style="fill:#37474f"></rect><polygon points="144.8 126.53 124.82 121.59 124.72 122.01 139.26 126.87 144.62 127.23 144.8 126.53" style="fill:#a6a6a6"></polygon><polygon points="146.54 126.96 166.52 131.9 166.42 132.32 151.28 129.84 146.37 127.67 146.54 126.96" style="fill:#a6a6a6"></polygon><polygon points="235.3 155.25 196.06 144.28 194.9 148.97 233.55 159.79 235.3 155.25" style="fill:#37474f"></polygon><polygon points="218.14 157.61 230.58 161.13 231.67 159.26 218.04 155.45 218.14 157.61" style="fill:#263238"></polygon><rect x="224.36" y="148.82" width="4.18" height="4.18" transform="translate(410.04 351.77) rotate(-166.11)" style="fill:#263238"></rect><rect x="226.33" y="146.61" width="1.8" height="2.3" transform="translate(412.33 345.76) rotate(-166.11)" style="fill:#37474f"></rect><polygon points="228.3 147.18 248.28 152.13 248.17 152.55 233.04 150.06 228.13 147.89 228.3 147.18" style="fill:#a6a6a6"></polygon><polygon points="226.55 146.75 206.58 141.81 206.47 142.23 221.02 147.09 226.38 147.46 226.55 146.75" style="fill:#a6a6a6"></polygon><polygon points="183.61 148.18 187.23 133.53 174.22 130.32 165.34 117.87 131.02 109.38 130.99 114.33 162.51 122.13 172.22 145.37 183.61 148.18" style="fill:#455a64"></polygon><polygon points="145.94 120.17 133.4 117.07 133.31 114.9 147.03 118.3 145.94 120.17" style="fill:#37474f"></polygon><rect x="139.34" y="107.72" width="4.18" height="4.18" transform="translate(30.51 -30.75) rotate(13.89)" style="fill:#263238"></rect><rect x="141.31" y="105.51" width="1.8" height="2.3" transform="translate(29.77 -31.03) rotate(13.89)" style="fill:#37474f"></rect><polygon points="141.53 105.65 121.56 100.71 121.45 101.13 136 105.99 141.36 106.36 141.53 105.65" style="fill:#a6a6a6"></polygon><polygon points="143.28 106.08 163.26 111.03 163.15 111.44 148.02 108.97 143.11 106.79 143.28 106.08" style="fill:#a6a6a6"></polygon><polygon points="183.61 148.18 187.23 133.53 200.24 136.75 213.9 129.88 248.22 138.38 245.93 142.76 214.41 134.97 194.99 151 183.61 148.18" style="fill:#455a64"></polygon><polygon points="229.99 140.96 242.53 144.06 243.62 142.19 229.89 138.8 229.99 140.96" style="fill:#37474f"></polygon><rect x="236.72" y="131.8" width="4.18" height="4.18" transform="translate(438.47 321.22) rotate(-166.1)" style="fill:#263238"></rect><rect x="238.69" y="129.6" width="1.8" height="2.3" transform="translate(440.76 315.21) rotate(-166.1)" style="fill:#37474f"></rect><polygon points="240.66 130.17 260.63 135.11 260.53 135.53 245.4 133.05 240.48 130.88 240.66 130.17" style="fill:#a6a6a6"></polygon><polygon points="238.91 129.74 218.93 124.8 218.83 125.22 233.37 130.08 238.73 130.44 238.91 129.74" style="fill:#a6a6a6"></polygon><polygon points="189.38 151.75 176.84 148.65 176.74 146.48 190.47 149.88 189.38 151.75" style="fill:#37474f"></polygon><polygon points="181.9 128.16 194.45 131.26 194.69 135.38 179.77 131.69 181.9 128.16" style="fill:#37474f"></polygon></g><g id="freepik--drone-1--inject-6"><path d="M75.71,45.28a82.35,82.35,0,0,1,12.66.28c.52.07,1,.16,1.56.28a3.13,3.13,0,0,1,1.47.67.46.46,0,0,1,.1.44.91.91,0,0,1-.24.36,2.93,2.93,0,0,1-.68.44,10.43,10.43,0,0,1-1.48.6,50.31,50.31,0,0,1-6.17,1.47c-4.16.74-8.36,1.25-12.56,1.65s-8.43.56-12.64.79l6.32-.42c2.1-.11,4.21-.3,6.31-.51,4.19-.43,8.38-1,12.53-1.72A49.43,49.43,0,0,0,89,48.18a9.25,9.25,0,0,0,1.46-.58,2.8,2.8,0,0,0,.64-.41c.2-.16.29-.4.13-.58A3,3,0,0,0,89.9,46c-.51-.12-1-.21-1.55-.29A57.8,57.8,0,0,0,82,45.28Q78.88,45.21,75.71,45.28Z" style="fill:#c7c7c7"></path><path d="M50.22,52.36c-1.49,0-3,0-4.49-.14a17.72,17.72,0,0,1-4.44-.75,2.58,2.58,0,0,1-.51-.29.54.54,0,0,1-.19-.58,1.82,1.82,0,0,1,.88-.75A12.25,12.25,0,0,1,43.58,49c1.44-.43,2.91-.75,4.38-1,2.94-.56,5.91-1,8.89-1.34s6-.63,8.95-.83q-4.47.42-8.93,1c-3,.38-5.94.83-8.87,1.41-1.47.28-2.93.6-4.37,1a12.76,12.76,0,0,0-2.09.77,1.8,1.8,0,0,0-.81.66c-.1.32.29.56.62.69a17.5,17.5,0,0,0,4.39.77C47.23,52.24,48.73,52.32,50.22,52.36Z" style="fill:#c7c7c7"></path><path d="M53.79,46.42c-2.53.34-5.06.73-7.57,1.19a69.67,69.67,0,0,0-7.47,1.7A18.28,18.28,0,0,0,37,50a3.59,3.59,0,0,0-1.54,1c-.17.26,0,.54.27.7a3.59,3.59,0,0,0,.85.37,12.86,12.86,0,0,0,1.86.42A60.77,60.77,0,0,0,46,53c5.11.12,10.23,0,15.33-.33,2.55-.14,5.1-.32,7.65-.59l7.64-.7c-5.09.51-10.17,1.16-15.28,1.44S51.13,53.3,46,53.2a61.26,61.26,0,0,1-7.65-.58,14.66,14.66,0,0,1-1.88-.43,4,4,0,0,1-.9-.41,1,1,0,0,1-.35-.37.57.57,0,0,1,0-.54,3.69,3.69,0,0,1,1.62-1.06,18.65,18.65,0,0,1,1.82-.64A100.22,100.22,0,0,1,53.79,46.42Z" style="fill:#c7c7c7"></path><path d="M85.64,50.06c1.78-.33,3.56-.7,5.32-1.13a21.68,21.68,0,0,0,5.12-1.76c.36-.21.79-.58.61-1a2.14,2.14,0,0,0-1.11-.65A15.65,15.65,0,0,0,92.94,45c-1.8-.22-3.61-.33-5.43-.39-3.62-.14-7.25-.11-10.88,0s-7.25.31-10.88.55c3.62-.32,7.25-.56,10.88-.69s7.26-.19,10.89-.08c1.82.08,3.63.2,5.44.44a14.69,14.69,0,0,1,2.68.56,2.19,2.19,0,0,1,1.18.72.65.65,0,0,1-.12.71,2.53,2.53,0,0,1-.55.44,12,12,0,0,1-2.53,1c-.87.27-1.75.5-2.63.71Q88.32,49.63,85.64,50.06Z" style="fill:#c7c7c7"></path><path d="M84.53,64.48a83.5,83.5,0,0,1,12.65.29c.53.07,1,.16,1.57.28a3.15,3.15,0,0,1,1.47.66.55.55,0,0,1,.1.45.93.93,0,0,1-.25.36,3.29,3.29,0,0,1-.68.44,10.65,10.65,0,0,1-1.48.6A50.15,50.15,0,0,1,91.75,69c-4.16.74-8.36,1.24-12.56,1.65s-8.43.56-12.65.79l6.32-.42c2.11-.12,4.21-.3,6.31-.51,4.2-.43,8.39-1,12.54-1.72a51.74,51.74,0,0,0,6.15-1.43,12.32,12.32,0,0,0,1.46-.58,3,3,0,0,0,.64-.41c.2-.17.29-.41.13-.58a3,3,0,0,0-1.38-.62,13.64,13.64,0,0,0-1.55-.29,57.62,57.62,0,0,0-6.3-.42C88.75,64.43,86.64,64.44,84.53,64.48Z" style="fill:#c7c7c7"></path><path d="M59,71.56c-1.5,0-3,0-4.49-.14a17.2,17.2,0,0,1-4.44-.75,2.12,2.12,0,0,1-.51-.28.58.58,0,0,1-.2-.58,1.87,1.87,0,0,1,.88-.75,12.91,12.91,0,0,1,2.11-.81c1.45-.43,2.91-.76,4.38-1.06,2.95-.56,5.92-1,8.9-1.34s6-.63,9-.82q-4.47.42-8.94,1c-3,.38-5.93.82-8.87,1.41-1.46.28-2.93.6-4.36,1a13.4,13.4,0,0,0-2.09.78,1.73,1.73,0,0,0-.81.66c-.1.32.29.56.61.68a17.51,17.51,0,0,0,4.39.78C56.05,71.45,57.54,71.52,59,71.56Z" style="fill:#c7c7c7"></path><path d="M62.61,65.63c-2.53.34-5.06.73-7.58,1.19a68.38,68.38,0,0,0-7.47,1.7q-.91.27-1.8.63a3.67,3.67,0,0,0-1.54,1,.5.5,0,0,0,.27.69,3.62,3.62,0,0,0,.85.38,14.72,14.72,0,0,0,1.86.42,60.78,60.78,0,0,0,7.64.54c5.11.12,10.22,0,15.33-.32,2.55-.15,5.1-.32,7.64-.59l7.64-.7c-5.08.51-10.16,1.16-15.28,1.43s-10.22.5-15.34.4a59.58,59.58,0,0,1-7.66-.59,12.45,12.45,0,0,1-1.88-.43,3.38,3.38,0,0,1-.89-.4.92.92,0,0,1-.35-.38.55.55,0,0,1,0-.53A3.77,3.77,0,0,1,45.7,69c.6-.24,1.21-.45,1.82-.63A100.35,100.35,0,0,1,62.61,65.63Z" style="fill:#c7c7c7"></path><path d="M94.45,69.27c1.79-.33,3.57-.7,5.33-1.14a21.58,21.58,0,0,0,5.11-1.75c.36-.22.8-.58.62-1a2.24,2.24,0,0,0-1.11-.64,14.65,14.65,0,0,0-2.65-.54c-1.8-.23-3.61-.33-5.42-.39-3.62-.14-7.26-.11-10.88,0s-7.26.31-10.88.55c3.62-.32,7.24-.56,10.87-.69s7.26-.2,10.9-.08c1.81.08,3.63.19,5.43.43a16.15,16.15,0,0,1,2.68.56,2.3,2.3,0,0,1,1.19.73.66.66,0,0,1-.12.71,3.79,3.79,0,0,1-.55.44,13.17,13.17,0,0,1-2.53,1c-.87.27-1.75.5-2.64.71C98,68.64,96.24,69,94.45,69.27Z" style="fill:#c7c7c7"></path><path d="M155.52,39c-2.09.28-4.18.61-6.25,1a58.61,58.61,0,0,0-6.17,1.4c-.5.16-1,.33-1.48.53a2.93,2.93,0,0,0-1.26.83c-.13.2,0,.42.21.55a3.47,3.47,0,0,0,.71.31,12.59,12.59,0,0,0,1.53.34,50.88,50.88,0,0,0,6.29.45c4.22.1,8.44,0,12.65-.26,2.11-.12,4.22-.27,6.32-.49l6.3-.57c-4.2.43-8.39,1-12.61,1.2s-8.44.41-12.66.33a51.4,51.4,0,0,1-6.32-.48,11.77,11.77,0,0,1-1.56-.36,3.73,3.73,0,0,1-.74-.33.9.9,0,0,1-.29-.32.48.48,0,0,1,0-.45,3,3,0,0,1,1.34-.89c.49-.2,1-.37,1.5-.52A81.21,81.21,0,0,1,155.52,39Z" style="fill:#c7c7c7"></path><path d="M181.8,42c1.47-.27,2.94-.58,4.39-.94a17.57,17.57,0,0,0,4.22-1.46c.3-.17.65-.47.5-.77a1.72,1.72,0,0,0-.9-.52,12.5,12.5,0,0,0-2.19-.44c-1.48-.19-3-.27-4.47-.32-3-.12-6-.1-9,0s-6,.25-9,.44c3-.27,6-.47,9-.58s6-.16,9-.07c1.5.07,3,.16,4.48.36a14.12,14.12,0,0,1,2.22.46,2,2,0,0,1,1,.61.55.55,0,0,1-.1.6,2.33,2.33,0,0,1-.46.37,17.38,17.38,0,0,1-4.26,1.43C184.75,41.49,183.28,41.76,181.8,42Z" style="fill:#c7c7c7"></path><path d="M177.34,36.7a102,102,0,0,1,15.34.35c.63.09,1.27.2,1.89.35a3.62,3.62,0,0,1,1.77.8.57.57,0,0,1,.12.52,1.06,1.06,0,0,1-.29.43,4,4,0,0,1-.82.53,13.12,13.12,0,0,1-1.79.72,60.08,60.08,0,0,1-7.47,1.78c-5,.9-10.13,1.51-15.22,2s-10.21.68-15.31,1l7.65-.5c2.56-.14,5.1-.36,7.65-.62C176,43.53,181,42.89,186.05,42a61.61,61.61,0,0,0,7.46-1.74,13.44,13.44,0,0,0,1.76-.7,3.57,3.57,0,0,0,.79-.51c.24-.19.36-.5.16-.72a3.75,3.75,0,0,0-1.68-.76c-.62-.15-1.25-.25-1.88-.34a67.29,67.29,0,0,0-7.64-.51C182.46,36.63,179.9,36.64,177.34,36.7Z" style="fill:#c7c7c7"></path><path d="M146.46,45.28c-1.81,0-3.63-.07-5.44-.19-.91-.07-1.81-.15-2.71-.28a12.26,12.26,0,0,1-2.66-.63,2.8,2.8,0,0,1-.61-.34.65.65,0,0,1-.24-.69,2.3,2.3,0,0,1,1.06-.9,15,15,0,0,1,2.56-1c1.74-.52,3.52-.92,5.3-1.28,3.57-.68,7.17-1.2,10.77-1.63s7.23-.77,10.85-1q-5.43.49-10.83,1.15c-3.6.46-7.19,1-10.75,1.7-1.78.35-3.55.73-5.29,1.24a15.63,15.63,0,0,0-2.53.94,2.23,2.23,0,0,0-1,.81c-.13.41.36.7.75.85A21.21,21.21,0,0,0,141,45C142.83,45.14,144.65,45.23,146.46,45.28Z" style="fill:#c7c7c7"></path><path d="M149.82,59.35c-2.09.28-4.18.61-6.25,1a58.61,58.61,0,0,0-6.17,1.4c-.5.16-1,.33-1.48.53a3,3,0,0,0-1.27.83c-.12.2,0,.42.22.55a3.17,3.17,0,0,0,.7.31,13.49,13.49,0,0,0,1.53.34,51,51,0,0,0,6.3.45c4.22.1,8.44,0,12.65-.26,2.11-.12,4.21-.27,6.31-.49l6.31-.57c-4.2.43-8.39,1-12.61,1.2s-8.44.41-12.66.33a51.71,51.71,0,0,1-6.33-.48,12,12,0,0,1-1.55-.36,2.92,2.92,0,0,1-.74-.34.75.75,0,0,1-.3-.31.5.5,0,0,1,0-.45,3.07,3.07,0,0,1,1.35-.89,15.63,15.63,0,0,1,1.5-.52A81,81,0,0,1,149.82,59.35Z" style="fill:#c7c7c7"></path><path d="M176.1,62.35c1.47-.27,2.94-.58,4.39-.94A17.72,17.72,0,0,0,184.71,60c.29-.17.65-.47.5-.77a1.75,1.75,0,0,0-.91-.52,12.21,12.21,0,0,0-2.18-.44c-1.48-.19-3-.27-4.47-.32-3-.12-6-.1-9,0s-6,.25-9,.44c3-.27,6-.47,9-.58s6-.16,9-.07c1.5.06,3,.16,4.49.36a12.76,12.76,0,0,1,2.21.46,1.92,1.92,0,0,1,1,.61.55.55,0,0,1-.1.6,2.67,2.67,0,0,1-.46.37,17.45,17.45,0,0,1-4.27,1.43C179.05,61.84,177.58,62.11,176.1,62.35Z" style="fill:#c7c7c7"></path><path d="M171.64,57.05A100.76,100.76,0,0,1,187,57.4c.63.09,1.26.2,1.89.35a3.7,3.7,0,0,1,1.77.8.59.59,0,0,1,.12.52,1.06,1.06,0,0,1-.29.42,3.63,3.63,0,0,1-.82.54,13.12,13.12,0,0,1-1.79.72,61.91,61.91,0,0,1-7.47,1.78c-5,.9-10.13,1.51-15.22,2s-10.21.68-15.32,1l7.66-.5c2.55-.14,5.1-.36,7.65-.62,5.08-.51,10.16-1.16,15.19-2.07a61,61,0,0,0,7.45-1.74,13,13,0,0,0,1.77-.7,3.5,3.5,0,0,0,.78-.51.49.49,0,0,0,.16-.72,3.65,3.65,0,0,0-1.68-.76c-.61-.15-1.24-.25-1.87-.34a67.31,67.31,0,0,0-7.65-.51C176.76,57,174.2,57,171.64,57.05Z" style="fill:#c7c7c7"></path><path d="M140.76,65.62c-1.81,0-3.63-.06-5.44-.18-.91-.07-1.81-.15-2.71-.28a12.34,12.34,0,0,1-2.67-.63,3.05,3.05,0,0,1-.61-.34.66.66,0,0,1-.23-.69,2.25,2.25,0,0,1,1.06-.9,15,15,0,0,1,2.56-1c1.74-.52,3.52-.92,5.3-1.28,3.57-.68,7.17-1.2,10.77-1.63s7.23-.77,10.85-1q-5.43.48-10.83,1.15c-3.6.46-7.19,1-10.75,1.7-1.78.35-3.55.73-5.29,1.24a15.74,15.74,0,0,0-2.54.94,2.22,2.22,0,0,0-1,.81c-.12.41.37.7.76.85a21.67,21.67,0,0,0,5.32.94C137.13,65.49,139,65.58,140.76,65.62Z" style="fill:#c7c7c7"></path><polygon points="66.56 73.98 107.07 69.57 107.45 74.39 67.55 78.75 66.56 73.98" style="fill:#909CF9"></polygon><polygon points="66.56 73.98 107.07 69.57 107.45 74.39 67.55 78.75 66.56 73.98" style="opacity:0.1"></polygon><polygon points="83.11 79.12 70.26 80.56 69.49 78.54 83.56 77 83.11 79.12" style="fill:#909CF9"></polygon><polygon points="83.11 79.12 70.26 80.56 69.49 78.54 83.56 77 83.11 79.12" style="opacity:0.2"></polygon><rect x="73.91" y="69.06" width="4.18" height="4.18" transform="matrix(1, -0.08, 0.08, 1, -5.35, 6.18)" style="fill:#263238"></rect><rect x="74.85" y="66.77" width="1.8" height="2.3" transform="translate(-5.1 6.15) rotate(-4.5)" style="fill:#37474f"></rect><polygon points="74.79 67.17 54.27 68.79 54.31 69.22 69.64 69.24 74.84 67.9 74.79 67.17" style="fill:#a6a6a6"></polygon><polygon points="76.58 67.03 97.1 65.42 97.13 65.85 81.99 68.27 76.64 67.75 76.58 67.03" style="fill:#a6a6a6"></polygon><polygon points="169.73 65.86 129.04 67.84 129.41 72.66 169.5 70.73 169.73 65.86" style="fill:#909CF9"></polygon><polygon points="169.73 65.86 129.04 67.84 129.41 72.66 169.5 70.73 169.73 65.86" style="opacity:0.1"></polygon><polygon points="154.19 73.53 167.11 72.94 167.55 70.82 153.42 71.5 154.19 73.53" style="fill:#909CF9"></polygon><polygon points="154.19 73.53 167.11 72.94 167.55 70.82 153.42 71.5 154.19 73.53" style="opacity:0.2"></polygon><rect x="157.87" y="62.45" width="4.18" height="4.18" transform="translate(324.5 116.32) rotate(175.5)" style="fill:#263238"></rect><rect x="158.81" y="60.16" width="1.8" height="2.3" transform="translate(323.74 109.9) rotate(175.5)" style="fill:#37474f"></rect><polygon points="160.54 60.42 181.06 58.81 181.09 59.24 165.95 61.66 160.6 61.15 160.54 60.42" style="fill:#a6a6a6"></polygon><polygon points="158.75 60.56 138.23 62.18 138.27 62.61 153.6 62.63 158.81 61.29 158.75 60.56" style="fill:#a6a6a6"></polygon><polygon points="118.45 75.47 117.26 60.43 103.9 61.48 91.55 52.48 56.3 55.25 57.84 59.96 90.21 57.41 106.75 76.39 118.45 75.47" style="fill:#909CF9"></polygon><polygon points="73.87 60.78 60.98 61.79 60.22 59.77 74.31 58.66 73.87 60.78" style="fill:#909CF9"></polygon><polygon points="73.87 60.78 60.98 61.79 60.22 59.77 74.31 58.66 73.87 60.78" style="opacity:0.1"></polygon><rect x="64.23" y="50.28" width="4.18" height="4.18" transform="translate(-3.9 5.36) rotate(-4.5)" style="fill:#263238"></rect><rect x="65.16" y="47.99" width="1.8" height="2.3" transform="translate(-3.65 5.34) rotate(-4.5)" style="fill:#37474f"></rect><polygon points="65.1 48.39 44.59 50.01 44.62 50.44 59.96 50.46 65.16 49.12 65.1 48.39" style="fill:#a6a6a6"></polygon><polygon points="66.9 48.25 87.41 46.64 87.45 47.07 72.3 49.49 66.95 48.98 66.9 48.25" style="fill:#a6a6a6"></polygon><polygon points="118.45 75.47 117.26 60.43 130.62 59.38 141.41 48.55 176.67 45.78 175.88 50.67 143.51 53.21 130.14 74.55 118.45 75.47" style="fill:#909CF9"></polygon><polygon points="160.18 53.99 173.06 52.97 173.51 50.85 159.41 51.96 160.18 53.99" style="fill:#909CF9"></polygon><polygon points="160.18 53.99 173.06 52.97 173.51 50.85 159.41 51.96 160.18 53.99" style="opacity:0.1"></polygon><rect x="164.23" y="42.41" width="4.18" height="4.18" transform="translate(335.62 75.81) rotate(175.5)" style="fill:#263238"></rect><rect x="165.17" y="40.12" width="1.8" height="2.3" transform="translate(334.86 69.38) rotate(175.5)" style="fill:#37474f"></rect><polygon points="166.9 40.38 187.41 38.77 187.45 39.2 172.31 41.62 166.96 41.11 166.9 40.38" style="fill:#a6a6a6"></polygon><polygon points="165.1 40.52 144.59 42.14 144.62 42.57 159.96 42.59 165.16 41.25 165.1 40.52" style="fill:#a6a6a6"></polygon><polygon points="125.05 77.04 112.17 78.05 111.4 76.03 125.5 74.92 125.05 77.04" style="fill:#909CF9"></polygon><polygon points="125.05 77.04 112.17 78.05 111.4 76.03 125.5 74.92 125.05 77.04" style="opacity:0.1"></polygon><polygon points="110.51 57.01 123.4 56 124.92 59.83 109.61 61.04 110.51 57.01" style="fill:#909CF9"></polygon><polygon points="110.51 57.01 123.4 56 124.92 59.83 109.61 61.04 110.51 57.01" style="opacity:0.1"></polygon></g><g id="freepik--character-2--inject-6"><path d="M392,131.58a2.56,2.56,0,0,0,1.23,2.19,17.8,17.8,0,0,0,1.92,1c-.26-2.5-.25-5.1-.29-7.57,0-2.91.1-5.77.3-8.66,0,0,.06,0,.06,0,0,2.92.07,5.85.13,8.76.06,2.56.29,5.13.32,7.69q1,.42,2.07.75-.12-1.32-.21-2.67c-.17-2.68-.14-5.33-.19-8,0-.07.08-.07.08,0,.08,2.61.37,5.24.57,7.84.07,1,.16,2,.25,3l1.41.39.94.21c-.1-1.76-.11-3.53-.17-5.26-.09-2.79,0-5.57-.08-8.36,0-.1.12-.1.12,0,.07,2.78.3,5.56.43,8.34.08,1.78.23,3.61.3,5.42a33,33,0,0,0,12.57-.15,51.61,51.61,0,0,0,7.08-2c.56-.2,2-.76,3.4-1.33,0-.84-.07-1.68-.12-2.5-.11-1.85-.13-3.72-.29-5.57,0,0,.06-.06.06,0,.22,1.86.53,3.69.69,5.55.06.75.15,1.52.21,2.3.5-.2,1-.41,1.41-.6-.41-3.49-.45-7-.67-10.55,0-.08.09-.09.1,0,.36,3.41.9,6.87,1.1,10.32a5,5,0,0,0,.92-.49c.67-.68-.75-14.49-1-17.72-.5-6-1.05-13.22-2.74-19-1.45-4.93-4.33-11.94-16.69-11.3-9.07.47-13,10.11-13.53,15.64-.28,2.86-1.7,21.5-1.7,27.47C392,128.39,391.94,130,392,131.58Z" style="fill:#263238"></path><path d="M336.24,443.26c2.32.72,69.82-.74,72.29-2.38,1-.61-4.84-64.56-4.84-64.56l-42.81.82,4.87,42.77s-24.91,11.81-27.43,13.9S333.93,442.54,336.24,443.26Z" style="fill:#f7a9a0"></path><path d="M336.24,443.26c2.31.72,69.83-.74,72.29-2.39.3-.18.39-6.68-.69-15.13-12.24,2.05-55.93,8.76-59.34,6.76-2.37-1.4-.27-3.58,1.67-5-5.57,2.78-10.78,5.45-11.85,6.35C335.81,435.9,333.93,442.55,336.24,443.26Z" style="fill:#263238"></path><path d="M364.54,409.66l42-.59s-8.32-100.67-8-102.61c.44-2.48,30.27-119.41,30.27-119.41H388.74S357.11,296,356,306.54C354.13,323.5,364.54,409.66,364.54,409.66Z" style="fill:#263238"></path><path d="M402.79,399.58c-2.48-.18-5-.15-7.48-.18s-5,0-7.48,0c-5,.05-10,.13-14.95.27-1.36,0-2.72.08-4.09.14s-2.91.32-4.36.37a.09.09,0,0,0,0,.18c1.23,0,2.45.19,3.68.23s2.54,0,3.81,0l7.48,0c5,0,10-.11,15-.31,2.81-.12,5.65-.15,8.45-.44A.13.13,0,1,0,402.79,399.58Z" style="fill:#37474f"></path><path d="M420,196.5c-3.59,12.71-6.87,25.53-10.08,38.34s-6.42,25.64-9.61,38.46q-2.4,9.63-4.79,19.24c-1.55,6.24-3.36,12.52-3.74,19s.44,13.17,1,19.7,1.1,13.12,1.67,19.69c1.15,13.12,2.26,26.26,3.69,39.36.17,1.64.35,3.28.52,4.92,0,.14.23.14.22,0-.87-13.14-1.78-26.27-2.83-39.39q-.78-9.85-1.6-19.69c-.54-6.55-1.3-13.13-1.51-19.7s1-13,2.6-19.38,3.15-12.55,4.72-18.83q4.81-19.21,9.6-38.46c3.56-14.36,7.12-28.74,10.26-43.2A.06.06,0,1,0,420,196.5Z" style="fill:#37474f"></path><path d="M428.86,187.06s-12.8,50.16-21.75,85.47L390,187.06Z" style="fill:#37474f"></path><path d="M386.66,443.41c2.31.73,69.82-.73,72.28-2.38.95-.61-2.58-64.59-2.58-64.59l-42.24.82,2,42.81s-24.91,11.8-27.43,13.9S384.35,442.7,386.66,443.41Z" style="fill:#f7a9a0"></path><path d="M386.66,443.41c2.31.72,69.82-.73,72.28-2.38.3-.19.23-6.51,0-15.14-12.24,2.05-56.61,8.77-60,6.76-2.38-1.39-.28-3.57,1.67-5-5.58,2.78-10.79,5.46-11.86,6.36C386.23,436.05,384.35,442.7,386.66,443.41Z" style="fill:#263238"></path><path d="M390,187s1.17,19.18,5.75,34.33c.37,1.25.76,2.48,1.19,3.66a71,71,0,0,1,11.64,5.8s2.89,73.36,2.83,77.92c-.18,17.05,4.17,100.07,4.17,100.07l42.38-.41s-4.39-93.88-4.41-100.12c0-10-8.89-121.24-8.89-121.24Z" style="fill:#263238"></path><path d="M399.3,212.8c-.16-1.06-.32-2.12-.49-3.18-.29-2-.69-3.88-1-5.82-.77-4.39-1.58-8.8-2.56-13.16,0-.1-.2-.08-.19,0,.18,1.76.38,3.52.63,5.27s.42,3.51.67,5.26c.49,3.47,1,7,1.56,10.41.23,1.33,1.06,3.72-.86,4.13-1.51.33-2.63-1.16-3.07-2.41a29.07,29.07,0,0,1-1-4.8c-.32-1.75-.59-3.51-.84-5.27-.54-3.84-1.14-7.67-1.76-11.49,0-.11-.2-.08-.19,0a115.81,115.81,0,0,0,.85,11.76q.36,2.81.84,5.59a20.1,20.1,0,0,0,1.28,5.2,4.24,4.24,0,0,0,3.18,2.55h.09a.13.13,0,0,0-.06.11c0,.63,0,1.26.07,1.88s.19,1.22.31,1.83a12.93,12.93,0,0,0,.47,1.83c.1.28.21.56.34.84s.33.5.5.77c.06.11.19,0,.2-.07h0c0-.1,0-.2,0-.3s0,0,0,0h0a4.9,4.9,0,0,0,0-.54,8.76,8.76,0,0,0-.18-.89c-.13-.59-.29-1.18-.45-1.77s-.28-1.17-.43-1.76-.36-1.19-.5-1.8c0,0,0,0,0-.06a2.77,2.77,0,0,0,2.68-1.68A4.88,4.88,0,0,0,399.3,212.8Z" style="fill:#37474f"></path><path d="M412.05,232.29a33.92,33.92,0,0,0-4-2.63,39.21,39.21,0,0,0-4.55-2.36c-3.06-1.33-6.22-2.24-9.39-3.28-.09,0-.15.12-.06.16,3.06,1.22,6,2.84,9,4.29q2.19,1.07,4.42,2c1.48.66,3,1.43,4.49,2C412.05,232.54,412.14,232.36,412.05,232.29Z" style="fill:#37474f"></path><path d="M436,205.57a26.58,26.58,0,0,1-6.39-.86c-1-.25-1.91-.56-2.85-.87a7.45,7.45,0,0,1-2.58-1.29c-1.45-1.26-2.13-3.23-2.76-5a47,47,0,0,1-1.67-6,.09.09,0,0,0-.18,0,23.41,23.41,0,0,0,.87,6.86c.52,1.89,1.22,4,2.75,5.33a10.74,10.74,0,0,0,5.86,2.14,27,27,0,0,0,7-.09A.12.12,0,0,0,436,205.57Z" style="fill:#37474f"></path><path d="M449.9,356.8q-1.08-20.08-2.28-40.18c-1.54-26.65-3-53.31-4.71-80-1-15-1.92-30.07-3.1-45.09a.13.13,0,0,0-.25,0c1.06,26.81,2.7,53.59,4.25,80.38s3.13,53.31,4.81,79.95c.94,15,2.13,30.05,3.08,45.08a.09.09,0,1,0,.17,0C451.14,383.6,450.62,370.2,449.9,356.8Z" style="fill:#37474f"></path><path d="M456.13,400.2c-2.48-.18-5-.15-7.48-.18s-5,0-7.48,0c-5,.05-10,.13-14.95.27-1.36,0-2.73.08-4.09.14s-2.91.32-4.36.37a.09.09,0,0,0,0,.18c1.22,0,2.45.19,3.67.23s2.55,0,3.82,0c2.49,0,5,0,7.47,0,5,0,10-.1,14.95-.31,2.82-.12,5.66-.15,8.46-.43A.13.13,0,0,0,456.13,400.2Z" style="fill:#37474f"></path><path d="M407,143.65c-4.06,10.1-20.23,42.75-30.85,45.06-7,1.51-35.13-1.22-40-7.88-2.11-2.9,1.46-23.14,5.22-22.34s26.33,3.79,29.1,3,23.55-24.73,31.32-30.67C415.21,120.56,409.22,138.21,407,143.65Z" style="fill:#f7a9a0"></path><path d="M382.39,148.64l17.7,10.47s7.45-14.18,10.36-23.46.41-13.52-10.27-4.29A203,203,0,0,0,382.39,148.64Z" style="fill:#909CF9"></path><path d="M400.84,155.47q-3.51-2.55-7.16-4.93c-1.19-.78-2.38-1.58-3.59-2.33s-2.56-1.48-3.81-2.26a.08.08,0,0,0-.1.13c1.19.8,2.31,1.68,3.49,2.49s2.46,1.62,3.69,2.42q3.64,2.38,7.41,4.59A.07.07,0,0,0,400.84,155.47Z" style="fill:#263238"></path><path d="M410.45,135.65c-2.91,9.28-10.36,23.46-10.36,23.46l-14.45-8.55,23.55-24.34C412,126.28,412.21,130.05,410.45,135.65Z" style="opacity:0.1"></path><path d="M384.07,195.64l3.63-20.5s-5.63-11.18-2.06-18.89c1.8-3.9,16.69-25.56,23.34-30.38,6.24-4.53,13.57-2.7,16.54,1.2,12.55,16.45,16.05,33,20.72,69.93Z" style="fill:#909CF9"></path><path d="M409.86,173.27a62.39,62.39,0,0,0-9.17.44c-1.51.21-3,.48-4.49.79-.75.15-1.49.28-2.24.4a9.44,9.44,0,0,1-2.37.17.06.06,0,0,0,0,.11,17,17,0,0,0,2.24.22,14.41,14.41,0,0,0,2.17-.16c1.54-.19,3.06-.46,4.59-.67,3.09-.42,6.17-.85,9.29-1C410,173.51,410,173.27,409.86,173.27Z" style="fill:#263238"></path><path d="M417,176.82a67.79,67.79,0,0,0-7.48-1.23c-1.26-.13-2.51-.19-3.78-.21H404c-.66,0-1.33.1-2,.1-.07,0-.08.11,0,.11.62,0,1.25.14,1.87.2l1.89.17c1.25.11,2.5.24,3.76.34,2.52.2,5,.43,7.53.72C417.15,177,417.17,176.84,417,176.82Z" style="fill:#263238"></path><path d="M433.65,137c16,20,33.43,53.27,24.71,59.6-8,5.77-35.27-1.88-52.24-9.76-3.23-1.5,12-30,15.28-28a95.62,95.62,0,0,0,10.7,5.64c.94.32-3.9-6.39-8.77-22.11C418.38,126.35,424.49,125.49,433.65,137Z" style="fill:#f7a9a0"></path><path d="M379.26,154c-.23,3.4,8.21,3.25,8.21,3.25a6.31,6.31,0,0,0-2.77,3.27c-.79,2.47,2.74,4.79,2.74,4.79a7.79,7.79,0,0,0-2.37,3.91c-.52,2.44,2.7,5.29,2.7,5.29a6.84,6.84,0,0,0,.08,4.75c1.76,4,8.47,4.49,12.56,5.62A89.52,89.52,0,0,1,413.73,190l9.6-30.11S406,148.15,401,148.08C396.73,148,379.61,148.79,379.26,154Z" style="fill:#f7a9a0"></path><path d="M387.54,157.15c4.53-1,9.3-1,13.89-.83a.08.08,0,0,1,0,.16c-4.57-.17-9.3.88-13.86.89A.11.11,0,0,1,387.54,157.15Z" style="fill:#263238"></path><path d="M387.58,165a12,12,0,0,1,3.17,0c1.11.09,2.23.19,3.35.31q3.34.36,6.67.89c.1,0,.1.17,0,.16-2.23-.23-4.46-.44-6.69-.58-1.12-.07-2.24-.14-3.35-.19a14.47,14.47,0,0,1-3.16-.3A.16.16,0,0,1,387.58,165Z" style="fill:#263238"></path><path d="M387.87,174.5a8.58,8.58,0,0,1,2.85.17l3,.38c2,.24,4.07.48,6.11.65.1,0,.09.17,0,.16-2.07-.16-4.15-.3-6.22-.48-1-.08-2-.18-3.05-.28a7.73,7.73,0,0,1-2.74-.5A.06.06,0,0,1,387.87,174.5Z" style="fill:#263238"></path><path d="M428.88,162.31l17.36-11S437,138.22,430,131.42s-11.86-6.5-8.48,7.21A202.8,202.8,0,0,0,428.88,162.31Z" style="fill:#909CF9"></path><path d="M443.34,149q-3.87,2-7.64,4.15c-1.24.71-2.49,1.41-3.71,2.15s-2.48,1.6-3.75,2.36c-.09.06,0,.2.08.15,1.25-.69,2.55-1.29,3.8-2s2.56-1.45,3.83-2.19q3.78-2.16,7.45-4.52C443.47,149,443.41,148.92,443.34,149Z" style="fill:#263238"></path><path d="M428.88,162.4c-.83-2.92-2-5.72-3-8.59s-2-5.79-2.84-8.7a.06.06,0,1,0-.11,0c.36,1.47.69,3,1.09,4.42.21.72.44,1.45.67,2.16-.15-.26-.29-.52-.45-.78a26.2,26.2,0,0,0-1.53-2.25s-.09,0-.07.05a24.07,24.07,0,0,0,1.31,2.39c.34.56.72,1.1,1.08,1.65l.42,1.25a49.5,49.5,0,0,0,3.31,8.43C428.76,162.53,428.9,162.49,428.88,162.4Z" style="fill:#263238"></path><path d="M432.79,164.68c4.43,2.3,9.44,5.71,12,8.41.08.08,0,.21-.1.14-2.56-2-10.16-6.64-12.12-7.95C432,164.87,431.51,164,432.79,164.68Z" style="fill:#263238"></path><path d="M420.41,124.88c-.25,1.07-8.05,7.85-12.93,7.62-1.59-.07,1.15-8.6,1.15-8.6l-.15-.64-2-9L417,107.47l1.52-.9s.4,2.5.85,5.61c0,.14.05.29.07.44s.06.34.08.51c.08.46.15.94.21,1.41s.1.71.14,1.09.09.75.14,1.13A58.69,58.69,0,0,1,420.41,124.88Z" style="fill:#f7a9a0"></path><path d="M419.38,112.18a18.51,18.51,0,0,1-10.9,11.08l-2-9L417,107.47l1.52-.9S418.93,109.07,419.38,112.18Z" style="fill:#263238"></path><path d="M395.66,97.78c-5.07,15.36,3.56,20.13,6.88,21.22,3,1,13.37,4,20-10.78s1.09-22-5.67-24.6S400.73,82.42,395.66,97.78Z" style="fill:#f7a9a0"></path><path d="M422.56,107.05c-3.76-.85-2.33-6.76-2.33-6.76s-4.16-1.39-2.85-8.33a10.69,10.69,0,0,1-9,3.14C407.12,95,412,92.79,412,92.79s-6,3.28-14.66-.56c-.61-.27,3-9.54,10.94-11.13s13.91,1.8,17.26,7.35a8.88,8.88,0,0,1,3,7.84C427.91,101.38,424,107.39,422.56,107.05Z" style="fill:#263238"></path><path d="M419.89,107.49s4.6-4.1,6.54-2.35-2.33,8.27-5.18,8.62a2.73,2.73,0,0,1-3.22-2.27Z" style="fill:#f7a9a0"></path><path d="M425.16,107s0,.07,0,.07c-2,.31-3.38,1.79-4.48,3.39a1.52,1.52,0,0,1,2.3.12s0,.11-.07.09a1.69,1.69,0,0,0-1.94.14,7.61,7.61,0,0,0-1.21,1.26c-.12.14-.4,0-.29-.19,0,0,0,0,0,0C420,109.47,422.59,106.62,425.16,107Z" style="fill:#263238"></path><path d="M399.49,95.94a10.49,10.49,0,0,0,1.12,0,1.82,1.82,0,0,0,1.15-.17.59.59,0,0,0,.17-.68,1.4,1.4,0,0,0-1.28-.67,2.06,2.06,0,0,0-1.46.39A.61.61,0,0,0,399.49,95.94Z" style="fill:#263238"></path><path d="M409.19,100.07c-.39,0-.74,0-1.12,0a1.88,1.88,0,0,1-1.14-.25.58.58,0,0,1-.12-.69,1.42,1.42,0,0,1,1.32-.58,2.11,2.11,0,0,1,1.43.49A.62.62,0,0,1,409.19,100.07Z" style="fill:#263238"></path><path d="M406.36,101.85s.07.07.05.11c-.33,1.05-.54,2.31.32,2.94,0,0,0,.07,0,0C405.58,104.46,405.87,102.79,406.36,101.85Z" style="fill:#263238"></path><path d="M407.62,101c1.74.35.9,3.81-.71,3.48S406.16,100.71,407.62,101Z" style="fill:#263238"></path><path d="M408.25,101.35c.26.27.47.69.82.81s.82-.14,1.18-.42c0,0,.06,0,.05.05-.15.67-.57,1.29-1.3,1.21s-1-.76-1-1.47C408,101.4,408.15,101.25,408.25,101.35Z" style="fill:#263238"></path><path d="M400.55,100.38s-.1,0-.11.07c-.21,1.08-.64,2.28-1.69,2.41,0,0-.05.06,0,.07C400,103,400.52,101.43,400.55,100.38Z" style="fill:#263238"></path><path d="M399.85,99c-1.69-.53-2.64,2.9-1.06,3.39S401.27,99.48,399.85,99Z" style="fill:#263238"></path><path d="M399.08,99.06c-.33.11-.68.37-1,.3s-.56-.53-.7-1c0,0-.05,0-.07,0-.2.65-.17,1.4.43,1.69s1.12-.17,1.45-.78C399.25,99.23,399.2,99,399.08,99.06Z" style="fill:#263238"></path><path d="M404.23,110.48c-.31.2-.63.5-1,.46a2.86,2.86,0,0,1-1.11-.5s-.08,0-.06,0a1.48,1.48,0,0,0,1.26.85,1.17,1.17,0,0,0,1-.79C404.35,110.49,404.27,110.45,404.23,110.48Z" style="fill:#263238"></path><path d="M400.75,105.49a24,24,0,0,0-.82,2.29c0,.07.15.15.41.23h0a3.67,3.67,0,0,0,3.81-.45c.07-.06,0-.16-.09-.13a5.59,5.59,0,0,1-3.5.1c0-.22,1.16-2.59,1-2.63a6.7,6.7,0,0,0-1.81-.05c1.21-3.24,2.93-6.27,4.09-9.51a.11.11,0,0,0-.19-.1,56.68,56.68,0,0,0-4.83,10.06C398.72,105.71,400.41,105.54,400.75,105.49Z" style="fill:#263238"></path><path d="M400.94,107.73a4.07,4.07,0,0,0,1.17,1.64,1.89,1.89,0,0,0,1,.38c.82,0,1-.66,1.08-1.3a4.39,4.39,0,0,0-.07-1A5.12,5.12,0,0,1,400.94,107.73Z" style="fill:#263238"></path><path d="M402.11,109.37a1.89,1.89,0,0,0,1,.38c.82,0,1-.66,1.08-1.3A1.87,1.87,0,0,0,402.11,109.37Z" style="fill:#ff9cbd"></path><path d="M402,83.13c1.89.3,11.32,4.55,14.85,8.18s8.58,13,8.84,13.45,8.75-14.45-2.82-22.62C410.28,73.24,402,83.13,402,83.13Z" style="fill:#909CF9"></path><path d="M425.24,103.81s-3.82-14.64-7.45-19.13S404.24,74.4,396.56,74.56c-6,.13,3.67,11.78,3.67,11.78a3.81,3.81,0,0,1,3-1.63c3.69.06,9.29,3.51,12.23,6.08C419.16,94,425.24,103.81,425.24,103.81Z" style="fill:#909CF9"></path><path d="M425.24,103.81s-3.82-14.64-7.45-19.13S404.24,74.4,396.56,74.56c-6,.13,3.67,11.78,3.67,11.78a3.81,3.81,0,0,1,3-1.63c3.69.06,9.29,3.51,12.23,6.08C419.16,94,425.24,103.81,425.24,103.81Z" style="opacity:0.2"></path><path d="M408.62,123.88l2.18,7.39,9.7-8.16,2.24,3.12s-10,13.5-10,12.84l-2.35-6.41-4.64,3.87,1.36-10.69Z" style="fill:#909CF9"></path><path d="M406.11,131.2c.29-1.75.52-3.53.89-5.27,0-.06.11-.08.12,0,.19,1.74-.93,8.46-1.08,10.08l0,0c.2-.17,4.29-3.38,4.32-3.32.54,1,2.27,5.71,2.38,6.13,1.58-2.15,7.62-9.91,9.44-11.91a.06.06,0,0,1,.1.07c-1.44,2.29-9.44,12.76-9.54,12.72a68.72,68.72,0,0,1-2.45-6.78c-.71.72-4.88,4.39-4.87,4.12C405.53,135.23,405.83,133,406.11,131.2Z" style="fill:#263238"></path><polygon points="401.88 193.04 348.67 193.04 338.12 153.68 391.33 153.68 401.88 193.04" style="fill:#37474f"></polygon><polygon points="379.55 153.68 349.9 153.68 350.46 148.27 376.1 148.27 379.55 153.68" style="fill:#37474f"></polygon><path d="M385.05,156.58H346l1.85-11.13h29.44Zm-37.85-1h36.06l-6.41-9.13H348.73Z" style="fill:#37474f"></path><polygon points="404.9 193.04 401.88 193.04 391.33 153.68 394.35 153.68 404.9 193.04" style="fill:#263238"></polygon><polygon points="387.26 150.63 386.26 150.63 378.79 122.75 379.79 122.75 387.26 150.63" style="fill:#37474f"></polygon><polygon points="388.69 153.68 386.45 153.68 384.82 147.58 387.06 147.58 388.69 153.68" style="fill:#263238"></polygon><polygon points="343.11 150.63 342.11 150.63 334.64 122.75 335.64 122.75 343.11 150.63" style="fill:#37474f"></polygon><polygon points="344.55 153.68 342.31 153.68 340.67 147.58 342.92 147.58 344.55 153.68" style="fill:#263238"></polygon><path d="M339.21,155.12c-1.67,3.91-6.06,8.86-6.32,12a3.65,3.65,0,0,0,2.16,3.75s-3.06,1.68-2.82,4.57c.13,1.5,2.62,2.61,2.62,2.61a4.32,4.32,0,0,0-2,4c.3,2,2.75,2.85,2.75,2.85s-1.65,2.47-.68,4.45c2,4,19.66,3.32,22.14-3.3,1.15-3.09-3.16-2.69-3.16-2.69s6.06-2.08,6-5.73-5.62-2.78-5.62-2.78,5.85-2.07,5.42-5.85c-.45-3.94-5.88-2.12-5.88-2.12s3.83-2.82,2.84-5.64c-1.65-4.65-8.86,1.57-12.79.8l-2.4-6.33Z" style="fill:#f7a9a0"></path><path d="M335.89,160.84c1.26-3.84-3.62-8.33-2.94-12.17.91-5.2,6.92-.38,8.5,7.06l.22,6Z" style="fill:#f7a9a0"></path><path d="M335.94,185.1a.05.05,0,0,0,0,.1,30.69,30.69,0,0,0,18.18-1.81c.18-.08.12-.41-.09-.36A62.65,62.65,0,0,1,335.94,185.1Z" style="fill:#263238"></path><path d="M334.76,178.1c-.07,0-.07.11,0,.12a28.79,28.79,0,0,0,19.71-3.2c.21-.13.27-.44,0-.32C350.33,176.81,340.48,178.36,334.76,178.1Z" style="fill:#263238"></path><path d="M354.16,166.5c-5.88,3.26-12.21,4.3-18.86,4.44-.09,0-.07.12,0,.14,3.27.82,7.5.29,10.76-.4a17.76,17.76,0,0,0,8.21-4C354.36,166.63,354.28,166.43,354.16,166.5Z" style="fill:#263238"></path></g><g id="freepik--character-1--inject-6"><path d="M469.1,460.91c-.26-2.35-27.27-60.55-29.7-62.11-.92-.61-9.63,2.83-20,7.29l-.32.14c-2.15.92-41.74,11.55-41.74,11.55l17.55,38.09L436.05,444l.63-.31s20.3,17.65,23.16,19.09S469.36,463.25,469.1,460.91Z" style="fill:#ad6359"></path><path d="M411.52,408.45l18.05,37.39L436,444l.64-.31s20.3,17.65,23.16,19.09,9.53.5,9.25-1.84-27.26-60.55-29.69-62.1c-.92-.62-9.63,2.82-20,7.28l-.32.15C418.51,406.47,415.59,407.31,411.52,408.45Z" style="fill:#ebebeb"></path><path d="M469.33,461.2c-.26-2.37-27.33-61.23-29.78-62.82-.92-.61-9.72,2.83-20.24,7.29l17.34,38S457.09,461.57,460,463,469.58,463.57,469.33,461.2Z" style="fill:#909CF9"></path><path d="M466.58,461.44c-4.78-9.76-23.13-49.55-27.11-59.56,0-.08,0-.11.06,0,5,9.57,23,49.51,27.22,59.51C466.83,461.57,466.68,461.64,466.58,461.44Z" style="fill:#263238"></path><path d="M456.11,460.21a8.68,8.68,0,0,1-.31-7,8.48,8.48,0,0,1,4.25-4.62c.06,0,.12.08.06.11a10.09,10.09,0,0,0-3.88,11.47A.07.07,0,1,1,456.11,460.21Z" style="fill:#263238"></path><path d="M439.39,447c-1.87-3.92-2.58-9.14-.48-13.08.08-.15.29,0,.29.11a59.85,59.85,0,0,0,.71,12.82A.27.27,0,0,1,439.39,447Z" style="fill:#263238"></path><path d="M442,449.54c-1.87-3.92-2.58-9.14-.48-13.08.08-.15.29,0,.29.11a59.85,59.85,0,0,0,.71,12.82A.27.27,0,0,1,442,449.54Z" style="fill:#263238"></path><path d="M444.57,452.05c-1.87-3.93-2.58-9.15-.48-13.09.08-.15.3,0,.29.12a59.76,59.76,0,0,0,.71,12.81A.28.28,0,0,1,444.57,452.05Z" style="fill:#263238"></path><path d="M447.16,454.55c-1.87-3.93-2.58-9.14-.48-13.08.08-.16.3,0,.29.11a59.76,59.76,0,0,0,.71,12.81A.28.28,0,0,1,447.16,454.55Z" style="fill:#263238"></path><path d="M431.25,408.7c-2-4.43,4.87-7.59,6.9-3.14S433.28,413.15,431.25,408.7Z" style="fill:#263238"></path><path d="M436.46,453.18c1.77-3.4,2-7.44,2.66-11.14a.54.54,0,0,0-.65-.57.11.11,0,0,0-.17-.07,22.85,22.85,0,0,0-8.45,8.23c-1.15,2-1.61,5.29,1,6.53S435.42,455.16,436.46,453.18Zm-3.19,1.69c-4.48,1.58-3-3.81-2-5.27a23.51,23.51,0,0,1,2-2.67c1.48-1.77,3.19-3.31,4.83-4.92-.43,1.81-.71,3.63-1.07,5.44C436.54,449.61,435.74,454,433.27,454.87Z" style="fill:#263238"></path><path d="M429.33,428.53c-2.43,1.5-1.64,4.7-.28,6.59a22.75,22.75,0,0,0,9.25,7.32c.08,0,.14,0,.16-.09.32,0,.69-.25.58-.62-1-3.62-1.68-7.62-3.79-10.81C434,429.05,431.64,427.12,429.33,428.53Zm7,8c.55,1.77,1,3.55,1.62,5.3a65.4,65.4,0,0,1-5.3-4.4,24.93,24.93,0,0,1-2.27-2.44c-1.05-1.36-3.12-6.57,1.5-5.46C434.45,430.18,435.71,434.45,436.36,436.56Z" style="fill:#263238"></path><path d="M325.36,293.55s.73,22.81,4.15,34c0,0,3.73,2,4.85,2.67,0,0-28.34,67.85-26.73,94,.53,8.56,10.23,22.62,20,28.71,17.32,10.79,101.9,1.33,101.9,1.33l-12.28-50.85s-53.47,3-54.82.09c-1.71-3.68,8.94-32.22,17.44-55.41.86-2.34,9.41-11,8.41-26.62a80.94,80.94,0,0,0-7.36-27.92Z" style="fill:#37474f"></path><path d="M407.52,409.07c-11.66-.22-21.17.77-32.84.78H361.46a12.94,12.94,0,0,1-3-.27,3.81,3.81,0,0,1-2.35-1.39c-.77-1.16-.35-2.63-.09-3.88.59-2.75,1.25-5.47,2-8.18,2.94-11,6.78-21.79,10.39-32.6l5.58-16.7c.45-1.36.9-2.71,1.47-4a35.33,35.33,0,0,1,1.84-3.5,33,33,0,0,0,3.17-6.88c3.15-10.37.12-21.11-3.57-30.89-.5-1.31-1-2.62-1.55-3.92,0-.09-.17-.05-.14,0,3.36,10.33,7.37,21.08,5.11,32.11a26.44,26.44,0,0,1-2.69,7.41c-.65,1.19-1.36,2.33-2,3.52a29.11,29.11,0,0,0-1.62,3.77c-2,5.47-3.73,11-5.58,16.55-3.69,11-7.56,21.93-10.64,33.1-.76,2.78-1.47,5.57-2.1,8.39-.46,2.07-1.5,4.9.31,6.62,1.33,1.25,3.41,1.41,5.14,1.42,2.91,0,5.82,0,8.72,0,11.83,0,36.26-1,37.73-1.06A.2.2,0,0,0,407.52,409.07Z" style="fill:#263238"></path><path d="M420.57,451.9C419.42,446,418.33,440,417,434.08s-2.74-11.81-4.27-17.68c-.43-1.66-.88-3.32-1.32-5-.22-.79-.43-1.58-.66-2.36a21.58,21.58,0,0,0-.72-2.37c0-.08-.15,0-.15.05a33.62,33.62,0,0,0,.81,4.55c.29,1.44.57,2.87.86,4.31q.92,4.41,1.87,8.82c1.29,5.89,2.75,11.73,4.26,17.57q1.28,5,2.57,9.95A.16.16,0,0,0,420.57,451.9Z" style="fill:#263238"></path><path d="M317.34,376.68l60-21.75c.84-2.3,1.68-4.59,2.51-6.83s9.41-11,8.41-26.63A80.9,80.9,0,0,0,381,293.54H325.36s.73,22.82,4.15,34c0,0,3.73,2,4.85,2.67C334.36,330.26,325,352.66,317.34,376.68Z" style="fill:#263238"></path><path d="M228.78,463.64c2.26.68,66.38-1.44,68.77-3.07.92-.61,1.15-10,1.11-21.29v-.35c0-2.33-5.3-41.44-5.3-41.44l-44.88,1.35,8.8,41,0,.7s-24.18,11.79-26.62,13.86S226.51,463,228.78,463.64Z" style="fill:#ad6359"></path><path d="M228.78,463.65c2.26.67,66.38-1.45,68.77-3.08.92-.61,1.16-10,1.11-21.28v-.37c0-.63-.4-4-1-8.61L255.59,432l1.69,7.88,0,.7s-24.19,11.8-26.63,13.87S226.51,463,228.78,463.65Z" style="fill:#ebebeb"></path><path d="M228.29,463.92c2.29.68,67-1.48,69.45-3.12.92-.62,1.16-10.06,1.12-21.49l-41.75,1.27s-24.42,11.91-26.88,14S226,463.24,228.29,463.92Z" style="fill:#909CF9"></path><path d="M229.13,461.3c10.85-.63,54.65-2.14,65.41-1.93.09,0,.09.06,0,.06-10.74.86-54.55,2-65.41,2.05C228.91,461.48,228.9,461.31,229.13,461.3Z" style="fill:#263238"></path><path d="M234.32,452.11a8.71,8.71,0,0,1,6.58,2.44,8.43,8.43,0,0,1,2.62,5.71c0,.07-.12.07-.13,0a10.09,10.09,0,0,0-9.07-8A.07.07,0,0,1,234.32,452.11Z" style="fill:#263238"></path><path d="M252.94,441.8c4.34-.2,9.43,1.16,12.24,4.62.11.14-.08.29-.21.23a60,60,0,0,0-12.09-4.31A.28.28,0,0,1,252.94,441.8Z" style="fill:#263238"></path><path d="M249.63,443.22c4.34-.2,9.43,1.16,12.24,4.62.11.14-.08.29-.21.23a59.42,59.42,0,0,0-12.09-4.31A.28.28,0,0,1,249.63,443.22Z" style="fill:#263238"></path><path d="M246.32,444.64c4.34-.21,9.43,1.16,12.24,4.62.11.14-.08.29-.21.23a59.42,59.42,0,0,0-12.09-4.31A.28.28,0,0,1,246.32,444.64Z" style="fill:#263238"></path><path d="M243,446.06c4.34-.21,9.43,1.16,12.24,4.62.11.14-.08.29-.21.23A59.42,59.42,0,0,0,243,446.6.28.28,0,0,1,243,446.06Z" style="fill:#263238"></path><path d="M291.44,449.15c4.87-.15,5.11,7.43.23,7.57S286.55,449.3,291.44,449.15Z" style="fill:#263238"></path><path d="M248.41,436.72c2.45,2.95,6.08,4.73,9.25,6.77a.53.53,0,0,0,.77-.38.11.11,0,0,0,.13-.13,22.8,22.8,0,0,0-4.32-11c-1.42-1.85-4.25-3.54-6.38-1.64S247,435,248.41,436.72Zm-.32-3.59c.28-4.74,4.66-1.25,5.66.15a25.77,25.77,0,0,1,1.68,2.88c1.06,2,1.81,4.21,2.66,6.35-1.49-1.09-3.06-2.05-4.6-3.09C251.67,438.18,247.94,435.74,248.09,433.13Z" style="fill:#263238"></path><path d="M273.89,439.7c-.43-2.83-3.69-3.33-6-2.81a22.76,22.76,0,0,0-10.33,5.69.11.11,0,0,0,0,.18.52.52,0,0,0,.35.78c3.74.45,7.67,1.4,11.44.69C271.6,443.82,274.31,442.37,273.89,439.7Zm-10.12,3.37c-1.84-.18-3.66-.45-5.51-.56,2-1.1,4-2.29,6.11-3.19a24.35,24.35,0,0,1,3.13-1.14c1.66-.44,7.26-.33,4.45,3.49C270.4,443.78,266,443.28,263.77,443.07Z" style="fill:#263238"></path><path d="M250.92,436.71h50.21s-8.94-68.35-6-72.82c1.3-2,66.48,4.58,85.55-16.08,17.44-18.88-.31-54.26-.31-54.26h-53.5s-1.09,15.16-4,21.22c-1.23,2.6-61-1.1-70.35,16C240.09,353.57,250.92,436.71,250.92,436.71Z" style="fill:#37474f"></path><path d="M295.84,427.16c-5.67-.17-11.35-.39-17-.38s-11.37.12-17.06.34c-1.6.06-6.34.29-7.1.35a18,18,0,0,0-2.32.19c-.09,0-.06.14,0,.15,1.23.22,14.08.36,16.9.37,5.65,0,11.29-.15,16.94-.35,3.21-.12,6.42-.23,9.63-.37C296,427.46,296,427.16,295.84,427.16Z" style="fill:#263238"></path><path d="M329.09,309.92c.23-1.6.44-3.21.63-4.82.43-3.67.81-7.36.93-11.05,0-.29-.41-.27-.44,0-.34,2.85-.61,5.71-.93,8.56s-.57,5.71-1.1,8.5c-.16.85-.51,2.26-1.59,2.27-1.45,0-1.72-1.93-1.85-3a47.36,47.36,0,0,1-.14-8c.15-3,.53-6,.87-9.07,0-.11-.17-.13-.19,0-1.25,5.86-2.44,12-1.41,18a3.29,3.29,0,0,0,1.95,2.82l.05,0a.29.29,0,0,0,0,.1c0,.17,0,.34,0,.51a3.08,3.08,0,0,0,0,.43c0,.29,0,.59,0,.89a.22.22,0,0,0,.44,0,.2.2,0,0,0,.16-.15,4.85,4.85,0,0,0,0-1.74,2.11,2.11,0,0,0,1.78-1A7.31,7.31,0,0,0,329.09,309.92Z" style="fill:#263238"></path><path d="M323.77,314.27a85.59,85.59,0,0,1,11.51,9.47.15.15,0,0,1-.19.24c-3.92-3-7.95-6-11.69-9.25A.3.3,0,0,1,323.77,314.27Z" style="fill:#263238"></path><path d="M367.75,317.18a22.09,22.09,0,0,1-3.45-.27,28.2,28.2,0,0,1-3-.76c-1.85-.55-4.11-1.2-5.46-2.66a19.58,19.58,0,0,1-3.1-5.35,21.52,21.52,0,0,1-1.82-6.37c0-.1-.16-.1-.16,0a32.85,32.85,0,0,0,1.14,6.75,21,21,0,0,0,1.26,3.19,11.57,11.57,0,0,0,1.79,2.86c1.5,1.62,3.95,2.41,6,2.82a18.56,18.56,0,0,0,6.81,0C367.94,317.41,367.89,317.18,367.75,317.18Z" style="fill:#263238"></path><path d="M289.75,360.66a2.92,2.92,0,0,1,2.46-2.33,24.19,24.19,0,0,1,4.34-.09c3.35,0,6.69.07,10,.08,13.17,0,26.46-.35,39.42-2.94a91.94,91.94,0,0,0,18.43-5.57c5-2.17,10.06-5.16,13.19-9.78,3.61-5.33,3.89-12.3,3.77-18.52a71.34,71.34,0,0,0-3.23-19.83c-.51-1.63-1.09-3.23-1.74-4.82,0-.1.11-.18.15-.08a68.77,68.77,0,0,1,5.23,19.13,66.4,66.4,0,0,1,.45,9.77,38,38,0,0,1-1.24,9.49c-3.42,11.65-16.48,16.47-27,19.43-12.71,3.56-26,4.55-39.12,4.75-6.61.1-13.23,0-19.84-.09-1.26,0-3.34-.38-4.09.95a7.55,7.55,0,0,0-.59,2.4c-.14.93-.25,1.87-.32,2.81a78.88,78.88,0,0,0,.15,10.54q.61,10.71,1.48,21.4c.56,7.16,1.36,14.31,1.88,21.48.13,1.75.3,3.5.47,5.26,0,.2-.33.24-.35,0-1.84-14.16-3.15-28.38-4.08-42.63-.23-3.52-.49-7.05-.59-10.58A38,38,0,0,1,289.75,360.66Z" style="fill:#263238"></path><path d="M321.9,363.28a109.1,109.1,0,0,0,13.33-1c4.17-.52,8.33-1.09,12.46-1.8,7.2-1.23,14.56-2.58,21.36-5.32a37.47,37.47,0,0,0,10.28-6c.09-.07.2,0,.12.12-5.14,5-11.66,7.92-18.52,9.79a150.72,150.72,0,0,1-24,4.21,130.6,130.6,0,0,1-15.07.43C321.56,363.78,321.59,363.28,321.9,363.28Z" style="fill:#263238"></path><path d="M342.87,246.89c-2.09,10.69-11.84,45.8-21.84,50.05-6.56,2.8-34.73,5.41-40.74-.23-2.62-2.45-2.92-23,.92-22.92s26.57-1.22,29.15-2.53,18.49-28.72,25-36C346.58,222.67,344,241.14,342.87,246.89Z" style="fill:#ad6359"></path><path d="M319.61,256.42l19.36,7s4.65-15.33,5.77-25-2.14-13.35-10.9-2.28A204.26,204.26,0,0,0,319.61,256.42Z" style="fill:#909CF9"></path><path d="M339,259.66c-2.62-1.23-5.28-2.39-8-3.49-1.32-.54-2.63-1.1-4-1.62s-2.78-1-4.16-1.51c-.1,0-.17.11-.07.15,1.31.57,2.58,1.22,3.89,1.8s2.72,1.13,4.08,1.68q4,1.66,8.14,3.11A.07.07,0,1,0,339,259.66Z" style="fill:#263238"></path><path d="M344.74,238.39c-1.12,9.66-5.77,25-5.77,25l-15.8-5.68,18.56-28.33C344.49,228.9,345.41,232.56,344.74,238.39Z" style="opacity:0.1"></path><path d="M387.28,312.53l-67.95-.25c0,1.33,4-53.21,21.77-85.23,1.21-2.19,11.89-4.5,16.59-.14C378.24,246,387.28,313.4,387.28,312.53Z" style="fill:#909CF9"></path><path d="M359.09,228.31l-18.72.09a2.69,2.69,0,0,1,.16-.29l18.28-.09A3.76,3.76,0,0,1,359.09,228.31Zm4.36,5.58-25.84.12a1.43,1.43,0,0,0-.13.28l26.16-.1Zm3.46,5.86-31.82.15c0,.09-.07.19-.11.29l32.08-.14A2.1,2.1,0,0,0,366.91,239.75Zm2.85,5.88-36.87.16a2.47,2.47,0,0,0-.1.29l37.09-.16Zm2.44,5.87-41.26.18c0,.1-.07.19-.1.29l41.47-.18C372.27,251.69,372.23,251.6,372.2,251.5Zm2.15,5.87-45.16.2-.09.29,45.35-.19C374.42,257.57,374.38,257.47,374.35,257.37Zm1.93,5.87-48.66.22-.07.29,48.82-.21A2,2,0,0,1,376.28,263.24Zm1.74,5.88-51.82.23-.07.29,52-.22Zm1.6,5.87-54.7.24c0,.1-.05.2-.07.3l54.84-.24C379.67,275.19,379.64,275.1,379.62,275Zm1.47,5.88-57.34.25a2.3,2.3,0,0,1-.06.28l57.47-.25C381.14,281.06,381.11,281,381.09,280.87Zm1.36,5.88L322.7,287a2.89,2.89,0,0,0,0,.29l59.85-.27A2.3,2.3,0,0,1,382.45,286.75Zm1.25,5.88-61.94.27a.9.9,0,0,0,0,.28l62-.27A1.57,1.57,0,0,1,383.7,292.63Zm1.16,5.87-63.95.28,0,.28,64-.27C384.89,298.7,384.88,298.59,384.86,298.5Zm1.07,5.87-65.77.29c0,.1,0,.2,0,.3l65.85-.29C386,304.58,386,304.47,385.93,304.37Zm1,5.89-67.39.29c0,.1,0,.2,0,.28l67.46-.28C386.94,310.46,386.92,310.35,386.91,310.26Z" style="opacity:0.1"></path><path d="M344,249h10.69s.41,11,.36,11.34-5.66,3.66-6.09,3.43-5.2-2.32-5.31-2.64S344,249,344,249Z" style="opacity:0.1"></path><path d="M366.51,234.21c19.51,16.69,42.84,46,35.47,53.9-6.74,7.17-35,4.78-53.14.23-3.46-.87,2.72-27.75,6.3-26.44,6.27,2.29,13.77,2.35,14.23,2.41,1,.14-4.24-8.37-12-22.89C349.53,226.66,355.37,224.67,366.51,234.21Z" style="fill:#ad6359"></path><path d="M358.58,263.16s-9.88-3.57-16.42-5.54c-3.64-1.11-10.06-2.44-13.11-2-4.56.62-23.24,6.14-22,10.7,1.13,4.12,16.57-2.65,16.57-2.65s-16.19,5.46-13.92,10.18,18.69-5.26,18.69-5.26-16.5,6-13.4,10.48c2.35,3.39,17.74-4.81,17.74-4.81s-14.15,5.25-11.89,8.84c2.5,4,17.18-2.7,17.18-2.7,7.29,8.18,14.11,9.09,19,9.16C358.25,289.56,358.58,263.16,358.58,263.16Z" style="fill:#ad6359"></path><path d="M329.1,261.4c-1.93.57-3.88,1.14-5.75,1.88s-3.71,1.55-5.5,2.46a34.4,34.4,0,0,0-6.62,4.21c3.83-2.66,10.48-5.42,12.34-6.17s3.69-1.57,5.56-2.31C329.17,261.45,329.14,261.38,329.1,261.4Z" style="fill:#263238"></path><path d="M331.9,268.09c-2.43.84-4.87,1.58-7.26,2.53s-5.66,2.37-8,3.47c-.18.09-.13.38.05.3,2.35-1,5.77-2.32,8.13-3.3s4.69-2,7.07-2.94A0,0,0,0,0,331.9,268.09Z" style="fill:#263238"></path><path d="M335.33,273.4a57.46,57.46,0,0,0-10.79,4.71c-.17.1,0,.17.15.08,3.56-1.63,6.34-2.94,10.68-4.66C335.44,273.51,335.41,273.38,335.33,273.4Z" style="fill:#263238"></path><path d="M366.59,260l15-14.09s-11.56-11.1-19.65-16.47-12.88-4.15-7,8.68A203.11,203.11,0,0,0,366.59,260Z" style="fill:#909CF9"></path><path d="M378.29,244.18q-3.44,2.67-6.73,5.51c-1.08.93-2.18,1.85-3.24,2.81s-2.13,2-3.23,3a.08.08,0,1,0,.1.12c1.1-.91,2.26-1.74,3.36-2.65s2.24-1.91,3.36-2.87c2.2-1.89,4.35-3.85,6.46-5.85C378.43,244.23,378.35,244.13,378.29,244.18Z" style="fill:#263238"></path><path d="M366.61,260.1c-1.36-2.72-3.08-5.24-4.6-7.87s-3-5.31-4.42-8c0-.06-.14,0-.11.05.63,1.38,1.23,2.78,1.91,4.13.34.68.7,1.34,1.06,2-.2-.23-.38-.47-.59-.69a25,25,0,0,0-1.93-1.92s-.08,0-.05.06a24.86,24.86,0,0,0,1.73,2.11c.45.48.91.94,1.38,1.4.21.39.43.77.64,1.15a48,48,0,0,0,4.84,7.66C366.52,260.25,366.65,260.19,366.61,260.1Z" style="fill:#263238"></path><path d="M370.35,264.43c4.79,1.43,10.35,3.83,13.37,6,.09.06,0,.2-.07.15-2.9-1.53-11.23-4.61-13.4-5.53C369.58,264.77,369,264,370.35,264.43Z" style="fill:#263238"></path><polygon points="347.09 296.37 294.83 306.36 277.08 269.68 329.34 259.69 347.09 296.37" style="fill:#37474f"></polygon><polygon points="317.77 261.9 288.65 267.47 288.18 262.06 313.37 257.24 317.77 261.9" style="fill:#37474f"></polygon><path d="M323.72,263.71l-38.41,7.35L285,259.78,314,254.25Zm-37.36,6.13,35.41-6.77-8-7.76-27.62,5.28Z" style="fill:#37474f"></path><polygon points="350.06 295.8 347.09 296.37 329.34 259.69 332.31 259.12 350.06 295.8" style="fill:#263238"></polygon><polygon points="324.77 257.46 323.79 257.65 311.21 231.67 312.19 231.48 324.77 257.46" style="fill:#37474f"></polygon><polygon points="326.75 260.18 324.55 260.6 321.8 254.93 324.01 254.5 326.75 260.18" style="fill:#263238"></polygon><polygon points="281.41 265.75 280.43 265.94 267.85 239.96 268.84 239.77 281.41 265.75" style="fill:#37474f"></polygon><polygon points="283.39 268.47 281.19 268.89 278.44 263.22 280.65 262.8 283.39 268.47" style="fill:#263238"></polygon><path d="M278.42,270.9c-.9,4.15-4.29,9.84-3.95,13a3.63,3.63,0,0,0,2.83,3.27s-2.7,2.23-1.92,5c.41,1.44,3.06,2.06,3.06,2.06a4.33,4.33,0,0,0-1.23,4.33c.67,1.95,3.23,2.28,3.23,2.28s-1.15,2.73.17,4.5c2.69,3.58,19.94-.43,21.12-7.4.56-3.25-3.6-2.05-3.6-2.05s5.56-3.18,4.82-6.76-6-1.68-6-1.68,5.36-3.13,4.23-6.76-6.17-1-6.17-1,3.23-3.49,1.72-6.08c-2.49-4.26-8.41,3.21-12.41,3.19l-3.54-5.77Z" style="fill:#ad6359"></path><path d="M276.23,277.14c.52-4-5.11-7.5-5.17-11.41-.08-5.28,6.72-1.66,9.68,5.34l1.34,5.85Z" style="fill:#ad6359"></path><path d="M280.84,301c-.06,0-.06.09,0,.09a30.61,30.61,0,0,0,17.52-5.19c.16-.11.05-.42-.15-.33A63,63,0,0,1,280.84,301Z" style="fill:#263238"></path><path d="M278.37,294.3c-.07,0-.06.12,0,.12a28.77,28.77,0,0,0,18.76-6.85c.18-.16.18-.48,0-.31C293.41,290.11,284,293.48,278.37,294.3Z" style="fill:#263238"></path><path d="M295.24,279.27c-5.16,4.3-11.18,6.51-17.69,7.9-.08,0-.05.13,0,.14,3.36.19,7.42-1.13,10.49-2.42a17.74,17.74,0,0,0,7.32-5.44C295.46,279.35,295.35,279.17,295.24,279.27Z" style="fill:#263238"></path><path d="M343.3,236.24c3.23.77,10-3,12.32-7.63.15-.32-.44-3.57-1-7.57-.31-2.42-.6-5.13-.69-7.61,0-.52-15.48,4.32-15.48,4.32a39.56,39.56,0,0,1,1.84,9.51,5.57,5.57,0,0,1-.07,1,.88.88,0,0,0,0,.17C340,230.4,339.84,235.41,343.3,236.24Z" style="fill:#ad6359"></path><path d="M340.25,228.28c0,.05,0,.11,0,.17a10.45,10.45,0,0,0,1.6,0c9.18-.52,11.21-12.1,11.58-15-2.76.49-14.93,4.3-14.93,4.3a39.56,39.56,0,0,1,1.84,9.51A5.55,5.55,0,0,1,340.25,228.28Z" style="fill:#263238"></path><path d="M359,196c.77,5.74-4.72,21-9.19,23.92-6.47,4.17-15.77,3.14-19-4.35-3.12-7.25,4.38-27.08,9.25-29.56C347.25,182.39,357.88,187.55,359,196Z" style="fill:#ad6359"></path><path d="M342.06,202.94s.06.07,0,.12c-.39,1-.68,2.25.14,2.93,0,0,0,.07,0,0C341.13,205.48,341.52,203.84,342.06,202.94Z" style="fill:#263238"></path><path d="M343.36,202.18c1.71.46.66,3.84-.92,3.41S341.93,201.8,343.36,202.18Z" style="fill:#263238"></path><path d="M336,201.23s-.1,0-.11.07c-.29,1.06-.8,2.22-1.86,2.27,0,0,0,.06,0,.06C335.18,203.83,335.84,202.28,336,201.23Z" style="fill:#263238"></path><path d="M335.35,199.85c-1.64-.65-2.82,2.68-1.3,3.29S336.73,200.39,335.35,199.85Z" style="fill:#263238"></path><path d="M345.17,201.05c-.42-.26-.77-.57-1.16-.86s-.83-.56-1-1.11a.74.74,0,0,1,.38-.83,1.84,1.84,0,0,1,1.84.37,2.69,2.69,0,0,1,1.15,1.59A.8.8,0,0,1,345.17,201.05Z" style="fill:#263238"></path><path d="M333.87,198.73a13.85,13.85,0,0,0,1.4.39,2.42,2.42,0,0,0,1.5.13.75.75,0,0,0,.42-.81,1.85,1.85,0,0,0-1.42-1.23,2.66,2.66,0,0,0-2,.07A.79.79,0,0,0,333.87,198.73Z" style="fill:#263238"></path><path d="M340,213a1.75,1.75,0,0,1-1.07.34,2.93,2.93,0,0,1-1.05-.61s-.07,0-.06,0a1.5,1.5,0,0,0,1.15,1,1.19,1.19,0,0,0,1.11-.67A.06.06,0,0,0,340,213Z" style="fill:#263238"></path><path d="M339.89,209.47a3.71,3.71,0,0,1-2.87.85,4.31,4.31,0,0,1-1.3-.34,1,1,0,0,1-.24-.1,1.06,1.06,0,0,1-.21-.11.26.26,0,0,1-.14-.3h0a.49.49,0,0,1,0-.11h0l0-.1c.22-.81.68-2,.68-2-.34.06-2.05.27-1.89-.15a55.13,55.13,0,0,1,4.72-10.35.1.1,0,0,1,.18.09c-1.11,3.33-2.79,6.45-4,9.78a6.63,6.63,0,0,1,1.84,0c.11.07-.92,2.31-1,2.68v0a5.18,5.18,0,0,0,4,0C339.92,209.31,340,209.41,339.89,209.47Z" style="fill:#263238"></path><path d="M336.32,209.72a4.45,4.45,0,0,0,1.29,1.84,2,2,0,0,0,1.13.43c.9,0,1.16-.72,1.21-1.43a5.12,5.12,0,0,0-.06-1.12A5.7,5.7,0,0,1,336.32,209.72Z" style="fill:#263238"></path><path d="M337.61,211.56a2,2,0,0,0,1.13.43c.9,0,1.16-.72,1.21-1.43A2.06,2.06,0,0,0,337.61,211.56Z" style="fill:#ff9cbd"></path><path d="M358.11,209.11c-4.31-.56-5.5-6.07-3.68-9.94,0,0-11.59-.79-10.3-10a10.48,10.48,0,0,1-8.69,2.64l-1.41,3c-1.09-.57-1.65-4.11,1.7-6.12,0,0,1.11-4.48,5-6.52a6.31,6.31,0,0,1,6.83.42,9.47,9.47,0,0,1,7.14-.3,8.13,8.13,0,0,1,5,5.51s5.37,2.2,5.52,6.37a8.4,8.4,0,0,1-2.44,6.41s1.08,1.84-.31,5.09C361.56,207.83,359.4,209.28,358.11,209.11Z" style="fill:#263238"></path><path d="M344.54,188.45a11.31,11.31,0,0,0-.47,2.21,8.76,8.76,0,0,0,0,2.23,5.86,5.86,0,0,0,1.95,3.78,9.34,9.34,0,0,0,3.95,1.88c.74.13,1.47.31,2.22.39s1.5.14,2.26.23c-.76,0-1.52,0-2.28,0s-1.52-.17-2.29-.25a9.45,9.45,0,0,1-4.21-1.89,6.07,6.07,0,0,1-2-4.14A9.29,9.29,0,0,1,344.54,188.45Z" style="fill:#263238"></path><path d="M337.66,192.51a11.82,11.82,0,0,0,3.8-1.15,6.74,6.74,0,0,0,1.6-1.11,8.75,8.75,0,0,0,1.3-1.52,5.11,5.11,0,0,1-1,1.81,5.62,5.62,0,0,1-1.65,1.3,7.08,7.08,0,0,1-2,.65A6,6,0,0,1,337.66,192.51Z" style="fill:#263238"></path><path d="M341.69,209.81a5.15,5.15,0,0,1-2.55-6.81h0a5.15,5.15,0,1,1,3.77,7.19A5.06,5.06,0,0,1,341.69,209.81Zm-1.92-6.53a4.46,4.46,0,1,0,5.9-2.21,5,5,0,0,0-1.06-.33A4.47,4.47,0,0,0,339.77,203.28Z" style="fill:#909CF9"></path><path d="M331.31,206.62c-2-.61-3-3.32-2.17-6a6.21,6.21,0,0,1,2.09-3.12,3.19,3.19,0,0,1,5.24,1.59,6.11,6.11,0,0,1,0,3.76c-.78,2.56-2.89,4.23-4.83,3.88A2,2,0,0,1,331.31,206.62Zm.33-8.61a5.51,5.51,0,0,0-1.84,2.78c-.71,2.35.05,4.67,1.71,5.18s3.59-1,4.3-3.35a5.52,5.52,0,0,0,0-3.34,2.76,2.76,0,0,0-1.73-1.84,1.14,1.14,0,0,0-.25-.06A2.84,2.84,0,0,0,331.64,198Z" style="fill:#909CF9"></path><path d="M339.14,203.62l.57-.38c-.55-.85-2-2.22-3.62-1.3l.35.6C337.86,201.71,339.08,203.54,339.14,203.62Z" style="fill:#909CF9"></path><path d="M359.65,211.43l.68-.13c-.06-.31-.61-3.1-2-3.78s-9.35-2.38-9.73-2.45l-.14.67a92.38,92.38,0,0,1,9.57,2.39C358.94,208.59,359.51,210.66,359.65,211.43Z" style="fill:#909CF9"></path><path d="M352.87,208.41s4.5-4.43,6.57-2.73-2,8.57-4.86,9.08a2.8,2.8,0,0,1-3.42-2.17Z" style="fill:#ad6359"></path><path d="M358.24,207.62a0,0,0,0,1,0,.08c-2.05.42-3.37,2-4.41,3.69a1.55,1.55,0,0,1,2.35,0,.06.06,0,0,1-.07.1,1.74,1.74,0,0,0-2,.24,8.33,8.33,0,0,0-1.17,1.34c-.12.16-.41,0-.31-.17l0,0C353.08,210.42,355.59,207.38,358.24,207.62Z" style="fill:#263238"></path></g></svg>
