<svg xmlns="http://www.w3.org/2000/svg" viewBox="0 0 750 500"><g id="freepik--background-complete--inject-19"><path d="M517.29,85.1h67.59s-6-10.88-23.38-9.3c-16.61,1.51-17.46-5.35-25.9-6.19S520.11,75.24,517.29,85.1Z" style="fill:#f5f5f5"></path><path d="M608.69,132.64H712s-9.13-16.63-35.73-14.21c-25.4,2.31-26.69-8.18-39.61-9.47S613,117.57,608.69,132.64Z" style="fill:#f5f5f5"></path><path d="M82.3,141h87.9s-7.77-14.14-30.4-12.09c-21.6,2-22.7-6.95-33.69-8S86,128.16,82.3,141Z" style="fill:#f5f5f5"></path><path d="M54.56,93.32h54.51s-4.82-8.77-18.85-7.49c-13.4,1.22-14.08-4.32-20.9-5S56.83,85.37,54.56,93.32Z" style="fill:#fafafa"></path><path d="M146.59,429.49c.89-3.53-1.44-7.05-4-9.6s-5.72-4.81-7.09-8.19c-2.21-5.46.68-12.58-3.07-17.13-2.21-2.67-6.15-3.55-8.11-6.41A14.63,14.63,0,0,1,122.5,383a52.14,52.14,0,0,0-13.11-24.19,45.3,45.3,0,0,0,5.22,23.36c1.53,2.86,3.4,5.65,3.92,8.86.84,5.2-2,10.59-.73,15.69,1.5,5.85,8.09,9.72,8.44,15.74.29,5.09-4.12,9.59-3.76,14.67a13.64,13.64,0,0,0,2.3,6c4,6.53,9.78,11,18.54,10.8l10.74.32Z" style="fill:#ebebeb"></path><path d="M156.23,454.57a8.69,8.69,0,0,0,3-.08,18.28,18.28,0,0,0,3.48-.9,15,15,0,0,0,4.3-2.38,6,6,0,0,0,1.75-2.38,10.79,10.79,0,0,0,.49-3.21,32.08,32.08,0,0,1,.23-3.47,9.86,9.86,0,0,1,1.29-3.46c1.26-2.23,3.35-4.35,4-7.37s.17-6.18-.35-9.41-1-6.72.2-10.08,3.47-6.41,4.62-10.2.58-7.94.81-12a15.93,15.93,0,0,1,1.36-6c.86-1.9,2.06-3.7,3-5.71,1.89-4.05,2.2-8.64,2.69-13.13.24-2.27.49-4.55.73-6.86a34,34,0,0,1,1.16-6.88,60,60,0,0,1,2.53-6.65,21.67,21.67,0,0,0,1.22-3.48,33.44,33.44,0,0,0,.33-3.7,42.93,42.93,0,0,0-.33-7.42c-.3-2.48-.77-4.93-1.05-7.42,0-.14,0-.29,0-.42l-.05-.5-.44.23a16.55,16.55,0,0,0-5.75,4.91,26,26,0,0,0-3.52,6.56c-1.76,4.62-2.38,9.46-3.26,14.07s-2,9.17-4.34,13c-1.16,1.92-2.58,3.67-3.81,5.55a15.28,15.28,0,0,0-2.63,6.13c-.61,4.55,1.91,8.52,1.42,12.54a14.07,14.07,0,0,1-1.93,5.59c-1,1.72-2.1,3.31-3.18,4.92a30.81,30.81,0,0,0-2.85,5,15.62,15.62,0,0,0-1.29,5.39c-.24,3.62.29,7.05,0,10.29a23.82,23.82,0,0,1-2.59,8.84c-1.29,2.65-2.72,5.05-3.92,7.37a37.47,37.47,0,0,0-1.6,3.43,16.91,16.91,0,0,0-.93,3.4,21.38,21.38,0,0,0,0,6.13,15.46,15.46,0,0,0,3.11,7.79,7.47,7.47,0,0,0,.88.94,3.8,3.8,0,0,0,.71.59l.61.43a14.24,14.24,0,0,1-2.09-2.05,15.62,15.62,0,0,1-3-7.74,21.29,21.29,0,0,1,.11-6,16.22,16.22,0,0,1,.93-3.32,35.67,35.67,0,0,1,1.62-3.38c1.2-2.31,2.65-4.69,4-7.36a24.08,24.08,0,0,0,2.69-9c.26-3.31-.25-6.76,0-10.29a15.18,15.18,0,0,1,1.26-5.21,32,32,0,0,1,2.82-4.87c1.08-1.6,2.23-3.2,3.22-5a14.34,14.34,0,0,0,2-5.81c.49-4.28-2-8.28-1.39-12.51a14.56,14.56,0,0,1,2.54-5.87c1.21-1.83,2.63-3.59,3.84-5.56,2.41-3.95,3.57-8.58,4.43-13.22s1.51-9.43,3.24-14A25.76,25.76,0,0,1,185.9,327a15.91,15.91,0,0,1,5.5-4.71l-.49-.27c0,.14,0,.29.05.43.28,2.51.75,5,1,7.42a42.81,42.81,0,0,1,.32,7.32,34.53,34.53,0,0,1-.31,3.58,21.21,21.21,0,0,1-1.18,3.35,61.53,61.53,0,0,0-2.55,6.73,34.85,34.85,0,0,0-1.17,7q-.36,3.47-.72,6.87c-.49,4.51-.8,9-2.61,12.94-.9,1.95-2.09,3.75-3,5.72a16.46,16.46,0,0,0-1.41,6.19c-.21,4.14.35,8.19-.75,11.86s-3.41,6.72-4.58,10.19-.7,7.13-.17,10.34,1.08,6.37.4,9.23-2.63,5-3.91,7.28a9.86,9.86,0,0,0-1.31,3.6,33.46,33.46,0,0,0-.21,3.51,10.64,10.64,0,0,1-.44,3.12,5.68,5.68,0,0,1-1.65,2.27,14.63,14.63,0,0,1-4.19,2.4,19.36,19.36,0,0,1-3.43,1,12.7,12.7,0,0,1-2.19.22Z" style="fill:#e0e0e0"></path><path d="M189.43,327.91a1.89,1.89,0,0,0-.1.33c-.06.25-.14.57-.23,1-.21.85-.45,2.13-.85,3.72s-1.37,3.4-2.19,5.62a78.65,78.65,0,0,0-2.51,7.63c-.8,2.87-1.51,6.05-2.25,9.46a39.43,39.43,0,0,1-3.38,10.51c-.87,1.75-1.85,3.52-2.62,5.45a25.56,25.56,0,0,0-1.52,6.17,122.07,122.07,0,0,1-2.24,13l-5.92,24.84-5,20.26-3.29,13.67c-.37,1.58-.65,2.82-.86,3.73-.09.39-.15.71-.21,1a1.72,1.72,0,0,0-.05.34,1.72,1.72,0,0,0,.12-.32c.07-.26.16-.57.27-1l1-3.69c.84-3.27,2-7.91,3.51-13.62l5.11-20.23c1.84-7.64,3.87-16,6-24.84a123.92,123.92,0,0,0,2.23-13.06,24.77,24.77,0,0,1,1.46-6c.75-1.88,1.71-3.64,2.58-5.41,1.87-3.51,2.63-7.28,3.37-10.67s1.39-6.59,2.16-9.45,1.58-5.41,2.4-7.62,1.71-4,2.09-5.69.56-2.9.73-3.76c.06-.4.12-.72.16-1A1.45,1.45,0,0,0,189.43,327.91Z" style="fill:#e0e0e0"></path><path d="M158.13,454.59c7-4.21,8.93-16.87,6-24.47s-8.13-14.52-9-22.64c-.65-6.23,1.36-12.65-.13-18.74-2-8.22-10.08-14.55-10-23,0-4.74,2.7-9.23,2.45-14-.29-5.82-4.78-10.41-7.58-15.52-4.28-7.82-4.61-17.09-6.11-25.88s-4.9-18.19-12.72-22.47c-1.11,7.48-3,12.6-2.37,22.72.24,3.63,4.5,10.56,5.12,18.52.37,4.76.64,9.52,1,14.28s.63,9.35,2.32,13.68c1.29,3.32,3.35,6.32,4.32,9.75,1.81,6.44-.49,13.45,1,20,1.25,5.53,5.11,10.28,5.92,15.89,1.15,7.88-3.91,16.11-1.26,23.63,1.32,3.73,4.41,6.71,5.31,10.56.69,3,0,6.16.6,9.17,1,4.83,10.28,8.54,15.21,8.22" style="fill:#e0e0e0"></path><path d="M123,295.29s0,.14,0,.42.09.72.16,1.22c.17,1.08.36,2.66.74,4.71s1.47,4.37,2.34,7.16,1.82,6,2.62,9.59,1.52,7.57,2.24,11.85,1.52,8.95,3.67,13.4c1,2.23,2.12,4.47,3,6.85a30.82,30.82,0,0,1,1.52,7.57,152.33,152.33,0,0,0,2.15,16.32c2.21,11.06,4.31,21.58,6.23,31.17s3.83,18.14,5.36,25.38,2.8,13,3.68,17.1c.44,2,.79,3.53,1,4.64.12.5.21.89.29,1.2a2.56,2.56,0,0,0,.12.41,2.47,2.47,0,0,0,0-.42c-.06-.32-.13-.72-.22-1.22-.22-1.11-.52-2.68-.91-4.67-.82-4.09-2-9.94-3.46-17.14s-3.25-15.86-5.22-25.41-4-20.11-6.17-31.16A156.39,156.39,0,0,1,139.94,358a31.6,31.6,0,0,0-1.57-7.72c-.87-2.43-2-4.68-3-6.9-2.13-4.38-2.9-9-3.68-13.23s-1.48-8.26-2.33-11.86a99.33,99.33,0,0,0-2.74-9.6c-.9-2.8-2-5.09-2.44-7.1s-.65-3.6-.86-4.67c-.1-.5-.17-.9-.23-1.21A2.15,2.15,0,0,0,123,295.29Z" style="fill:#ebebeb"></path><path d="M394.27,124.24a4.79,4.79,0,0,1-.89-.18c-.57-.15-1.39-.37-2.4-.68a66.46,66.46,0,0,1-7.67-2.93,3.72,3.72,0,0,1-1.94-1.4,1.13,1.13,0,0,1,.12-1.2,1.73,1.73,0,0,1,1-.6,8.42,8.42,0,0,1,2,0l1.72.06,2.48.11a5.61,5.61,0,0,1,.91.09,5.9,5.9,0,0,1-.91,0l-2.48,0-1.72,0a8.38,8.38,0,0,0-1.93.07,1.39,1.39,0,0,0-.8.5.86.86,0,0,0-.09.89,1.91,1.91,0,0,0,.76.73,9.17,9.17,0,0,0,1,.52c2.91,1.32,5.63,2.33,7.61,3l2.36.77A5.77,5.77,0,0,1,394.27,124.24Z" style="fill:#e0e0e0"></path><path d="M396.16,125.45a2.7,2.7,0,0,1-.6,0c-.38,0-.93-.14-1.6-.27a39.2,39.2,0,0,1-5.19-1.37,40.51,40.51,0,0,1-5-2c-.62-.31-1.11-.57-1.44-.76a2.5,2.5,0,0,1-.5-.33,20.38,20.38,0,0,1,2,.89c1.25.56,3,1.28,5,2s3.8,1.15,5.13,1.46A21.33,21.33,0,0,1,396.16,125.45Z" style="fill:#e0e0e0"></path><rect x="444.74" y="147.31" width="7.36" height="6.34" transform="translate(33.26 -76.17) rotate(10.08)" style="fill:#e0e0e0"></rect><path d="M512.74,141.76s-2.19-1.48-7.59-2.23-13.4-3.09-12.23-1.74S507,145.55,512.7,142" style="fill:#e0e0e0"></path><rect x="514.28" y="141.33" width="1.6" height="3.75" transform="translate(33.01 -87.94) rotate(10.08)" style="fill:#ebebeb"></rect><rect x="512.49" y="140.89" width="5.53" height="2.65" transform="translate(32.85 -88) rotate(10.08)" style="fill:#ebebeb"></rect><path d="M518,142.69s2.57-.63,7.9.53,13.64,1.71,12.07,2.57-15.91,2.43-20-2.85" style="fill:#e0e0e0"></path><rect x="509.37" y="144.85" width="9.16" height="11.69" rx="3.5" transform="translate(34.31 -87.63) rotate(10.08)" style="fill:#e0e0e0"></rect><rect x="492.46" y="149.32" width="5.95" height="4.06" transform="translate(34.14 -84.39) rotate(10.08)" style="fill:#ebebeb"></rect><path d="M494.51,156.57h0a1.45,1.45,0,0,1-1.18-1.68l.38-2.14,2.86.5-.39,2.15A1.44,1.44,0,0,1,494.51,156.57Z" style="fill:#ebebeb"></path><path d="M448.28,137.46l0-.5A10.79,10.79,0,0,1,461,126.78L473.45,129a10.78,10.78,0,0,1,8.17,14.52h0a2.16,2.16,0,0,1-2.41,1.35l-29.14-5.18A2.17,2.17,0,0,1,448.28,137.46Z" style="fill:#f5f5f5"></path><rect x="461.39" y="130.47" width="0.47" height="4.02" transform="translate(30.32 -78.77) rotate(10.08)" style="fill:#e0e0e0"></rect><rect x="463.17" y="130.79" width="0.47" height="4.02" transform="translate(30.35 -78.97) rotate(10.07)" style="fill:#e0e0e0"></rect><rect x="464.96" y="131.11" width="0.47" height="4.02" transform="translate(30.52 -79.46) rotate(10.09)" style="fill:#e0e0e0"></rect><rect x="466.74" y="131.42" width="0.47" height="4.02" transform="translate(30.56 -79.67) rotate(10.08)" style="fill:#e0e0e0"></rect><rect x="468.52" y="131.74" width="0.47" height="4.02" transform="translate(30.68 -80.05) rotate(10.09)" style="fill:#e0e0e0"></rect><rect x="470.31" y="132.06" width="0.47" height="4.02" transform="translate(30.69 -80.21) rotate(10.07)" style="fill:#e0e0e0"></rect><path d="M461.35,161.19h0a16.64,16.64,0,0,1-13.47-19.3l.41-2.32,32.77,5.82-.41,2.32A16.65,16.65,0,0,1,461.35,161.19Z" style="fill:#ebebeb"></path><path d="M414.71,123.63s-2.19-1.48-7.59-2.23-13.4-3.09-12.23-1.74,14.11,7.76,19.77,4.22" style="fill:#e0e0e0"></path><rect x="416.25" y="123.2" width="1.6" height="3.75" transform="translate(28.33 -71.06) rotate(10.08)" style="fill:#ebebeb"></rect><rect x="414.46" y="122.76" width="5.53" height="2.65" transform="translate(28.16 -71.11) rotate(10.08)" style="fill:#ebebeb"></rect><path d="M420,124.57s2.57-.64,7.89.52,13.65,1.71,12.08,2.57-15.91,2.43-20-2.85" style="fill:#e0e0e0"></path><rect x="411.34" y="126.72" width="9.16" height="11.69" rx="3.5" transform="translate(29.62 -70.75) rotate(10.08)" style="fill:#e0e0e0"></rect><polygon points="410.07 131.78 409.64 134.21 519.7 153.78 520.18 151.04 508.82 149.03 506.39 145.55 423.74 130.86 420.37 133.21 410.07 131.78" style="fill:#ebebeb"></polygon><rect x="428.3" y="138.02" width="5.95" height="4.06" transform="matrix(0.98, 0.18, -0.18, 0.98, 31.17, -73.33)" style="fill:#ebebeb"></rect><path d="M430.33,145.32h0a1.45,1.45,0,0,1-1.17-1.68l.38-2.15,2.85.51-.38,2.15A1.45,1.45,0,0,1,430.33,145.32Z" style="fill:#ebebeb"></path><path d="M480.77,147c0,.09-7.37-1.15-16.41-2.75s-16.37-3-16.35-3.07,7.36,1.15,16.4,2.76S480.78,147,480.77,147Z" style="fill:#e0e0e0"></path><path d="M434.85,138.92a18.55,18.55,0,0,1-3.24-.42,16.73,16.73,0,0,1-3.19-.73,17.28,17.28,0,0,1,3.24.42A16.73,16.73,0,0,1,434.85,138.92Z" style="fill:#e0e0e0"></path><path d="M499.21,150.37a18.58,18.58,0,0,1-3.3-.43,18.17,18.17,0,0,1-3.23-.73,16.54,16.54,0,0,1,3.29.43A17.68,17.68,0,0,1,499.21,150.37Z" style="fill:#e0e0e0"></path><path d="M445.43,134.71a2,2,0,0,1-.36.28l-1.07.72,0,0h0c-2.08-.32-6-1-10.47-1.78l-7.06-1.28.1,0-1.92,1.54,0-.06-.39,2a3.34,3.34,0,0,1-.18.69,3.42,3.42,0,0,1,.08-.71c.07-.51.18-1.17.3-2v0l0,0,1.88-1.59,0,0,.06,0,7.07,1.22c4.47.8,8.38,1.52,10.44,1.94h-.05l1.11-.66A1.76,1.76,0,0,1,445.43,134.71Z" style="fill:#e0e0e0"></path><path d="M482.57,141.06a1.54,1.54,0,0,1-.24.25l-.73.67-2.79,2.47,0,0h0c-3.44-.58-8.48-1.45-14.07-2.45-6.05-1.07-11.44-2.06-14.86-2.7h-.05l0-.05-1-3-.26-.79a1.49,1.49,0,0,1-.07-.27s.05.08.12.26l.31.77c.27.71.64,1.7,1.11,2.92l-.07-.06c3.43.57,8.82,1.51,14.87,2.58,5.6,1,10.62,1.91,14.05,2.55l-.08,0,2.84-2.4.77-.63A1.68,1.68,0,0,1,482.57,141.06Z" style="fill:#e0e0e0"></path><path d="M423.13,134.43s0,.1.06.16.09.08.15,0,.05-.08,0-.14-.12-.06-.15-.1.05-.14.23-.11a.31.31,0,0,1,.24.2.34.34,0,0,1-.11.39.33.33,0,0,1-.41,0,.34.34,0,0,1-.16-.27C423,134.44,423.11,134.39,423.13,134.43Z" style="fill:#e0e0e0"></path><path d="M422.91,135.67s0,.1.06.17.09.07.15,0,.05-.08,0-.15-.12-.06-.15-.09,0-.15.23-.12a.33.33,0,0,1,.24.2.36.36,0,0,1-.11.4.36.36,0,0,1-.41,0,.33.33,0,0,1-.16-.28C422.76,135.69,422.89,135.64,422.91,135.67Z" style="fill:#e0e0e0"></path><path d="M419.84,136.09a3.34,3.34,0,0,1,.1-1.44,3.6,3.6,0,0,1,.4-1.39,6.46,6.46,0,0,1-.5,2.83Z" style="fill:#e0e0e0"></path><path d="M411,134.36c-.09,0-.06-.54.05-1.18s.27-1.15.36-1.13a2.43,2.43,0,0,1-.05,1.18C411.24,133.87,411.08,134.38,411,134.36Z" style="fill:#e0e0e0"></path><path d="M485.64,141.83a1.76,1.76,0,0,1,.3.33l.82,1-.05,0c2.08.32,6,1,10.47,1.78l7.06,1.29h.06l0,0,1.22,2.14,0,0v0l-.39,2a3.61,3.61,0,0,1-.18.7,3.75,3.75,0,0,1,.07-.71c.08-.52.19-1.18.31-2v.07l-1.27-2.11.08.06-7.07-1.23c-4.47-.79-8.38-1.52-10.44-1.93h0l0,0-.75-1C485.71,142,485.62,141.84,485.64,141.83Z" style="fill:#e0e0e0"></path><path d="M506.67,149.25s.13.06.07.24a.32.32,0,0,1-.24.2.34.34,0,0,1-.37-.18.36.36,0,0,1,0-.41.35.35,0,0,1,.3-.1c.18,0,.21.17.17.19s-.1,0-.17,0-.09.07-.06.14.07.07.15,0S506.63,149.26,506.67,149.25Z" style="fill:#e0e0e0"></path><path d="M506.44,150.49s.14.07.08.24a.32.32,0,0,1-.24.21.37.37,0,0,1-.37-.18.36.36,0,0,1,0-.41.34.34,0,0,1,.3-.11c.18,0,.21.18.17.19s-.1,0-.17,0-.09.08-.06.14.07.07.15,0S506.41,150.51,506.44,150.49Z" style="fill:#e0e0e0"></path><path d="M509.18,151.94a3.34,3.34,0,0,1,.1-1.44,3.6,3.6,0,0,1,.4-1.39,6.87,6.87,0,0,1-.5,2.83Z" style="fill:#e0e0e0"></path><path d="M518.08,153.36c-.09,0-.07-.54,0-1.18s.27-1.14.36-1.13a2.44,2.44,0,0,1,0,1.18C518.32,152.87,518.16,153.38,518.08,153.36Z" style="fill:#e0e0e0"></path><path d="M450.76,142.42s-.13.13-.16.36a.36.36,0,0,0,.44.45.36.36,0,0,0,.2-.6c-.13-.19-.3-.2-.3-.25s.21-.12.47.1a.65.65,0,0,1,.2.54.66.66,0,0,1-1.17.27.66.66,0,0,1-.06-.57C450.51,142.4,450.77,142.38,450.76,142.42Z" style="fill:#e0e0e0"></path><path d="M464.16,144.8s-.13.13-.17.36a.36.36,0,0,0,.44.45.37.37,0,0,0,.21-.6c-.13-.19-.31-.2-.31-.25s.22-.12.47.1a.63.63,0,0,1,.2.54.66.66,0,0,1-1.17.27.62.62,0,0,1-.05-.57C463.91,144.78,464.16,144.76,464.16,144.8Z" style="fill:#e0e0e0"></path><path d="M476.5,147s-.13.13-.17.35a.37.37,0,0,0,.45.45.36.36,0,0,0,.2-.59c-.13-.19-.3-.21-.3-.25s.21-.13.47.1a.6.6,0,0,1-.3,1.05.63.63,0,0,1-.68-.25.65.65,0,0,1-.05-.57C476.25,147,476.5,147,476.5,147Z" style="fill:#e0e0e0"></path><path d="M479.67,150c0,.08-7.18-1.12-16-2.69s-16-2.9-15.95-3,7.18,1.12,16,2.69S479.68,149.93,479.67,150Z" style="fill:#e0e0e0"></path><path d="M460.47,161h-.2a5.36,5.36,0,0,1-.57-.1,8.88,8.88,0,0,1-2-.72,8.23,8.23,0,0,1-4.57-5.17,18.77,18.77,0,0,1-.84-7c0-.89.09-1.62.13-2.11a4.72,4.72,0,0,1,.1-.78,3,3,0,0,1,0,.78c0,.56,0,1.27,0,2.12a20.22,20.22,0,0,0,.92,6.85,9.2,9.2,0,0,0,1.87,3.25,9.57,9.57,0,0,0,2.5,1.83A13.52,13.52,0,0,0,460.47,161Z" style="fill:#e0e0e0"></path><path d="M474.53,149.11a2.06,2.06,0,0,1,0,.55,12.85,12.85,0,0,1-.34,1.48,24.47,24.47,0,0,1-1.89,4.64,18.29,18.29,0,0,1-2.85,4.11c-.22.23-.45.42-.64.59l-.54.38a1.76,1.76,0,0,1-.51.23,1.81,1.81,0,0,1,.44-.33l.49-.41c.18-.18.39-.37.6-.61a21,21,0,0,0,2.73-4.11,30.42,30.42,0,0,0,2-4.55C474.32,149.87,474.48,149.1,474.53,149.11Z" style="fill:#e0e0e0"></path><path d="M442.68,129.61a4.78,4.78,0,0,1,.61-.16,2.88,2.88,0,0,0,1.44-.74,1.22,1.22,0,0,0,.31-1,2.19,2.19,0,0,0-.57-1.12,6.19,6.19,0,0,0-1.12-.94,12.74,12.74,0,0,0-1.35-.82,25.31,25.31,0,0,0-5.23-2,20.57,20.57,0,0,1-2.24-.66,2.62,2.62,0,0,1,.63.08l1.67.36a22.4,22.4,0,0,1,5.32,1.91,13.37,13.37,0,0,1,1.38.85,6.21,6.21,0,0,1,1.15,1,2.44,2.44,0,0,1,.62,1.28,1.46,1.46,0,0,1-.4,1.17,2.84,2.84,0,0,1-1.59.71A1.89,1.89,0,0,1,442.68,129.61Z" style="fill:#e0e0e0"></path><path d="M447,126.51c-.08,0-.65-.94-1.68-1.86s-2-1.39-2-1.48a4.63,4.63,0,0,1,2.23,1.25A4.54,4.54,0,0,1,447,126.51Z" style="fill:#e0e0e0"></path><path d="M532.79,149a5.75,5.75,0,0,1,1,0c.63,0,1.56.06,2.69.07a27.26,27.26,0,0,0,4-.19,10,10,0,0,0,2.26-.5,2.15,2.15,0,0,0,.93-.69,1.34,1.34,0,0,0,.26-1.09,1.89,1.89,0,0,0-.66-1,5.9,5.9,0,0,0-1-.67c-.72-.4-1.41-.76-2.09-1.1-1.35-.66-2.59-1.2-3.65-1.62s-1.92-.73-2.52-.95a5.48,5.48,0,0,1-.93-.35,1,1,0,0,1,.26,0l.71.19c.61.18,1.49.45,2.56.85s2.33.92,3.7,1.58c.68.32,1.39.69,2.11,1.08a6.4,6.4,0,0,1,1.07.71,2.14,2.14,0,0,1,.75,1.13,1.63,1.63,0,0,1-.31,1.34,2.41,2.41,0,0,1-1.06.79,9.35,9.35,0,0,1-2.34.5,27.28,27.28,0,0,1-4,.14c-1.14,0-2.07-.12-2.7-.18A5.4,5.4,0,0,1,532.79,149Z" style="fill:#e0e0e0"></path><path d="M492,140.59s-.15,0-.38-.15a3.27,3.27,0,0,1-.83-.72,3.87,3.87,0,0,1-.76-1.46,3.74,3.74,0,0,1,0-2,3.84,3.84,0,0,1,2.56-2.47,3.19,3.19,0,0,1,1.09-.14c.26,0,.4.06.4.08a7.05,7.05,0,0,0-1.42.27,3.54,3.54,0,0,0-1.7,5.6A6.2,6.2,0,0,0,492,140.59Z" style="fill:#e0e0e0"></path><rect x="443.59" y="145.49" width="2.57" height="8.7" rx="1.16" transform="translate(33.11 -75.59) rotate(10.09)" style="fill:#e0e0e0"></rect></g><g id="freepik--Floor--inject-19"><path d="M721,453.83c0,.14-150.83.26-336.86.26S47.2,454,47.2,453.83s150.81-.26,336.89-.26S721,453.68,721,453.83Z" style="fill:#263238"></path></g><g id="freepik--character-1--inject-19"><path d="M548,183.39c-2.06-2.27-2.5-7.42-1.28-9.46s4.73-4.17,7.08-4.55c3.45-.56,6.82,2,10.29,2.37,3,.32,6.1-.14,9,.54a12.35,12.35,0,0,1,9.27,11.92c0,1.92-.55,3.8-.65,5.72a6.65,6.65,0,0,0,1.73,5.29c1.13,1,2.72,1.39,4,2.28a5.71,5.71,0,0,1,2.23,5.73,2.71,2.71,0,0,1-.94,1.66,1.35,1.35,0,0,1-1.77-.08,4.56,4.56,0,0,1-1.23,5.4,20.32,20.32,0,0,1-3.11,1.61c-1.79,1-3.14,2.57-4.88,3.6s-4.29,1.27-5.55-.31" style="fill:#263238"></path><path d="M555.55,191.44a5.68,5.68,0,0,1,0,1.05c0,.67,0,1.64.09,2.85a41.39,41.39,0,0,1,.16,4.26,10.62,10.62,0,0,1-1.41,5.09,6.28,6.28,0,0,1-2,2,7,7,0,0,1-2.42.91,10.61,10.61,0,0,1-4.3-.15,22.63,22.63,0,0,1-2.76-.83,4.7,4.7,0,0,1-1-.42c0-.1,1.46.41,3.8.89a10.77,10.77,0,0,0,4.14,0,6.05,6.05,0,0,0,4.05-2.68,10.4,10.4,0,0,0,1.37-4.83c.08-1.58,0-3-.05-4.23a21.57,21.57,0,0,1,.08-2.87A3.17,3.17,0,0,1,555.55,191.44Z" style="fill:#263238"></path><path d="M576.24,226.09l.31-42.91-1.22-.8a27.54,27.54,0,0,0-27.52-1.82h0s-.44,17.89.14,25.6,8.53,8.43,8.53,8.43l0,11.39a9.89,9.89,0,0,0,10.43,9.93h0A9.9,9.9,0,0,0,576.24,226.09Z" style="fill:#ffbe9d"></path><path d="M556.46,214.48A18.57,18.57,0,0,0,566.55,211s-2.08,5.7-10,5.48Z" style="fill:#eb996e"></path><path d="M549.69,193a1.09,1.09,0,0,0,1.07,1.09,1.05,1.05,0,0,0,1.14-1,1.09,1.09,0,0,0-1.07-1.09A1,1,0,0,0,549.69,193Z" style="fill:#263238"></path><path d="M549.45,191.78c.14.14,1-.47,2.16-.47s2.06.59,2.19.45-.08-.32-.46-.59a3.08,3.08,0,0,0-1.75-.53,3,3,0,0,0-1.72.54C549.51,191.46,549.39,191.71,549.45,191.78Z" style="fill:#263238"></path><path d="M561.33,193.27a1.08,1.08,0,0,0,1.06,1.09,1.05,1.05,0,0,0,1.14-1,1.09,1.09,0,0,0-1.07-1.09A1,1,0,0,0,561.33,193.27Z" style="fill:#263238"></path><path d="M561.13,192c.13.14,1-.46,2.16-.46s2.06.59,2.19.44-.08-.31-.46-.58a3,3,0,0,0-1.75-.53,3,3,0,0,0-1.72.54C561.18,191.68,561.06,191.93,561.13,192Z" style="fill:#263238"></path><path d="M556.82,200.62a8.65,8.65,0,0,0-1.93-.34c-.31,0-.59-.09-.64-.29a1.41,1.41,0,0,1,.2-.88c.28-.72.58-1.47.9-2.26a38.93,38.93,0,0,0,2-5.92,38.94,38.94,0,0,0-2.5,5.74L554,199a1.64,1.64,0,0,0-.16,1.17.74.74,0,0,0,.5.43,2,2,0,0,0,.51.07A7.81,7.81,0,0,0,556.82,200.62Z" style="fill:#263238"></path><path d="M560.31,201.43c-.19,0-.19,1.25-1.3,2.15s-2.47.76-2.48.93.3.25.88.26a3.26,3.26,0,0,0,2.08-.71,2.76,2.76,0,0,0,1-1.8C560.54,201.73,560.4,201.42,560.31,201.43Z" style="fill:#263238"></path><path d="M560.82,187.43c.12.32,1.3.17,2.7.33s2.52.54,2.7.26-.11-.44-.57-.74a4.47,4.47,0,0,0-2-.69,4.63,4.63,0,0,0-2.11.24C561,187,560.77,187.28,560.82,187.43Z" style="fill:#263238"></path><path d="M549.89,188.41c.21.26,1,0,2,0s1.82.17,2-.1,0-.4-.41-.65a2.83,2.83,0,0,0-1.64-.44,2.89,2.89,0,0,0-1.6.54C549.91,188,549.8,188.28,549.89,188.41Z" style="fill:#263238"></path><path d="M542.21,207.84l-1.24-.53a1.85,1.85,0,0,1-1-2.42h0a1.85,1.85,0,0,1,2.43-1l1.24.53a1.85,1.85,0,0,1,1,2.42h0A1.84,1.84,0,0,1,542.21,207.84Z" style="fill:#263238"></path><path d="M547.2,180.18c3,2.52,7.31,2.56,11.14,1.88s7.65-2,11.53-1.63a3.79,3.79,0,0,1,2.91,1.31,4.31,4.31,0,0,1,.47,2.39c0,1.46,0,2.92,0,4.39a30,30,0,0,0,.16,3.28,2.61,2.61,0,0,0,2.33,2.1c1.73-.18,1.75-2.1,2-3,.53-1.72.46-4.52.52-6.32a6.85,6.85,0,0,0-1.63-5c-1.43-1.52-3.61-2-5.63-2.52-2.81-.72-5.58-1.62-8.43-2.16A19.34,19.34,0,0,0,554,175a10.48,10.48,0,0,0-6.72,5.12" style="fill:#263238"></path><path d="M574.09,191.75c.13-.09,4.73-1.71,5.46,3.86s-5.25,4.5-5.28,4.34S574.09,191.75,574.09,191.75Z" style="fill:#ffbe9d"></path><path d="M575.76,197.76s.11.06.28.11a1,1,0,0,0,.74-.09,2.37,2.37,0,0,0,.85-2.3,3.17,3.17,0,0,0-.45-1.35,1.17,1.17,0,0,0-.85-.65.52.52,0,0,0-.55.35c0,.16,0,.27,0,.28s-.13-.07-.12-.31a.66.66,0,0,1,.18-.38.77.77,0,0,1,.53-.21,1.37,1.37,0,0,1,1.14.72,3.23,3.23,0,0,1,.55,1.51A2.54,2.54,0,0,1,576.9,198a1.06,1.06,0,0,1-.92,0C575.79,197.89,575.74,197.77,575.76,197.76Z" style="fill:#eb996e"></path><path d="M545.34,188.13v6.36a2.93,2.93,0,0,0,2.92,2.93h7.29s.77-1.54,1.87-1.09a3.65,3.65,0,0,1,.65.36,5.37,5.37,0,0,0,3,1h7.45a5,5,0,0,0,5-5v-6.42a1.61,1.61,0,0,0-1.62-1.61l-23.36.12A3.41,3.41,0,0,0,545.34,188.13Z" style="fill:#BA68C8"></path><path d="M546.48,187.61V194a2.1,2.1,0,0,0,2.11,2.11h6.7s.73-1.46,1.78-1a3.06,3.06,0,0,1,.87.53,3.61,3.61,0,0,0,2.29.76h8.38a3.77,3.77,0,0,0,3.77-3.77v-4.54a2,2,0,0,0-2-2L548.12,186A1.63,1.63,0,0,0,546.48,187.61Z" style="fill:#263238"></path><polygon points="572.38 184.74 580.17 187.71 580 192.04 573.12 193.06 572.38 184.74" style="fill:#BA68C8"></polygon><path d="M564,187.05a9.25,9.25,0,0,1-1.69,1.36c-1.08.79-2.58,1.84-4.27,3s-3.22,2.15-4.35,2.86a9.15,9.15,0,0,1-1.89,1.05,9,9,0,0,1,1.68-1.36c1.08-.78,2.59-1.84,4.27-3s3.23-2.15,4.36-2.86A9.15,9.15,0,0,1,564,187.05Z" style="fill:#e0e0e0"></path><path d="M559.83,187.32a24.89,24.89,0,0,1-4.23,2.94,25.73,25.73,0,0,1-4.51,2.5,25.57,25.57,0,0,1,4.23-2.94A26.56,26.56,0,0,1,559.83,187.32Z" style="fill:#e0e0e0"></path><path d="M564.19,190.33a9.67,9.67,0,0,1-2.63,2.1,9.56,9.56,0,0,1-3,1.52,31.24,31.24,0,0,1,5.64-3.62Z" style="fill:#e0e0e0"></path><path d="M549.57,243.88h45.92a0,0,0,0,1,0,0V336.5a0,0,0,0,1,0,0H552.23a2.65,2.65,0,0,1-2.65-2.65v-90A0,0,0,0,1,549.57,243.88Z" transform="translate(1145.07 580.38) rotate(180)" style="fill:#e0e0e0"></path><polygon points="590.58 346.13 595.34 452.96 601.48 453.22 597.09 346.19 590.58 346.13" style="fill:#ebebeb"></polygon><polygon points="525.91 346.13 530.67 452.96 536.82 453.22 532.42 346.19 525.91 346.13" style="fill:#ebebeb"></polygon><path d="M592.86,335.66a7.17,7.17,0,0,0,7.17-7.17V250.42a7.17,7.17,0,0,0-14.33,0v78.07A7.17,7.17,0,0,0,592.86,335.66Z" style="fill:#e0e0e0"></path><path d="M581.74,347.37h21.94a11.48,11.48,0,0,0-11.49-11.49H509.31a11.48,11.48,0,0,0-11.49,11.49h6.76L495.7,453h6.82l5.93-62.38h68.72L579.94,453l6.15.26-2.57-62.64h15.34v-2.44H583.41Zm-73.06,40.77,3.88-40.77h62.68l1.82,40.77Z" style="fill:#e0e0e0"></path><path d="M561.42,336.3a8.6,8.6,0,0,0,1.6.12l4.36.11c3.67.08,8.76.14,14.37.18l7.92.05a27.28,27.28,0,0,1,6.37.58,10.36,10.36,0,0,1,3.85,1.84c.82.61,1.18,1.06,1.23,1a1.93,1.93,0,0,0-.25-.33A6.73,6.73,0,0,0,600,339a10,10,0,0,0-3.88-2,25.81,25.81,0,0,0-6.46-.7c-2.43-.06-5.11-.07-7.92-.09-5.62,0-10.7-.05-14.38,0l-4.36,0A11.39,11.39,0,0,0,561.42,336.3Z" style="fill:#263238"></path><path d="M437.89,445.08l1.57-7.16L459,442.38l-2.28,11.2-1.22-.16c-5.46-.73-27.69-4.13-31.09-5.89C420.57,445.56,437.89,445.08,437.89,445.08Z" style="fill:#BA68C8"></path><g style="opacity:0.5"><path d="M449.61,452.07a6.86,6.86,0,0,1,3.17-3.75,5.92,5.92,0,0,1,5-.38l-1.11,5.36Z" style="fill:#fff"></path></g><g style="opacity:0.5"><path d="M429.37,445.6s-6.14.53-5.59,1.61,22.88,5.34,32.89,6.37l.05-.43-26.09-4.75S430.5,445.86,429.37,445.6Z" style="fill:#fff"></path></g><path d="M457,453.19a1.45,1.45,0,0,1-.34,0l-1-.12-3.58-.53c-3-.47-7.19-1.17-11.78-2s-8.72-1.75-11.71-2.42l-3.52-.82-1-.24-.33-.1.34.05,1,.2,3.54.75c3,.63,7.13,1.48,11.71,2.35s8.75,1.6,11.77,2.1l3.57.61,1,.17Z" style="fill:#263238"></path><path d="M430.58,448.69a8.14,8.14,0,0,0-.35-1.78,8,8,0,0,0-1-1.57,3.17,3.17,0,0,1,1.31,3.35Z" style="fill:#263238"></path><path d="M436.9,446.93c-.07,0-.28-.36-.48-.86s-.32-.91-.25-.94.27.36.47.86A2.13,2.13,0,0,1,436.9,446.93Z" style="fill:#263238"></path><path d="M438.64,446.41c-.06,0-.33-.22-.61-.58s-.46-.69-.41-.73.32.22.6.58S438.69,446.37,438.64,446.41Z" style="fill:#263238"></path><path d="M440,444.79a2.51,2.51,0,0,1-1-.07,2.31,2.31,0,0,1-1-.3,2.55,2.55,0,0,1,1.05.07A2.46,2.46,0,0,1,440,444.79Z" style="fill:#263238"></path><path d="M440.57,443.58a2,2,0,0,1-1.2.11,2.11,2.11,0,0,1-1.15-.38,5.88,5.88,0,0,1,1.17.14A6.72,6.72,0,0,1,440.57,443.58Z" style="fill:#263238"></path><path d="M436.55,445.13a4.06,4.06,0,0,1-1.26-.25,8.94,8.94,0,0,1-1.28-.54,4.48,4.48,0,0,1-.71-.46.7.7,0,0,1-.23-.44.49.49,0,0,1,.28-.46,2.38,2.38,0,0,1,2.73,1.21,2.24,2.24,0,0,1,.25.9.78.78,0,0,1,0,.34,3.43,3.43,0,0,0-.37-1.16,2.23,2.23,0,0,0-.95-.89,2,2,0,0,0-1.52-.19c-.22.11-.19.35,0,.53a3.66,3.66,0,0,0,.65.43,8.12,8.12,0,0,0,1.23.57C436.08,445,436.56,445.09,436.55,445.13Z" style="fill:#263238"></path><path d="M436.21,445.13a1.27,1.27,0,0,1,0-.89,2,2,0,0,1,.52-.83,1.29,1.29,0,0,1,1.16-.43.49.49,0,0,1,.28.64,1.31,1.31,0,0,1-.32.51,3.76,3.76,0,0,1-.73.64,2,2,0,0,1-.82.36s.3-.18.72-.5a3.91,3.91,0,0,0,.66-.64c.23-.23.43-.67.13-.79s-.69.16-.93.37a2.07,2.07,0,0,0-.51.73A5.53,5.53,0,0,0,436.21,445.13Z" style="fill:#263238"></path><path d="M457.63,447.87s-.55-.16-1.45-.22a6.46,6.46,0,0,0-3.4.67,6.32,6.32,0,0,0-2.49,2.35c-.45.77-.59,1.31-.63,1.3a1.16,1.16,0,0,1,.07-.39,5.52,5.52,0,0,1,.41-1,6,6,0,0,1,2.53-2.48,6.21,6.21,0,0,1,3.52-.63,6,6,0,0,1,1.07.23A1.37,1.37,0,0,1,457.63,447.87Z" style="fill:#263238"></path><path d="M447.5,449.74a11.77,11.77,0,0,1-2.91-.27,11.55,11.55,0,0,1-2.81-.77c0-.07,1.28.25,2.86.54S447.51,449.67,447.5,449.74Z" style="fill:#263238"></path><path d="M451.34,450.46c0,.06-.16.25-.34.51s-.31.5-.37.48-.05-.32.17-.62S451.31,450.41,451.34,450.46Z" style="fill:#263238"></path><path d="M453.12,449c0,.06-.13.23-.37.4s-.46.25-.5.19.12-.23.36-.39S453.08,448.92,453.12,449Z" style="fill:#263238"></path><path d="M455.34,448.56c0,.07-.29,0-.59.06s-.54.15-.59.1.17-.29.55-.34S455.37,448.51,455.34,448.56Z" style="fill:#263238"></path><path d="M456.88,448.46c0,.07-.11.15-.29.18s-.32,0-.34-.06.12-.15.3-.18S456.87,448.4,456.88,448.46Z" style="fill:#263238"></path><g style="opacity:0.30000000000000004"><polygon points="458.04 446.87 438.47 442.25 438.62 441.46 458.39 445.28 458.04 446.87"></polygon></g><path d="M480,449.23l-.23-7.33,20-.43.52,11.43L499,453c-5.47.62-27.85,2.74-31.58,1.87C463.28,453.92,480,449.23,480,449.23Z" style="fill:#BA68C8"></path><g style="opacity:0.5"><path d="M493,453.16a6.86,6.86,0,0,1,2.16-4.42,5.92,5.92,0,0,1,4.8-1.59l.22,5.47Z" style="fill:#fff"></path></g><g style="opacity:0.5"><path d="M471.82,451.81s-5.82,2-5,2.93,23.49-.41,33.46-1.84l-.06-.44-26.46,1.76S473,451.79,471.82,451.81Z" style="fill:#fff"></path></g><path d="M500.5,452.43a1.48,1.48,0,0,1-.34.06l-1,.11-3.6.36c-3.05.29-7.26.63-11.92.9s-8.89.43-11.94.51l-3.63.06h-1a1.23,1.23,0,0,1-.34,0,1.44,1.44,0,0,1,.34,0l1,0,3.62-.14c3.06-.12,7.28-.3,11.94-.57s8.87-.59,11.92-.83l3.61-.29,1-.07Z" style="fill:#263238"></path><path d="M473.75,454.52a5.17,5.17,0,0,0-2.09-2.93,3.14,3.14,0,0,1,2.09,2.93Z" style="fill:#263238"></path><path d="M479.45,451.26c-.06,0-.36-.28-.67-.71s-.53-.81-.48-.85.35.28.67.72S479.5,451.23,479.45,451.26Z" style="fill:#263238"></path><path d="M481,450.34c-.05.05-.37-.14-.73-.42s-.62-.55-.58-.6.37.13.73.41S481.05,450.29,481,450.34Z" style="fill:#263238"></path><path d="M481.92,448.44a2.53,2.53,0,0,1-1,.19,2.29,2.29,0,0,1-1.05-.05,2.53,2.53,0,0,1,1-.19A2.31,2.31,0,0,1,481.92,448.44Z" style="fill:#263238"></path><path d="M482.19,447.12a2.95,2.95,0,0,1-2.34.31,6,6,0,0,1,1.17-.14A6.6,6.6,0,0,1,482.19,447.12Z" style="fill:#263238"></path><path d="M478.67,449.6a3.47,3.47,0,0,1-1.28.07,7.91,7.91,0,0,1-1.37-.21,4.71,4.71,0,0,1-.8-.27.73.73,0,0,1-.34-.37.5.5,0,0,1,.17-.52,2.37,2.37,0,0,1,2.93.51,2.27,2.27,0,0,1,.47.81.76.76,0,0,1,.05.33,3.39,3.39,0,0,0-.64-1,2.29,2.29,0,0,0-1.14-.63,2,2,0,0,0-1.51.19c-.2.16-.1.39.13.51a3.7,3.7,0,0,0,.73.25,8,8,0,0,0,1.34.26C478.18,449.59,478.67,449.57,478.67,449.6Z" style="fill:#263238"></path><path d="M478.34,449.69a1.31,1.31,0,0,1-.19-.87,2,2,0,0,1,.29-.93,1.3,1.3,0,0,1,1-.7.5.5,0,0,1,.43.56,1.28,1.28,0,0,1-.19.57,3.65,3.65,0,0,1-.56.79,1.83,1.83,0,0,1-.7.55s.24-.24.57-.66a4,4,0,0,0,.49-.78c.16-.27.26-.76-.07-.79s-.63.31-.81.58a2,2,0,0,0-.31.83A6.12,6.12,0,0,0,478.34,449.69Z" style="fill:#263238"></path><path d="M499.79,447.13s-.58,0-1.47.13a6.56,6.56,0,0,0-3.13,1.48,6.34,6.34,0,0,0-1.84,2.89c-.25.85-.25,1.42-.3,1.41a1.21,1.21,0,0,1,0-.39,5.34,5.34,0,0,1,.16-1.06,6,6,0,0,1,1.84-3,6.15,6.15,0,0,1,3.27-1.47,5.37,5.37,0,0,1,1.09,0C499.65,447.08,499.79,447.11,499.79,447.13Z" style="fill:#263238"></path><path d="M490.42,451.4a11.23,11.23,0,0,1-2.89.45,11.68,11.68,0,0,1-2.92-.06c0-.07,1.31-.06,2.91-.17S490.41,451.33,490.42,451.4Z" style="fill:#263238"></path><path d="M494.31,451.17c.06.05-.09.28-.2.58s-.17.56-.24.56-.12-.3,0-.65S494.27,451.13,494.31,451.17Z" style="fill:#263238"></path><path d="M495.68,449.29c.05,0-.07.26-.26.47s-.39.36-.44.32.06-.26.26-.47S495.63,449.25,495.68,449.29Z" style="fill:#263238"></path><path d="M497.73,448.35c0,.07-.27.08-.56.2s-.49.28-.54.24.1-.32.45-.46S497.75,448.29,497.73,448.35Z" style="fill:#263238"></path><path d="M499.21,447.88c0,.06-.08.17-.25.24s-.31.08-.34,0,.08-.16.24-.23S499.18,447.82,499.21,447.88Z" style="fill:#263238"></path><g style="opacity:0.30000000000000004"><polygon points="499.94 446.06 479.83 446.34 479.78 445.55 499.89 444.43 499.94 446.06"></polygon></g><path d="M566.43,334.91s-47.59,1.14-64.17,5.71a8.65,8.65,0,0,0-6.34,8.28l4.92,95-24.66,2-9.74-107.38a18.68,18.68,0,0,1,11.25-18.22c18.55-8,66.28-8.29,66.59-9.12" style="fill:#263238"></path><path d="M572.3,311.87s4.75,20-8.15,24.11c-10.43,3.29-56.3,5.31-73.48,6a8.65,8.65,0,0,0-8.07,6.61l-23.39,96.63-26.2-4.7,23.26-108.73a18.68,18.68,0,0,1,15.12-15.16c19.9-3.56,56-10.09,56.44-10.83.68-1,3.39-6.78,3.39-6.78Z" style="fill:#263238"></path><path d="M532.39,339.46a.82.82,0,0,1-.26.05l-.75.08-2.91.27-10.69.89L501.93,342l-9.37.72a19.2,19.2,0,0,0-4.82.79,6.22,6.22,0,0,0-3.66,3.09,21.06,21.06,0,0,0-1.56,4.8l-1.19,4.82c-.78,3.16-1.54,6.21-2.26,9.12-1.45,5.8-2.75,11-3.85,15.44l-2.65,10.39-.74,2.82c-.09.3-.15.54-.21.73s-.08.25-.09.24,0-.08,0-.25.09-.44.16-.75c.15-.69.37-1.63.65-2.84.59-2.5,1.44-6.06,2.48-10.43l3.75-15.46c.71-2.91,1.45-6,2.23-9.13.38-1.58.78-3.19,1.18-4.83a21.18,21.18,0,0,1,1.6-4.91,6.67,6.67,0,0,1,1.65-2.08,7,7,0,0,1,2.3-1.26,19.54,19.54,0,0,1,4.95-.81l9.37-.69,15.87-1.14,10.7-.72,2.91-.17.76,0Z" style="fill:#455a64"></path><path d="M495,266.06l7.93-12.83,27.87,10.21,25.75-36.11,14.14,10.29-26.76,40.12a12,12,0,0,1-15.09,4.2Z" style="fill:#455a64"></path><path d="M556.53,227.33,548.93,243l-20.7,56,44.13,12.89s17.27-54.38,19.13-63.41c2.42-11.71-5.29-23.74-15.47-27.67l-19.49,6.54" style="fill:#455a64"></path><path d="M576,220.79a1.43,1.43,0,0,1-.35.15l-1,.39-4,1.4-14.06,4.82.14-.12c-2,4.34-4.25,9.33-6.5,14.66-3.91,9.32-7.18,17.88-9.68,24-1.24,3.08-2.27,5.55-3,7.26-.36.81-.64,1.46-.85,2a4.37,4.37,0,0,1-.33.67,3.37,3.37,0,0,1,.23-.71c.19-.5.44-1.17.76-2,.69-1.78,1.65-4.26,2.84-7.31,2.41-6.17,5.62-14.75,9.54-24.08,2.25-5.34,4.5-10.33,6.55-14.66l.05-.09.09,0,14.12-4.63,4-1.28,1.07-.32C575.89,220.8,576,220.77,576,220.79Z" style="fill:#263238"></path><g style="opacity:0.2"><path d="M547.69,299.6c.34.13,5,3.6,8.22,4.5s7.21,1,10-1.06c3.94-2.87,5.51-7.92,6.84-12.61,3.52-12.45,7.08-25.07,7.33-38-4.87,12.66-8.81,25.61-13.68,38.27a20,20,0,0,1-4.24,7.11c-3.61,3.71-9.55,3.39-14.47,1.8"></path></g><path d="M556.53,227.33a7.61,7.61,0,0,1-.46.71l-1.41,2c-1.23,1.78-3,4.27-5.12,7.34-4.32,6.2-10.08,14.91-16.87,24.25-.52.71-1,1.42-1.55,2.1l-.11.16-.18-.07-28.21-10.35.2-.08-3.29,5.86-.89,1.55a4,4,0,0,1-.33.52,2.4,2.4,0,0,1,.25-.56l.82-1.59,3.16-5.93.06-.12.14,0L531,263.32l-.3.09c.51-.68,1-1.39,1.55-2.1,6.78-9.32,12.59-18,17-24.15,2.19-3.09,4-5.56,5.26-7.25L556,228A4,4,0,0,1,556.53,227.33Z" style="fill:#263238"></path><path d="M576.64,195.32a1.24,1.24,0,0,0,.14,2.43,2.62,2.62,0,0,1,.62.07c.45.17.53.77.55,1.25a2.43,2.43,0,0,0,.31,1.28.9.9,0,0,0,1.16.32,1.35,1.35,0,0,0,.41-1,13.36,13.36,0,0,0,0-1.82,8.78,8.78,0,0,0-.1-1.7c-.15-.71-.81-.93-1.5-.95a5.72,5.72,0,0,0-1.62.17" style="fill:#ebebeb"></path><path d="M554.5,214.15a2.82,2.82,0,0,1,0,.66v1.89c0,1.7,0,4.06,0,6.94,0,1.46-.06,3.08-.1,4.79a7.15,7.15,0,0,0,.35,2.55,2.91,2.91,0,0,0,1.81,1.78,5.21,5.21,0,0,0,2.8,0,14.55,14.55,0,0,0,2.84-1.09,38,38,0,0,0,5.52-3.39c1.8-1.31,3.54-2.64,5.2-3.92a14.9,14.9,0,0,0,4-4.39,6.63,6.63,0,0,0,.54-1.27,11.89,11.89,0,0,0,.24-1.35c.13-.9.23-1.78.32-2.64.18-1.71.31-3.31.43-4.77.23-2.92.37-5.28.46-6.92,0-.77.07-1.4.09-1.88a2.89,2.89,0,0,1,.06-.66,3.44,3.44,0,0,1,0,.66c0,.43,0,1.07,0,1.89,0,1.64-.11,4-.3,6.94-.09,1.46-.2,3.07-.36,4.78-.08.86-.17,1.75-.29,2.67-.07.46-.13.92-.25,1.4a7.25,7.25,0,0,1-.56,1.38,15.28,15.28,0,0,1-4.11,4.55c-1.67,1.31-3.4,2.63-5.22,4a36.85,36.85,0,0,1-5.6,3.42c-1.87.9-4,1.71-6,1.07a3.36,3.36,0,0,1-2.08-2.07,7.58,7.58,0,0,1-.35-2.71c.06-1.74.13-3.33.16-4.8.07-2.93.11-5.3.18-6.94,0-.82.07-1.45.11-1.88A4.41,4.41,0,0,1,554.5,214.15Z" style="fill:#ebebeb"></path><path d="M557.14,233.2a1.28,1.28,0,0,1,0,.29c-.06.21-.13.48-.21.82l-.87,3.16c-.78,2.73-1.9,6.69-3.69,11.46a68.45,68.45,0,0,1-8.3,15.8,82.56,82.56,0,0,0-5.76,8.77c-1.73,3.21-3.12,6.73-4.93,10.19a31.54,31.54,0,0,1-15.64,14.87,16.87,16.87,0,0,1-4.79,1.29,12.45,12.45,0,0,1-4.66-.39,14.59,14.59,0,0,1-7-4.46,12.34,12.34,0,0,1-2-3.08,14.23,14.23,0,0,1-.94-3.11c-.42-2-.69-3.7-.89-5.11s-.34-2.5-.42-3.25c0-.34-.06-.62-.09-.84a1.07,1.07,0,0,1,0-.29l.06.28c0,.22.08.5.13.84.12.78.3,1.86.52,3.23s.53,3.11,1,5.07a14.52,14.52,0,0,0,1,3.05,12,12,0,0,0,2,3,14.22,14.22,0,0,0,6.84,4.28,12.09,12.09,0,0,0,4.51.35,17,17,0,0,0,4.65-1.27,31.27,31.27,0,0,0,15.36-14.68c1.79-3.41,3.19-6.94,4.94-10.18a83,83,0,0,1,5.81-8.81A69.08,69.08,0,0,0,552,248.79c1.83-4.73,3-8.67,3.84-11.38.41-1.33.73-2.38,1-3.13.1-.33.19-.6.26-.81A1.36,1.36,0,0,1,557.14,233.2Z" style="fill:#ebebeb"></path><path d="M547.65,279c2.49-8.32,7.1-27.36,10.75-39a12.69,12.69,0,0,1,16.91-8h0c6.6,2.67,9.08,9.71,6.54,16.38l-15.34,42.86c-.12.33-.25.65-.4,1-3.28,7.29-11.51,9.78-19,7.08l-40.91-13.78,7.37-16.74,34.12,10.76" style="fill:#455a64"></path><path d="M506.16,285.52a1.63,1.63,0,0,1,.1-.27l.35-.83,1.4-3.25,5.39-12.45.05-.11.12,0,34.14,10.68-.27.15L556.12,249c.39-1.37.78-2.75,1.18-4.14s.74-2.79,1.29-4.19a12.41,12.41,0,0,1,23.88,4.92,16.5,16.5,0,0,1-1.47,6q-2.1,5.77-4.16,11.36L569,284.45q-.93,2.57-1.86,5.07a41.36,41.36,0,0,1-2,4.9A12.8,12.8,0,0,1,552.57,301a19.89,19.89,0,0,1-4.49-1.18l-8.21-2.79-24.73-8.43-6.69-2.3c-.74-.25-1.32-.45-1.72-.6s-.57-.21-.57-.21l.62.19,1.77.58,6.76,2.23L540,296.74l8.18,2.73a19.43,19.43,0,0,0,4.39,1.14,12.26,12.26,0,0,0,4.65-.41,12.43,12.43,0,0,0,7.49-6,43.54,43.54,0,0,0,1.92-4.84q.92-2.5,1.85-5.07c2.5-6.85,5.13-14,7.84-21.48q2.05-5.58,4.16-11.35a16.27,16.27,0,0,0,1.43-5.89,11.93,11.93,0,0,0-8.34-11.52,11.92,11.92,0,0,0-14.56,6.8c-.51,1.32-.85,2.76-1.27,4.14s-.79,2.77-1.18,4.13c-3.14,10.93-6.08,21.18-8.74,30.48l-.06.21-.22-.07-34.09-10.83.17-.07-5.51,12.3-1.47,3.25-.38.84Z" style="fill:#263238"></path><path d="M502.31,254.2s-1.89-4.75-2.33-5.11-8.16-7.64-8.49-7.28-2.22,2-.73,3.73l1.26,1L486.6,245s-7.48,2.11-7.75,3.07.27,1.85.94,1.62-2.48,2.45-2.48,2.45-.55,1.44.31,1.48a7.6,7.6,0,0,0,2.56-.88s-1.77,1.37-1.56,1.83,1.87,1.2,2.2.84.87-1,.87-1l1,.47-.53,1.39,15.34,6.35Z" style="fill:#ffbe9d"></path><polygon points="492.09 273.02 468.7 256.36 476.91 245.43 512.61 270.87 507.87 281.63 492.09 273.02" style="fill:#BA68C8"></polygon><polygon points="470.58 253.87 468.99 252.56 473.57 245.96 476.14 248.1 470.58 253.87" style="fill:#BA68C8"></polygon><path d="M434.14,219a2.19,2.19,0,0,1,.42.29l1.15.91,4.16,3.4c3.51,2.87,8.38,6.81,13.82,11.08s10.43,8.07,14.05,10.8l4.29,3.24,1.15.9c.26.2.4.32.38.34a2.55,2.55,0,0,1-.44-.26l-1.21-.82c-1.05-.71-2.55-1.78-4.38-3.1-3.68-2.66-8.71-6.41-14.16-10.69s-10.28-8.27-13.73-11.21c-1.73-1.47-3.12-2.68-4.06-3.52l-1.08-1C434.25,219.14,434.13,219,434.14,219Z" style="fill:#BA68C8"></path><path d="M486.73,253.61a5.56,5.56,0,0,1,7.06,7.44" style="fill:#BA68C8"></path><path d="M491.26,254.45c.52-.66,1.31-1.78,1.83-2.44a1.2,1.2,0,0,1-.41-1.67,1.38,1.38,0,0,1,1.93-.53,1.57,1.57,0,0,1,.35,2.55,1.23,1.23,0,0,1-1.22,0L492,254.75" style="fill:#BA68C8"></path><path d="M483.47,250.66a13.55,13.55,0,0,1,.76-2.47c.09-.22.29-.48.51-.39s.18.39.12.61l-.87,3" style="fill:#BA68C8"></path><path d="M480.27,248.7a13.41,13.41,0,0,1,.76-2.48c.09-.22.29-.48.51-.39s.19.39.12.61l-.87,3" style="fill:#BA68C8"></path><path d="M499.53,270c-.08.12-6.06-4.05-13.34-9.31s-13.12-9.62-13-9.74,6.06,4,13.34,9.31S499.61,269.86,499.53,270Z" style="fill:#263238"></path><path d="M476.75,246a25,25,0,0,1-2.81,4.17,23.45,23.45,0,0,1-3.22,3.87,24.4,24.4,0,0,1,2.81-4.18A23.61,23.61,0,0,1,476.75,246Z" style="fill:#263238"></path><path d="M494.4,258.35a23.61,23.61,0,0,1-3.43-2.46,22.85,22.85,0,0,1-3.29-2.66,23,23,0,0,1,6.72,5.12Z" style="fill:#263238"></path><path d="M512.61,270.87l-7.6-7.51L499.62,261c-.9,2.45,3.52,4.68,3.52,4.68l2,4s-17.4-.93-17.14.49,3.11,5.73,7.79,8.55c2.26,1.36,11.59,3.87,11.59,3.87Z" style="fill:#ffbe9d"></path></g><g id="freepik--character-2--inject-19"><path d="M574.69,286.58a18.8,18.8,0,0,0-3.9-3.72c-.54-.18-10.33-4.26-10.51-3.81s-1.36,2.69.63,3.75l1.54.51-5.62.46s-6.25,4.62-6.16,5.62.91,1.63,1.45,1.17-1.45,3.18-1.45,3.18,0,1.54.82,1.27a7.72,7.72,0,0,0,2.08-1.73s-1.18,1.91-.82,2.27,2.18.45,2.36,0,.45-1.27.45-1.27l1.09.09v1.49l16.59.51Z" style="fill:#b78876"></path><path d="M659.74,259.63l-30.06,42-56.41-4.86.5-12,37.83-3a11.19,11.19,0,0,0,9.44-5.55c4.21-6.88,12.68-20.38,18.71-30A12,12,0,0,1,657,242.85h0A12,12,0,0,1,659.74,259.63Z" style="fill:#BA68C8"></path><g style="opacity:0.30000000000000004"><path d="M659.74,259.63l-30.06,42-56.41-4.86.5-12,37.83-3a11.19,11.19,0,0,0,9.44-5.55c4.21-6.88,12.68-20.38,18.71-30A12,12,0,0,1,657,242.85h0A12,12,0,0,1,659.74,259.63Z"></path></g><path d="M573.77,284.76s0,.25-.06.76-.07,1.29-.12,2.28c-.1,2-.25,5.05-.44,8.94v.11h.11l45,3.77,3.71.31a17,17,0,0,0,3.84-.07,15.45,15.45,0,0,0,10.16-6c.82-1.11,1.58-2.24,2.38-3.38l4.84-6.94,20.69-29.7,0,0v0l.12-.45c1.25-2.32.86-4.33.64-6.5a11.72,11.72,0,0,0-2.24-6.05,13.21,13.21,0,0,0-5-3.92,14.18,14.18,0,0,0-6.12-1.32,11.22,11.22,0,0,0-5.91,1.72,15.78,15.78,0,0,0-4.3,4.24,49.29,49.29,0,0,0-3.05,5l-2.81,5c-3.74,6.52-7.49,12.62-11.14,18.22-.92,1.4-1.83,2.77-2.71,4.12a33.7,33.7,0,0,1-2.77,3.82,7.41,7.41,0,0,1-3.86,2.08,31.91,31.91,0,0,1-4.3.58l-26.91,2.48-7.27.7-1.89.18-.62.08.66,0,1.92-.15,7.33-.6,26.82-2.27a32.39,32.39,0,0,0,4.36-.57,7.83,7.83,0,0,0,4.06-2.18,32.73,32.73,0,0,0,2.82-3.87l2.73-4.11c3.67-5.61,7.44-11.7,11.2-18.23l2.82-5a47.65,47.65,0,0,1,3-5,15,15,0,0,1,4.16-4.1,10.78,10.78,0,0,1,5.63-1.64,13.61,13.61,0,0,1,10.71,5,11.19,11.19,0,0,1,2.14,5.78c.21,2.09.37,4.4-.63,6.31,0,.15-.08.3-.11.44l0-.08-20.66,29.72L638,291.22c-.8,1.13-1.56,2.29-2.36,3.37a15.27,15.27,0,0,1-2.79,2.83,15,15,0,0,1-7,3,15.7,15.7,0,0,1-3.75.08l-3.7-.3-45-3.54.1.11c.13-3.87.24-6.85.31-8.89l.07-2.3C573.77,285,573.77,284.76,573.77,284.76Z" style="fill:#263238"></path><rect x="638.9" y="244.13" width="45.92" height="92.61" transform="translate(1323.71 580.87) rotate(180)" style="fill:#455a64"></rect><path d="M682.68,336.53h0a7.17,7.17,0,0,0,7.17-7.17V251.29a7.17,7.17,0,0,0-7.17-7.16h0a7.17,7.17,0,0,0-7.16,7.16v78.07A7.17,7.17,0,0,0,682.68,336.53Z" style="fill:#455a64"></path><polygon points="680.4 347 685.16 453.83 691.3 454.09 686.9 347.06 680.4 347" style="fill:#263238"></polygon><polygon points="615.73 347 620.49 453.83 626.63 454.09 622.24 347.06 615.73 347" style="fill:#263238"></polygon><path d="M587.63,348.24H693.5A11.48,11.48,0,0,0,682,336.75H599.13a11.49,11.49,0,0,0-11.5,11.49Z" style="fill:#455a64"></path><polygon points="665 347 669.76 453.83 675.91 454.09 671.51 347.06 665 347" style="fill:#455a64"></polygon><rect x="596.1" y="389.01" width="92.58" height="2.45" style="fill:#455a64"></rect><polygon points="594.89 342.49 585.52 453.83 592.34 453.83 602.93 342.49 594.89 342.49" style="fill:#455a64"></polygon><path d="M678.94,247.85a.89.89,0,0,0,0,.23l-.07.68q-.08,1-.21,2.61c-.17,2.32-.4,5.59-.69,9.61-.54,8.15-1.27,19.34-2.08,31.7s-1.5,23.6-1.89,31.73a24.83,24.83,0,0,0,1.19,9.55,12.72,12.72,0,0,0,1.16,2.35l.4.56a.82.82,0,0,0,.14.18,19,19,0,0,1-1.51-3.16,25.37,25.37,0,0,1-1-9.47c.52-8.15,1.24-19.34,2-31.7s1.43-23.56,1.92-31.72c.22-4,.4-7.3.53-9.62q.07-1.65.12-2.61c0-.27,0-.5,0-.68A.87.87,0,0,0,678.94,247.85Z" style="fill:#263238"></path><path d="M650.74,336.55a8.6,8.6,0,0,0,1.6.12l4.36.11c3.68.08,8.76.14,14.37.18L679,337a26.75,26.75,0,0,1,6.37.58,10.36,10.36,0,0,1,3.85,1.84c.82.61,1.18,1.06,1.23,1a1.41,1.41,0,0,0-.25-.33,6.1,6.1,0,0,0-.85-.84,9.88,9.88,0,0,0-3.88-2,25.35,25.35,0,0,0-6.46-.7c-2.43-.07-5.11-.07-7.92-.1-5.61,0-10.7,0-14.38,0l-4.36,0A11.39,11.39,0,0,0,650.74,336.55Z" style="fill:#263238"></path><path d="M527.21,445.32l1.57-7.15,19.49,4.45L546,453.83l-1.23-.16c-5.46-.74-27.68-4.13-31.09-5.89C509.89,445.81,527.21,445.32,527.21,445.32Z" style="fill:#BA68C8"></path><g style="opacity:0.5"><path d="M538.93,452.32a6.84,6.84,0,0,1,3.18-3.75,5.89,5.89,0,0,1,5-.38L546,453.55Z" style="fill:#fff"></path></g><g style="opacity:0.5"><path d="M518.69,445.85s-6.14.53-5.59,1.61,22.88,5.33,32.9,6.37l0-.44L520,448.64S519.82,446.11,518.69,445.85Z" style="fill:#fff"></path></g><path d="M546.36,453.44a1.52,1.52,0,0,1-.35,0l-1-.12-3.59-.53c-3-.47-7.19-1.17-11.78-2S521,449,518,448.3l-3.53-.83-1-.24-.33-.09.34.05,1,.2,3.54.74c3,.64,7.13,1.49,11.72,2.36s8.74,1.59,11.76,2.1l3.57.6,1,.18Z" style="fill:#263238"></path><path d="M519.9,448.94a8.28,8.28,0,0,0-.35-1.79,7.69,7.69,0,0,0-1-1.56,2.6,2.6,0,0,1,1.19,1.48A2.54,2.54,0,0,1,519.9,448.94Z" style="fill:#263238"></path><path d="M526.22,447.17c-.06,0-.28-.35-.48-.85a2,2,0,0,1-.25-.94c.06,0,.27.36.48.85A2.09,2.09,0,0,1,526.22,447.17Z" style="fill:#263238"></path><path d="M528,446.66c-.05,0-.32-.23-.61-.59s-.46-.68-.41-.72.33.22.61.58S528,446.62,528,446.66Z" style="fill:#263238"></path><path d="M529.3,445a2.5,2.5,0,0,1-1-.07,2.33,2.33,0,0,1-1-.3,2.51,2.51,0,0,1,1,.07C528.87,444.84,529.32,445,529.3,445Z" style="fill:#263238"></path><path d="M529.89,443.83a2.09,2.09,0,0,1-1.2.1,2.15,2.15,0,0,1-1.15-.37,5.94,5.94,0,0,1,1.18.14A6.52,6.52,0,0,1,529.89,443.83Z" style="fill:#263238"></path><path d="M525.87,445.38a4,4,0,0,1-1.25-.25,7.75,7.75,0,0,1-1.29-.55,3.73,3.73,0,0,1-.7-.45.69.69,0,0,1-.24-.44.48.48,0,0,1,.28-.46,2.39,2.39,0,0,1,2.73,1.2,2.32,2.32,0,0,1,.25.91c0,.22,0,.33,0,.33a3.57,3.57,0,0,0-.37-1.16,2.27,2.27,0,0,0-1-.88,2,2,0,0,0-1.51-.19c-.23.11-.2.35,0,.52a4.07,4.07,0,0,0,.65.43,10,10,0,0,0,1.23.58C525.4,445.25,525.88,445.34,525.87,445.38Z" style="fill:#263238"></path><path d="M525.54,445.37a1.21,1.21,0,0,1,0-.88,2.11,2.11,0,0,1,.52-.83,1.27,1.27,0,0,1,1.16-.43.49.49,0,0,1,.28.64,1.29,1.29,0,0,1-.31.51,4,4,0,0,1-.74.63,1.72,1.72,0,0,1-.81.36s.29-.17.71-.49a4.88,4.88,0,0,0,.67-.64c.22-.23.43-.67.12-.79s-.69.16-.93.37a2,2,0,0,0-.51.73A3.79,3.79,0,0,0,525.54,445.37Z" style="fill:#263238"></path><path d="M547,448.12s-.56-.16-1.46-.23a6.45,6.45,0,0,0-3.39.68,6.29,6.29,0,0,0-2.5,2.35c-.45.76-.58,1.31-.63,1.3a1.31,1.31,0,0,1,.08-.39,4.34,4.34,0,0,1,.41-1,5.94,5.94,0,0,1,2.52-2.48,6.22,6.22,0,0,1,3.53-.63,5.35,5.35,0,0,1,1.07.23A1.38,1.38,0,0,1,547,448.12Z" style="fill:#263238"></path><path d="M536.83,450a11.41,11.41,0,0,1-2.91-.26,11.55,11.55,0,0,1-2.82-.77c0-.07,1.28.25,2.86.53S536.83,449.91,536.83,450Z" style="fill:#263238"></path><path d="M540.66,450.71c0,.05-.15.24-.34.51s-.3.5-.37.48,0-.32.17-.62S540.63,450.65,540.66,450.71Z" style="fill:#263238"></path><path d="M542.44,449.22c0,.06-.12.23-.36.39s-.47.25-.51.2.13-.23.37-.39S542.4,449.17,542.44,449.22Z" style="fill:#263238"></path><path d="M544.66,448.81c0,.06-.28,0-.59.06s-.54.15-.58.1.17-.29.55-.34S544.69,448.76,544.66,448.81Z" style="fill:#263238"></path><path d="M546.21,448.71c0,.07-.12.14-.3.17s-.32,0-.33-.06.12-.14.29-.17S546.2,448.65,546.21,448.71Z" style="fill:#263238"></path><g style="opacity:0.30000000000000004"><polygon points="547.36 447.12 527.79 442.5 527.94 441.71 547.71 445.53 547.36 447.12"></polygon></g><path d="M569.28,449.48l-.23-7.33,20-.43.52,11.42-1.23.15c-5.47.62-27.85,2.74-31.58,1.86C552.6,454.17,569.28,449.48,569.28,449.48Z" style="fill:#BA68C8"></path><g style="opacity:0.5"><path d="M582.35,453.4a6.82,6.82,0,0,1,2.17-4.41,5.86,5.86,0,0,1,4.79-1.59l.22,5.47Z" style="fill:#fff"></path></g><g style="opacity:0.5"><path d="M561.14,452.06s-5.82,2-5,2.93,23.5-.41,33.46-1.85l-.06-.43-26.46,1.76S562.3,452,561.14,452.06Z" style="fill:#fff"></path></g><path d="M589.83,452.68l-.34.06-1,.11-3.61.36c-3,.29-7.26.63-11.92.9s-8.88.43-11.94.5l-3.62.07h-1l-.34,0a1.55,1.55,0,0,1,.34,0l1-.05,3.62-.13c3.06-.12,7.28-.3,11.94-.58s8.87-.58,11.92-.82l3.61-.29,1-.07A2.32,2.32,0,0,1,589.83,452.68Z" style="fill:#263238"></path><path d="M563.07,454.77a7.75,7.75,0,0,0-.77-1.65,8.93,8.93,0,0,0-1.31-1.29A2.7,2.7,0,0,1,562.5,453,2.61,2.61,0,0,1,563.07,454.77Z" style="fill:#263238"></path><path d="M568.77,451.51c-.06,0-.36-.28-.67-.71s-.53-.81-.48-.85.36.28.67.71S568.82,451.47,568.77,451.51Z" style="fill:#263238"></path><path d="M570.33,450.59c0,.05-.37-.14-.73-.42s-.62-.55-.57-.6.36.13.72.41S570.37,450.53,570.33,450.59Z" style="fill:#263238"></path><path d="M571.24,448.69a2.53,2.53,0,0,1-1,.19,2.31,2.31,0,0,1-1.05-.05,2.53,2.53,0,0,1,1-.19A2.27,2.27,0,0,1,571.24,448.69Z" style="fill:#263238"></path><path d="M571.51,447.37a2,2,0,0,1-1.13.4,2.07,2.07,0,0,1-1.21-.09,6.66,6.66,0,0,1,1.17-.15A7.14,7.14,0,0,1,571.51,447.37Z" style="fill:#263238"></path><path d="M568,449.85a3.43,3.43,0,0,1-1.27.07,7.11,7.11,0,0,1-1.38-.22,3.59,3.59,0,0,1-.8-.27.66.66,0,0,1-.34-.37.49.49,0,0,1,.17-.51,2.36,2.36,0,0,1,2.93.51,2.27,2.27,0,0,1,.47.81c.06.21.07.33.05.33a3.39,3.39,0,0,0-.64-1,2.3,2.3,0,0,0-1.13-.63,2,2,0,0,0-1.52.19c-.19.16-.1.39.13.5a3.82,3.82,0,0,0,.74.26,7.92,7.92,0,0,0,1.33.26C567.51,449.84,568,449.81,568,449.85Z" style="fill:#263238"></path><path d="M567.67,449.93a1.15,1.15,0,0,1-.2-.86,1.91,1.91,0,0,1,.3-.93,1.26,1.26,0,0,1,1-.7.5.5,0,0,1,.43.55,1.33,1.33,0,0,1-.19.58,4.34,4.34,0,0,1-.55.79,2,2,0,0,1-.71.55s.25-.24.57-.66a4.58,4.58,0,0,0,.5-.78c.16-.28.25-.76-.08-.8s-.63.32-.81.58a2.07,2.07,0,0,0-.31.84A4,4,0,0,0,567.67,449.93Z" style="fill:#263238"></path><path d="M589.11,447.37c0,.05-.57,0-1.47.14a6.49,6.49,0,0,0-3.12,1.48,6.29,6.29,0,0,0-1.85,2.89c-.25.85-.25,1.41-.29,1.41s0-.14,0-.39a5.42,5.42,0,0,1,.16-1.07,6.08,6.08,0,0,1,1.84-3,6.26,6.26,0,0,1,3.27-1.47,6.06,6.06,0,0,1,1.09,0A1.47,1.47,0,0,1,589.11,447.37Z" style="fill:#263238"></path><path d="M579.74,451.65a16.72,16.72,0,0,1-5.81.39c0-.07,1.31-.07,2.91-.18S579.73,451.58,579.74,451.65Z" style="fill:#263238"></path><path d="M583.64,451.42c.05,0-.09.27-.21.57s-.17.57-.24.57-.12-.31,0-.65S583.59,451.37,583.64,451.42Z" style="fill:#263238"></path><path d="M585,449.54s-.07.26-.26.47-.39.36-.44.32.07-.26.26-.47S585,449.5,585,449.54Z" style="fill:#263238"></path><path d="M587.06,448.6c0,.07-.28.08-.57.2s-.48.28-.54.24.1-.32.45-.46S587.07,448.54,587.06,448.6Z" style="fill:#263238"></path><path d="M588.53,448.13c0,.06-.08.17-.24.24s-.32.08-.35,0,.09-.16.25-.24S588.5,448.07,588.53,448.13Z" style="fill:#263238"></path><g style="opacity:0.30000000000000004"><polygon points="589.26 446.31 569.15 446.59 569.11 445.79 589.21 444.68 589.26 446.31"></polygon></g><path d="M655.76,335.15s-47.6,1.15-64.17,5.72a8.66,8.66,0,0,0-6.35,8.28l4.93,95-24.66,2-9.74-107.38A18.69,18.69,0,0,1,567,320.6c18.56-8,66.28-8.28,66.59-9.11" style="fill:#263238"></path><path d="M661.62,312.12s4.75,20-8.15,24.11c-10.43,3.29-56.3,5.31-73.48,6a8.63,8.63,0,0,0-8.06,6.6l-23.4,96.64-26.2-4.7L545.59,332a18.69,18.69,0,0,1,15.12-15.16c19.9-3.56,55.95-10.09,56.44-10.83.68-1,3.39-6.79,3.39-6.79Z" style="fill:#263238"></path><path d="M621.71,339.71a1.44,1.44,0,0,1-.26.05l-.75.08-2.9.27-10.69.88-15.86,1.26-9.37.72a19.26,19.26,0,0,0-4.82.78,6.23,6.23,0,0,0-3.66,3.1,20.56,20.56,0,0,0-1.55,4.8c-.41,1.63-.8,3.24-1.2,4.82-.78,3.16-1.53,6.21-2.26,9.12-1.44,5.8-2.75,11-3.85,15.43s-2,7.9-2.64,10.4q-.48,1.79-.75,2.82c-.08.29-.15.53-.21.73a.75.75,0,0,1-.08.24.79.79,0,0,1,0-.25c0-.2.1-.45.16-.75.16-.69.37-1.64.65-2.84.59-2.51,1.44-6.06,2.48-10.43l3.75-15.46,2.23-9.13q.58-2.37,1.18-4.83a21.66,21.66,0,0,1,1.6-4.91,6.7,6.7,0,0,1,1.65-2.08,7.32,7.32,0,0,1,2.3-1.27,20,20,0,0,1,5-.8l9.36-.69,15.87-1.14,10.7-.73,2.91-.17.76,0Z" style="fill:#455a64"></path><path d="M568,316.1a11.51,11.51,0,0,1-1.65.27c-1.06.15-2.6.36-4.46.76a27,27,0,0,0-6.32,2.12,17.09,17.09,0,0,0-6.22,5.11,24.89,24.89,0,0,0-3.72,7.23,45.48,45.48,0,0,0-1.57,6.51c-.33,1.89-.53,3.43-.69,4.49a9.85,9.85,0,0,1-.3,1.64,10.86,10.86,0,0,1,.1-1.67c.09-1.07.24-2.61.53-4.52a41.35,41.35,0,0,1,1.48-6.6,24.58,24.58,0,0,1,3.75-7.39,17.28,17.28,0,0,1,6.43-5.23,26,26,0,0,1,6.45-2.06,42.38,42.38,0,0,1,4.52-.59c.53-.05.95-.07,1.23-.08A1.9,1.9,0,0,1,568,316.1Z" style="fill:#455a64"></path><circle cx="637.53" cy="195.59" r="6.24" style="fill:#BA68C8"></circle><g style="opacity:0.30000000000000004"><circle cx="637.53" cy="195.59" r="6.24"></circle></g><path d="M644.87,191.68a5.82,5.82,0,0,1,0,1.06c0,.67,0,1.64.1,2.85a41.66,41.66,0,0,1,.15,4.26,10.4,10.4,0,0,1-1.41,5.09,6.28,6.28,0,0,1-2,2,7,7,0,0,1-2.41.91,10.65,10.65,0,0,1-4.31-.15,21.84,21.84,0,0,1-2.75-.83,3.62,3.62,0,0,1-1-.43c0-.09,1.45.42,3.8.9a10.72,10.72,0,0,0,4.13,0,6.05,6.05,0,0,0,4-2.68,10.29,10.29,0,0,0,1.37-4.83c.09-1.58,0-3,0-4.23a20.46,20.46,0,0,1,.07-2.88A3.36,3.36,0,0,1,644.87,191.68Z" style="fill:#263238"></path><path d="M665.56,226.34l.31-42.91-1.22-.81a27.56,27.56,0,0,0-27.52-1.81h0s-.44,17.89.14,25.6,8.54,8.43,8.54,8.43l0,11.39a9.9,9.9,0,0,0,10.44,9.93h0A9.89,9.89,0,0,0,665.56,226.34Z" style="fill:#b78876"></path><path d="M645.79,214.73a18.65,18.65,0,0,0,10.08-3.48s-2.07,5.7-10,5.48Z" style="fill:#aa6550"></path><path d="M639,193.24a1.09,1.09,0,0,0,1.06,1.09,1,1,0,0,0,1.14-1,1.09,1.09,0,0,0-1.07-1.09A1,1,0,0,0,639,193.24Z" style="fill:#263238"></path><path d="M638.77,192c.14.14,1-.47,2.17-.47s2,.59,2.18.45-.07-.32-.45-.59a3.11,3.11,0,0,0-1.75-.53,2.92,2.92,0,0,0-1.72.54C638.83,191.71,638.71,192,638.77,192Z" style="fill:#263238"></path><path d="M650.65,193.51a1.09,1.09,0,0,0,1.06,1.1,1.05,1.05,0,0,0,1.14-1,1.09,1.09,0,0,0-1.06-1.09A1,1,0,0,0,650.65,193.51Z" style="fill:#263238"></path><path d="M650.45,192.24c.14.14,1-.46,2.16-.46s2.06.59,2.19.44-.08-.31-.46-.59a3,3,0,0,0-1.75-.52,3,3,0,0,0-1.72.54C650.51,191.92,650.38,192.18,650.45,192.24Z" style="fill:#263238"></path><path d="M646.14,200.87a8.49,8.49,0,0,0-1.93-.34c-.3,0-.59-.09-.64-.29a1.45,1.45,0,0,1,.2-.88c.29-.72.58-1.47.9-2.26a38.41,38.41,0,0,0,2-5.92,38.33,38.33,0,0,0-2.49,5.74c-.3.8-.59,1.55-.86,2.28a1.68,1.68,0,0,0-.16,1.16.73.73,0,0,0,.5.44,2,2,0,0,0,.51.07A7.81,7.81,0,0,0,646.14,200.87Z" style="fill:#263238"></path><path d="M649.63,201.68c-.19,0-.19,1.25-1.29,2.15s-2.48.75-2.49.93.31.25.89.26a3.24,3.24,0,0,0,2.07-.71,2.76,2.76,0,0,0,1-1.8C649.87,202,649.72,201.67,649.63,201.68Z" style="fill:#263238"></path><path d="M650.14,187.68c.12.32,1.31.17,2.7.33s2.52.54,2.71.26-.12-.44-.57-.74a4.51,4.51,0,0,0-2-.69,4.65,4.65,0,0,0-2.11.24C650.35,187.28,650.09,187.53,650.14,187.68Z" style="fill:#263238"></path><path d="M639.21,188.66c.21.26,1,0,2,0s1.82.18,2-.09-.05-.4-.41-.65a2.95,2.95,0,0,0-3.24.09C639.23,188.26,639.12,188.53,639.21,188.66Z" style="fill:#263238"></path><path d="M636.89,179.31a7.77,7.77,0,0,1,1.2-3.36,3.33,3.33,0,0,1,.41-3.46,3.39,3.39,0,0,1,4.66-.25l.06,0a1.8,1.8,0,0,1,.56-2.18,4.19,4.19,0,0,1,2.72-.65c1.78,0,6,1.43,9.17,2.64l.61.11a16.86,16.86,0,0,1,7.33,3.16,15.73,15.73,0,0,1,4.58,8.1c.82,3.07.83,6.29.21,11.49-1-.85-4.35-3-4.85-1.81a7.14,7.14,0,0,0-.26,2.17,1.88,1.88,0,0,1-1.1,1.74,1.48,1.48,0,0,1-1.52-.67,3.42,3.42,0,0,1-.49-1.68c-.19-2.41.41-4.84,0-7.22a8.85,8.85,0,0,0-10.48-7.28c-1.44.29-2.84.94-4.31.89-2.1-.09-4.26-1.6-6.17-.69-.38.18-.75.36-1.11.57-.72.42-1.08.84-1.25.46A6.89,6.89,0,0,1,636.89,179.31Z" style="fill:#263238"></path><path d="M663.84,192c.15-.06,5-.67,4.53,4.92s-6.08,3.3-6.07,3.13S663.84,192,663.84,192Z" style="fill:#b78876"></path><path d="M664.21,198.19s.09.07.25.16a1,1,0,0,0,.74.08,2.41,2.41,0,0,0,1.32-2.08,3.15,3.15,0,0,0-.16-1.42,1.14,1.14,0,0,0-.69-.8.52.52,0,0,0-.61.22c-.09.15-.06.26-.09.27s-.12-.1-.05-.33a.59.59,0,0,1,.25-.33.75.75,0,0,1,.56-.1,1.38,1.38,0,0,1,1,.95,3.27,3.27,0,0,1,.22,1.58,2.56,2.56,0,0,1-1.65,2.31,1.11,1.11,0,0,1-.9-.22C664.21,198.32,664.19,198.2,664.21,198.19Z" style="fill:#aa6550"></path><path d="M634.1,187v6.36a2.93,2.93,0,0,0,2.93,2.93h7.28s.78-1.54,1.88-1.09a3.65,3.65,0,0,1,.65.36,5.34,5.34,0,0,0,3,1h7.45a5,5,0,0,0,5-5v-6.42a1.62,1.62,0,0,0-1.62-1.61l-23.37.12A3.42,3.42,0,0,0,634.1,187Z" style="fill:#455a64"></path><path d="M635.25,186.46v6.39a2.1,2.1,0,0,0,2.1,2.11h6.7s.74-1.46,1.79-1a3.47,3.47,0,0,1,.87.53,3.61,3.61,0,0,0,2.29.76h8.37a3.77,3.77,0,0,0,3.78-3.77v-4.54a2,2,0,0,0-2-2l-22.24,0A1.63,1.63,0,0,0,635.25,186.46Z" style="fill:#263238"></path><polygon points="661.15 183.59 668.93 186.56 668.77 190.89 661.89 191.91 661.15 183.59" style="fill:#455a64"></polygon><path d="M631.54,208.09l-1.24-.53a1.84,1.84,0,0,1-1-2.42h0a1.84,1.84,0,0,1,2.42-1l1.24.53a1.84,1.84,0,0,1,1,2.42h0A1.86,1.86,0,0,1,631.54,208.09Z" style="fill:#263238"></path><path d="M668.11,190.67c0-15.46-5-16.47-7.29-17.36a30.27,30.27,0,0,0-4.88-1.25c11,2.55,9.63,18.27,9.63,18.27Z" style="fill:#BA68C8"></path><circle cx="666.6" cy="196" r="6.24" style="fill:#BA68C8"></circle><g style="opacity:0.30000000000000004"><path d="M665.17,192.64a4.76,4.76,0,0,0-2.23,3,4.11,4.11,0,0,0,.94,3.61,3.61,3.61,0,0,0,3.53,1.05,4.55,4.55,0,0,0,2.93-3.39,4.11,4.11,0,0,1-1.64,1.51,3,3,0,0,1-2.19.18,4,4,0,0,1-1.45-1,3.52,3.52,0,0,1-1-1.59,2.94,2.94,0,0,1,.21-1.82,8.38,8.38,0,0,1,1-1.6"></path></g><path d="M670.62,195.59a5.31,5.31,0,0,1-.2-.79,3.37,3.37,0,0,0-1.23-1.71,3.12,3.12,0,0,0-5,2.5,3.11,3.11,0,0,0,2,2.89,3.14,3.14,0,0,0,3-.4,3.33,3.33,0,0,0,1.23-1.71,4.93,4.93,0,0,1,.2-.78,1.57,1.57,0,0,1,0,.83,3.32,3.32,0,0,1-1.19,2,3.49,3.49,0,0,1-3.34.55,3.55,3.55,0,0,1,0-6.69,3.5,3.5,0,0,1,3.34.56,3.28,3.28,0,0,1,1.19,1.95A1.62,1.62,0,0,1,670.62,195.59Z" style="fill:#263238"></path><path d="M668.36,194.46c.1.1-.21.61-.69,1.14s-1,.87-1.07.78.19-.6.69-1.14S668.26,194.36,668.36,194.46Z" style="fill:#fafafa"></path><path d="M668.35,196.31c-.1.1-.58-.22-1.06-.71s-.79-1-.68-1.07.57.22,1,.71S668.45,196.21,668.35,196.31Z" style="fill:#fafafa"></path><path d="M652.79,185.9a8.51,8.51,0,0,1-1.68,1.36c-1.08.79-2.59,1.84-4.27,3s-3.22,2.15-4.35,2.86a9.15,9.15,0,0,1-1.89,1.05,9.48,9.48,0,0,1,1.68-1.36c1.07-.78,2.58-1.84,4.27-3s3.23-2.15,4.36-2.86A9.58,9.58,0,0,1,652.79,185.9Z" style="fill:#e0e0e0"></path><path d="M648.6,186.17a51.54,51.54,0,0,1-8.75,5.44,51.54,51.54,0,0,1,8.75-5.44Z" style="fill:#e0e0e0"></path><path d="M653,189.18a9.29,9.29,0,0,1-2.63,2.1,9.57,9.57,0,0,1-3,1.52,12.68,12.68,0,0,1,2.72-2A13.28,13.28,0,0,1,653,189.18Z" style="fill:#e0e0e0"></path><polygon points="571.89 308.03 544.12 300.73 547.92 287.6 591.03 299.39 592.4 310.87 571.89 308.03" style="fill:#BA68C8"></polygon><polygon points="544.99 297.73 543.03 297.07 544.99 289.28 548.15 290.38 544.99 297.73" style="fill:#BA68C8"></polygon><path d="M498.57,278a1.53,1.53,0,0,1,.47.11l1.33.42,4.85,1.64c4.1,1.38,9.75,3.29,16,5.28s12,3.68,16.16,4.89l4.91,1.44,1.33.41a1.63,1.63,0,0,1,.46.18,1.7,1.7,0,0,1-.48-.07l-1.36-.32c-1.18-.29-2.87-.72-5-1.28-4.18-1.13-9.93-2.75-16.22-4.75s-11.93-4-16-5.44c-2-.74-3.67-1.35-4.8-1.79l-1.29-.51A1.74,1.74,0,0,1,498.57,278Z" style="fill:#BA68C8"></path><path d="M560,291.78a5.56,5.56,0,0,1,9.24,4.45" style="fill:#BA68C8"></path><path d="M564.54,291c.25-.8.59-2.13.85-2.93a1.2,1.2,0,0,1-1-1.42,1.38,1.38,0,0,1,1.62-1.18,1.49,1.49,0,0,1,1.31,1.08,1.42,1.42,0,0,1-.09,1.18,1.23,1.23,0,0,1-1.12.46l-.77,2.81" style="fill:#BA68C8"></path><path d="M555.91,290.17a13.12,13.12,0,0,1-.17-2.58c0-.24.1-.55.34-.55s.31.3.33.53c.08,1,.17,2.08.25,3.12" style="fill:#BA68C8"></path><path d="M552.23,289.47a12.45,12.45,0,0,1-.17-2.59c0-.23.1-.55.33-.54s.32.3.33.53c.09,1,.17,2.08.25,3.12" style="fill:#BA68C8"></path><path d="M577.77,302.55c0,.14-7.1-1.64-15.78-4s-15.67-4.36-15.64-4.5,7.1,1.65,15.78,4S577.81,302.41,577.77,302.55Z" style="fill:#263238"></path><path d="M548,288.14a24.18,24.18,0,0,1-1.14,4.9,25.32,25.32,0,0,1-1.64,4.76,24,24,0,0,1,1.14-4.9A24.5,24.5,0,0,1,548,288.14Z" style="fill:#263238"></path><path d="M568.86,293.49a22.71,22.71,0,0,1-4.09-1.08,21.84,21.84,0,0,1-4-1.33,14.31,14.31,0,0,1,4.16.83A14.14,14.14,0,0,1,568.86,293.49Z" style="fill:#263238"></path><path d="M590,299.48l-9.49-5.06-5.86-.26c0,2.61,4.95,3.13,4.95,3.13l3.32,3.07s-16.59,5.29-15.85,6.53,4.94,4.26,10.31,5.23c2.59.47,15.41-1.08,15.41-1.08Z" style="fill:#b78876"></path><path d="M645.85,227.57l-7.33,15.6-20.71,56,43.87,12.94s17.27-54.38,19.14-63.41C683.24,237,675.52,225,665.35,221l-19.5,6.54" style="fill:#BA68C8"></path><path d="M671,249.13,654.82,291.5a17.51,17.51,0,0,1-13.55,11.1l-49.5,8.89-1.45-12.34,36.93-13a14.92,14.92,0,0,0,8.19-9.52c2.5-8.32,7.61-24.69,11.27-36.32a12.68,12.68,0,0,1,16.91-8h0A13.18,13.18,0,0,1,671,249.13Z" style="fill:#BA68C8"></path><path d="M590.32,299.15s0,.25.13.76.26,1.29.46,2.29c.42,2.05,1,5.07,1.83,9l0,.1h.11l45.56-7.63,3.75-.63A17.34,17.34,0,0,0,646,302a15.82,15.82,0,0,0,6.43-4.87,15.22,15.22,0,0,0,2.12-3.62c.54-1.3,1-2.62,1.51-3.94l3-8.1c4.11-11,8.48-22.61,13-34.66l0,0v-.52c.65-2.61-.23-4.51-1-6.61a12.09,12.09,0,0,0-3.76-5.43,13.47,13.47,0,0,0-6-2.61,14.39,14.39,0,0,0-6.4.24,11.51,11.51,0,0,0-5.42,3.19,16,16,0,0,0-3.18,5.29,49.17,49.17,0,0,0-1.77,5.74l-1.52,5.64c-2.06,7.41-4.24,14.39-6.44,20.87L635,277.3a34.55,34.55,0,0,1-1.78,4.48,7.47,7.47,0,0,1-3.29,3,31.4,31.4,0,0,1-4.12,1.66l-26,9.26-7,2.52-1.82.66c-.41.15-.6.24-.6.24l.65-.21,1.86-.63,7.11-2.45,26-9a32.67,32.67,0,0,0,4.17-1.67,7.93,7.93,0,0,0,3.47-3.18,34,34,0,0,0,1.82-4.55q.83-2.34,1.67-4.76c2.22-6.48,4.42-13.47,6.5-20.89q.75-2.79,1.53-5.64a50.25,50.25,0,0,1,1.75-5.68,15.65,15.65,0,0,1,3.09-5.11,10.89,10.89,0,0,1,5.17-3A13.88,13.88,0,0,1,667,234.6a11.56,11.56,0,0,1,3.58,5.19c.74,2,1.48,4.27,1,6.41v.46l0-.08c-4.52,12-8.87,23.69-13,34.66q-1.55,4.13-3,8.11c-.5,1.32-1,2.66-1.49,3.93a15.34,15.34,0,0,1-8.28,8.24,16.44,16.44,0,0,1-3.69,1l-3.74.64L592.83,311l.13.09c-.84-3.87-1.49-6.86-1.94-8.89l-.51-2.3C590.39,299.42,590.32,299.15,590.32,299.15Z" style="fill:#263238"></path><path d="M665.35,221a1.68,1.68,0,0,1-.35.16l-1,.38L660,223l-14.12,4.84.13-.12c-2.69,5.83-5.65,12.88-8.6,20.5-4.21,11-8,21-10.78,28.3-1.41,3.61-2.58,6.52-3.42,8.52-.41,1-.73,1.73-1,2.3a5,5,0,0,1-.37.78,5.12,5.12,0,0,1,.28-.82l.88-2.33,3.26-8.58C629.06,269.09,632.68,259,637,248c3-7.63,5.94-14.68,8.69-20.5l0-.09.09,0L660,222.71l4-1.27,1.05-.32A1.6,1.6,0,0,1,665.35,221Z" style="fill:#263238"></path><g style="opacity:0.2"><path d="M635.36,303.29a43.72,43.72,0,0,0,10,2.38,14.81,14.81,0,0,0,9.84-2.38c3.94-2.87,5.51-7.92,6.84-12.61,3.53-12.45,7.08-25.07,7.34-38q-7.32,19-14.63,38c-1,2.71-2.14,5.51-4.17,7.59C647,302,641.36,302.59,636.2,303"></path></g></g><g id="freepik--drone-2--inject-19"><path d="M205.8,86.59a5.65,5.65,0,0,1-1.15,0c-.73,0-1.8-.1-3.11-.22a82.67,82.67,0,0,1-10.16-1.64,4.64,4.64,0,0,1-2.74-1.22,1.43,1.43,0,0,1-.16-1.51,2.14,2.14,0,0,1,1-1,11.13,11.13,0,0,1,2.44-.58l2.13-.36,3.07-.49a7.25,7.25,0,0,1,1.14-.13,5.67,5.67,0,0,1-1.11.28l-3.05.62-2.11.4a11.69,11.69,0,0,0-2.35.58,1.8,1.8,0,0,0-.86.82,1.06,1.06,0,0,0,.12,1.12,2.41,2.41,0,0,0,1.11.7,11.78,11.78,0,0,0,1.42.37,98.38,98.38,0,0,0,10.1,1.74l3.09.35A9.53,9.53,0,0,1,205.8,86.59Z" style="fill:#263238"></path><path d="M208.42,87.59a2.65,2.65,0,0,1-.74.1c-.48,0-1.18.08-2,.09a49.78,49.78,0,0,1-6.72-.37,51.09,51.09,0,0,1-6.61-1.25c-.83-.22-1.5-.41-1.95-.57a3,3,0,0,1-.7-.27c0-.06,1,.21,2.72.57s4,.82,6.59,1.13,5,.44,6.67.48S208.42,87.53,208.42,87.59Z" style="fill:#263238"></path><rect x="274.32" y="101.02" width="9.23" height="7.94" transform="translate(-2.9 8.06) rotate(-1.65)" style="fill:#263238"></rect><path d="M355.65,77.91s-3.07-1.26-9.88-.8-17.23-.39-15.45,1,19.29,5.93,25.34.15" style="fill:#263238"></path><rect x="357.89" y="76.73" width="2" height="4.7" transform="translate(-2.12 10.35) rotate(-1.65)" style="fill:#455a64"></rect><rect x="355.39" y="76.16" width="6.93" height="3.32" transform="translate(-2.09 10.34) rotate(-1.65)" style="fill:#455a64"></rect><path d="M362.32,77.72s3-1.44,9.82-1.37,17.19-1.37,15.48.08-18.91,7-25.29,1.6" style="fill:#263238"></path><rect x="353.67" y="81.24" width="11.49" height="14.65" rx="3.5" transform="translate(-2.4 10.37) rotate(-1.65)" style="fill:#263238"></rect><rect x="333.13" y="91.54" width="7.46" height="5.08" transform="translate(-2.56 9.72) rotate(-1.65)" style="fill:#455a64"></rect><path d="M337.05,100.73h0A1.82,1.82,0,0,1,335.18,99l-.08-2.73,3.63-.11.08,2.73A1.81,1.81,0,0,1,337.05,100.73Z" style="fill:#455a64"></path><path d="M275.45,89.06l-.11-.63a13.53,13.53,0,0,1,13-15.72l15.88-.45A13.52,13.52,0,0,1,317.91,88h0a2.73,2.73,0,0,1-2.61,2.27l-37.09,1.07A2.72,2.72,0,0,1,275.45,89.06Z" style="fill:#455a64"></path><rect x="290.26" y="77.02" width="0.59" height="5.04" transform="translate(-2.17 8.39) rotate(-1.65)" style="fill:#263238"></rect><rect x="292.53" y="76.96" width="0.59" height="5.04" transform="translate(-2.17 8.46) rotate(-1.65)" style="fill:#263238"></rect><rect x="294.8" y="76.89" width="0.59" height="5.04" transform="translate(-2.15 8.47) rotate(-1.64)" style="fill:#263238"></rect><rect x="297.07" y="76.83" width="0.59" height="5.04" transform="translate(-2.16 8.59) rotate(-1.65)" style="fill:#263238"></rect><rect x="299.34" y="76.76" width="0.59" height="5.04" transform="translate(-2.16 8.65) rotate(-1.65)" style="fill:#263238"></rect><rect x="301.61" y="76.7" width="0.59" height="5.04" transform="translate(-2.17 8.77) rotate(-1.66)" style="fill:#263238"></rect><path d="M297.53,114.84h0a20.85,20.85,0,0,1-21.45-20.25l-.09-3,41.71-1.2.08,3A20.85,20.85,0,0,1,297.53,114.84Z" style="fill:#455a64"></path><path d="M230.72,80.64s-3.07-1.27-9.88-.8-17.23-.39-15.45,1,19.29,5.93,25.34.14" style="fill:#263238"></path><rect x="232.96" y="79.46" width="2" height="4.7" transform="translate(-2.26 6.77) rotate(-1.65)" style="fill:#455a64"></rect><rect x="230.46" y="78.89" width="6.93" height="3.32" transform="translate(-2.22 6.75) rotate(-1.65)" style="fill:#455a64"></rect><path d="M237.39,80.45s3-1.44,9.82-1.37,17.19-1.38,15.48.08-18.91,7-25.29,1.6" style="fill:#263238"></path><rect x="228.74" y="83.97" width="11.49" height="14.65" rx="3.5" transform="translate(-2.53 6.77) rotate(-1.65)" style="fill:#263238"></rect><polygon points="227.11 91.82 227.19 94.91 367.25 90.89 367.15 87.41 352.69 87.82 348.83 84.18 243.65 87.2 240.11 90.95 227.11 91.82" style="fill:#455a64"></polygon><rect x="251.5" y="94.02" width="7.46" height="5.08" transform="translate(-2.67 7.38) rotate(-1.65)" style="fill:#455a64"></rect><path d="M255.42,103.27h0a1.81,1.81,0,0,1-1.86-1.76l-.08-2.73,3.63-.1.08,2.72A1.82,1.82,0,0,1,255.42,103.27Z" style="fill:#455a64"></path><path d="M317.76,92.54c0,.11-9.33.46-20.84.79s-20.85.52-20.85.41,9.32-.47,20.84-.8S317.75,92.43,317.76,92.54Z" style="fill:#263238"></path><path d="M259.34,94.26a21.62,21.62,0,0,1-4.09.32,21.84,21.84,0,0,1-4.1-.08,42,42,0,0,1,8.19-.24Z" style="fill:#263238"></path><path d="M341.24,91.92a43.28,43.28,0,0,1-8.31.24,21.6,21.6,0,0,1,4.15-.31A22,22,0,0,1,341.24,91.92Z" style="fill:#263238"></path><path d="M271.25,86.41a3,3,0,0,1-.37.43L269.75,88l0,0h0c-2.63.13-7.61.31-13.3.48l-9,.22.12-.06c-.74.9-1.39,1.69-2,2.38l0-.08c0,1,0,1.87,0,2.52a5.82,5.82,0,0,1,0,.9,3.66,3.66,0,0,1-.09-.9c0-.65-.08-1.49-.13-2.51v0l0,0,1.92-2.43,0-.06h.07l9-.29c5.69-.17,10.67-.27,13.31-.29l-.07,0,1.19-1.1A2.24,2.24,0,0,1,271.25,86.41Z" style="fill:#263238"></path><path d="M318.45,84.73a2.1,2.1,0,0,1-.23.37c-.19.26-.43.6-.74,1l-2.78,3.74,0,.05h-.06c-4.37.17-10.77.38-17.89.58-7.7.22-14.56.39-18.92.47h-.07l0-.06-2-3.36-.52-.91a1.5,1.5,0,0,1-.16-.32,1.94,1.94,0,0,1,.22.29l.57.87c.52.81,1.22,1.92,2.11,3.3l-.11-.05c4.36-.17,11.22-.4,18.92-.62,7.12-.21,13.52-.37,17.89-.45l-.1,0L317.37,86c.32-.4.58-.73.79-1A1.66,1.66,0,0,1,318.45,84.73Z" style="fill:#263238"></path><path d="M243.81,91.74s.05.12.12.19.12.07.18,0,0-.11,0-.18-.17,0-.21-.08,0-.19.25-.2a.42.42,0,0,1,.35.19.45.45,0,0,1,0,.51.45.45,0,0,1-.49.16.41.41,0,0,1-.26-.3C243.62,91.8,243.77,91.7,243.81,91.74Z" style="fill:#263238"></path><path d="M243.85,93.32c.05,0,.05.12.12.19s.13.07.19,0,.05-.11,0-.18-.16,0-.2-.07,0-.19.24-.2a.4.4,0,0,1,.35.18.44.44,0,1,1-.79.37C243.67,93.38,243.82,93.29,243.85,93.32Z" style="fill:#263238"></path><path d="M240.19,94.62a4.33,4.33,0,0,1-.24-1.79,4.28,4.28,0,0,1,.14-1.81,4.24,4.24,0,0,1,.25,1.79A4.19,4.19,0,0,1,240.19,94.62Z" style="fill:#263238"></path><path d="M228.9,94.75c-.11,0-.21-.65-.24-1.47s.05-1.47.16-1.47a3,3,0,0,1,.23,1.46C229.08,94.08,229,94.75,228.9,94.75Z" style="fill:#263238"></path><path d="M322.4,84.9s.17.1.47.33l1.25,1-.07,0c2.64-.13,7.61-.31,13.31-.48l9-.22h.08l0,.06,2,2.31,0,0v0c0,1,0,1.86,0,2.51a5.69,5.69,0,0,1,0,.9,4.23,4.23,0,0,1-.09-.89c0-.65-.08-1.49-.13-2.51l0,.07-2.1-2.26.12,0-9,.3c-5.69.16-10.67.26-13.31.28h0l0,0-1.19-1.1A2.88,2.88,0,0,1,322.4,84.9Z" style="fill:#263238"></path><path d="M350.1,88.64s.19,0,.16.28a.42.42,0,0,1-.24.31.43.43,0,0,1-.5-.12.44.44,0,0,1-.07-.51.43.43,0,0,1,.34-.21c.23,0,.3.16.26.19s-.13,0-.2.08-.1.12,0,.19.1.06.19,0S350.06,88.68,350.1,88.64Z" style="fill:#263238"></path><path d="M350.15,90.23s.19,0,.15.27a.39.39,0,0,1-.24.32.46.46,0,0,1-.56-.64.39.39,0,0,1,.33-.2c.24,0,.31.15.26.18s-.12,0-.2.09-.09.11,0,.18.1.07.18,0S350.11,90.26,350.15,90.23Z" style="fill:#263238"></path><path d="M353.88,91.31a4.24,4.24,0,0,1-.25-1.79,4.48,4.48,0,0,1,.14-1.81A4.24,4.24,0,0,1,354,89.5,4.28,4.28,0,0,1,353.88,91.31Z" style="fill:#263238"></path><path d="M365.16,90.79c-.11,0-.22-.65-.24-1.47a3.08,3.08,0,0,1,.15-1.47c.11,0,.22.65.24,1.46S365.27,90.79,365.16,90.79Z" style="fill:#263238"></path><path d="M279.76,94.51s-.13.19-.12.48a.46.46,0,0,0,.66.44.45.45,0,0,0,.1-.78c-.21-.2-.42-.18-.44-.23s.24-.21.6,0a.76.76,0,0,1-.09,1.37.8.8,0,0,1-.89-.13.79.79,0,0,1-.21-.69C279.45,94.55,279.75,94.46,279.76,94.51Z" style="fill:#263238"></path><path d="M296.8,94s-.13.19-.11.48a.46.46,0,1,0,.76-.34c-.21-.2-.43-.17-.44-.23s.23-.21.6,0a.8.8,0,0,1,.38.61.77.77,0,0,1-.48.76.8.8,0,0,1-.89-.13.82.82,0,0,1-.21-.69C296.49,94.06,296.8,94,296.8,94Z" style="fill:#263238"></path><path d="M312.51,93.57c0,.05-.13.19-.11.48a.45.45,0,0,0,.66.44.46.46,0,0,0,.1-.79c-.21-.2-.43-.17-.44-.22s.23-.21.6,0a.76.76,0,0,1,.38.61.75.75,0,0,1-.48.75.78.78,0,0,1-.89-.13.8.8,0,0,1-.21-.68C312.2,93.61,312.51,93.52,312.51,93.57Z" style="fill:#263238"></path><path d="M317.17,96.47c0,.11-9.1.46-20.32.78s-20.33.5-20.33.39,9.09-.46,20.32-.78S317.17,96.36,317.17,96.47Z" style="fill:#263238"></path><path d="M296.42,114.88a.7.7,0,0,1-.26,0,6.45,6.45,0,0,1-.72,0,11.06,11.06,0,0,1-2.65-.37,10.34,10.34,0,0,1-6.92-5.18,23.76,23.76,0,0,1-2.81-8.32c-.19-1.11-.3-2-.38-2.64a5.38,5.38,0,0,1-.07-1,3.79,3.79,0,0,1,.22,1c.14.69.3,1.56.5,2.6a25.15,25.15,0,0,0,2.88,8.17,11.62,11.62,0,0,0,3.13,3.53,12.44,12.44,0,0,0,3.52,1.6A17.19,17.19,0,0,0,296.42,114.88Z" style="fill:#263238"></path><path d="M310.63,96.66a2.31,2.31,0,0,1,.07.69,14.14,14.14,0,0,1,0,1.91,30.62,30.62,0,0,1-1.14,6.16,22.59,22.59,0,0,1-2.45,5.78c-.21.34-.45.63-.64.89s-.38.42-.56.6a2.63,2.63,0,0,1-.57.41s.15-.2.46-.51l.5-.63c.17-.27.38-.56.57-.9a26.42,26.42,0,0,0,2.32-5.74,37.35,37.35,0,0,0,1.23-6.09C310.57,97.65,310.56,96.66,310.63,96.66Z" style="fill:#263238"></path><path d="M266.58,80.85a3.89,3.89,0,0,1,.7-.36,3.6,3.6,0,0,0,1.59-1.27,1.57,1.57,0,0,0,.12-1.3,2.72,2.72,0,0,0-1-1.22,7.48,7.48,0,0,0-1.61-.87,18.62,18.62,0,0,0-1.87-.67,32.11,32.11,0,0,0-6.92-1.08,25.38,25.38,0,0,1-2.91-.24,3.27,3.27,0,0,1,.78-.06c.51,0,1.24,0,2.15,0a28.19,28.19,0,0,1,7,1,18.77,18.77,0,0,1,1.91.7,8,8,0,0,1,1.67.93,3.09,3.09,0,0,1,1.08,1.41,1.81,1.81,0,0,1-.2,1.54,3.48,3.48,0,0,1-1.76,1.27A2.72,2.72,0,0,1,266.58,80.85Z" style="fill:#263238"></path><path d="M271,76c-.09.08-1-1-2.53-1.85s-2.88-1.18-2.86-1.3a5.69,5.69,0,0,1,3.05,1A5.78,5.78,0,0,1,271,76Z" style="fill:#263238"></path><path d="M382.09,81.63a7.5,7.5,0,0,1,1.22-.25c.78-.14,1.92-.32,3.32-.59a35.14,35.14,0,0,0,4.83-1.26,12.56,12.56,0,0,0,2.66-1.18,2.7,2.7,0,0,0,.95-1.09,1.64,1.64,0,0,0,0-1.4,2.33,2.33,0,0,0-1-1,7.27,7.27,0,0,0-1.42-.57c-1-.3-1.93-.57-2.84-.81-1.83-.47-3.49-.82-4.89-1.07s-2.55-.4-3.34-.51a8.37,8.37,0,0,1-1.23-.2,1.57,1.57,0,0,1,.32,0l.92.06c.8.06,2,.18,3.37.39s3.1.53,4.94,1c.92.23,1.88.49,2.86.8a7.22,7.22,0,0,1,1.49.59,2.67,2.67,0,0,1,1.22,1.2,2,2,0,0,1,0,1.72,3,3,0,0,1-1.1,1.24,12.21,12.21,0,0,1-2.75,1.21,31.58,31.58,0,0,1-4.9,1.19c-1.41.24-2.56.38-3.35.47A8.7,8.7,0,0,1,382.09,81.63Z" style="fill:#263238"></path><path d="M329.91,81.76a1.17,1.17,0,0,1-.5-.1A4.19,4.19,0,0,1,328.2,81a4.83,4.83,0,0,1-1.3-1.59,4.69,4.69,0,0,1-.51-2.48,4.59,4.59,0,0,1,.94-2.35,4.77,4.77,0,0,1,1.57-1.34,4,4,0,0,1,1.31-.44,1,1,0,0,1,.5,0,8.6,8.6,0,0,0-1.67.69,4.44,4.44,0,0,0-.66,7.31A9.25,9.25,0,0,0,329.91,81.76Z" style="fill:#263238"></path><rect x="272.81" y="99.67" width="3.22" height="10.91" rx="1.49" transform="translate(-2.89 7.87) rotate(-1.63)" style="fill:#263238"></rect></g><g id="freepik--drone-1--inject-19"><path d="M83.73,217.1a7.91,7.91,0,0,1-1.35.22c-.87.11-2.13.24-3.69.35a97,97,0,0,1-12.23.07,5.48,5.48,0,0,1-3.46-.89,1.72,1.72,0,0,1-.48-1.74,2.58,2.58,0,0,1,1-1.36,13.35,13.35,0,0,1,2.75-1.15l2.42-.84,3.51-1.18a7,7,0,0,1,1.31-.37,8.1,8.1,0,0,1-1.25.54l-3.46,1.32-2.4.89a13.21,13.21,0,0,0-2.63,1.15,2.06,2.06,0,0,0-.85,1.12,1.25,1.25,0,0,0,.36,1.29,3,3,0,0,0,1.44.61,15.9,15.9,0,0,0,1.73.15c4.76.27,9.07.2,12.19.06l3.7-.2A6.42,6.42,0,0,1,83.73,217.1Z" style="fill:#263238"></path><path d="M87,217.75a3.37,3.37,0,0,1-.86.27c-.55.14-1.36.31-2.37.5a61.6,61.6,0,0,1-7.94.89,59.89,59.89,0,0,1-8-.17c-1-.1-1.84-.19-2.41-.29a3.19,3.19,0,0,1-.87-.18c0-.07,1.27,0,3.3.14s4.85.17,8,0,5.9-.46,7.92-.75S87,217.68,87,217.75Z" style="fill:#263238"></path><rect x="167.61" y="219.59" width="10.97" height="9.44" transform="translate(-40.12 37.72) rotate(-11.15)" style="fill:#263238"></rect><path d="M257.73,177.49s-3.85-.88-11.75,1-20.28,2.93-17.92,4.17,23.78,3.17,29.75-4.8" style="fill:#263238"></path><rect x="260.57" y="175.43" width="2.38" height="5.59" transform="translate(-29.53 54) rotate(-11.15)" style="fill:#455a64"></rect><rect x="257.35" y="174.78" width="8.24" height="3.95" transform="translate(-29.25 53.92) rotate(-11.15)" style="fill:#455a64"></rect><path d="M265.52,176s3.22-2.28,11.24-3.54,19.88-5,18.17-2.94-20.8,12-29.34,6.84" style="fill:#263238"></path><rect x="257.41" y="180.53" width="13.66" height="17.42" rx="3.5" transform="translate(-31.62 54.69) rotate(-11.15)" style="fill:#BA68C8"></rect><rect x="257.41" y="180.53" width="13.66" height="17.42" rx="3.5" transform="translate(-31.62 54.69) rotate(-11.15)" style="opacity:0.30000000000000004"></rect><rect x="234.44" y="197.12" width="8.86" height="6.04" transform="translate(-34.2 49.99) rotate(-11.15)" style="fill:#BA68C8"></rect><path d="M240.4,207.9h0a2.16,2.16,0,0,1-2.54-1.7l-.62-3.19,4.23-.83.63,3.18A2.16,2.16,0,0,1,240.4,207.9Z" style="fill:#BA68C8"></path><path d="M165.88,206.31l-.25-.71a16.08,16.08,0,0,1,12.1-21L196.27,181a16.09,16.09,0,0,1,19.19,15.77h0a3.25,3.25,0,0,1-2.62,3.18l-43.27,8.53A3.24,3.24,0,0,1,165.88,206.31Z" style="fill:#BA68C8"></path><path d="M165.88,206.31l-.25-.71a16.08,16.08,0,0,1,12.1-21L196.27,181a16.09,16.09,0,0,1,19.19,15.77h0a3.25,3.25,0,0,1-2.62,3.18l-43.27,8.53A3.24,3.24,0,0,1,165.88,206.31Z" style="opacity:0.2"></path><rect x="181.38" y="189.19" width="0.71" height="5.99" transform="translate(-33.74 38.79) rotate(-11.15)" style="fill:#263238"></rect><rect x="184.02" y="188.67" width="0.71" height="5.99" transform="translate(-33.59 39.29) rotate(-11.15)" style="fill:#263238"></rect><rect x="186.67" y="188.14" width="0.71" height="5.99" transform="translate(-33.42 39.76) rotate(-11.15)" style="fill:#263238"></rect><rect x="189.32" y="187.62" width="0.71" height="5.99" transform="translate(-33.29 40.29) rotate(-11.15)" style="fill:#263238"></rect><rect x="191.97" y="187.1" width="0.71" height="5.99" transform="translate(-33.12 40.76) rotate(-11.14)" style="fill:#263238"></rect><rect x="194.62" y="186.58" width="0.71" height="5.99" transform="translate(-32.99 41.3) rotate(-11.16)" style="fill:#263238"></rect><path d="M196.83,232.21h0a24.81,24.81,0,0,1-29.13-19.54l-.68-3.44,48.67-9.6.68,3.45A24.8,24.8,0,0,1,196.83,232.21Z" style="fill:#BA68C8"></path><path d="M111.78,205.22s-3.85-.88-11.75,1-20.28,2.93-17.92,4.17,23.78,3.17,29.74-4.8" style="fill:#263238"></path><rect x="114.62" y="203.16" width="2.38" height="5.59" transform="translate(-37.66 26.3) rotate(-11.16)" style="fill:#455a64"></rect><rect x="111.4" y="202.51" width="8.24" height="3.95" transform="translate(-37.37 26.21) rotate(-11.15)" style="fill:#455a64"></rect><path d="M119.56,203.69s3.23-2.28,11.25-3.54,19.88-5,18.17-2.94-20.8,12-29.34,6.84" style="fill:#263238"></path><rect x="111.46" y="208.26" width="13.66" height="17.42" rx="3.5" transform="matrix(0.98, -0.19, 0.19, 0.98, -39.74, 26.98)" style="fill:#BA68C8"></rect><rect x="111.46" y="208.26" width="13.66" height="17.42" rx="3.5" transform="matrix(0.98, -0.19, 0.19, 0.98, -39.74, 26.98)" style="opacity:0.30000000000000004"></rect><polygon points="109.74 219.04 110.45 222.65 273.88 190.42 273.08 186.37 256.21 189.69 250.96 186.18 128.23 210.38 124.82 215.46 109.74 219.04" style="fill:#BA68C8"></polygon><polygon points="109.74 219.04 110.45 222.65 273.88 190.42 273.08 186.37 256.21 189.69 250.96 186.18 128.23 210.38 124.82 215.46 109.74 219.04" style="fill:#BA68C8"></polygon><rect x="139.21" y="216.05" width="8.86" height="6.04" transform="translate(-39.67 31.93) rotate(-11.15)" style="fill:#BA68C8"></rect><path d="M145.19,226.91h0a2.15,2.15,0,0,1-2.53-1.7L142,222l4.23-.83.63,3.18A2.17,2.17,0,0,1,145.19,226.91Z" style="fill:#BA68C8"></path><path d="M216.17,202.08c0,.13-10.84,2.38-24.28,5s-24.34,4.69-24.37,4.56,10.85-2.37,24.28-5S216.15,202,216.17,202.08Z" style="fill:#263238"></path><path d="M148,215.57a25.06,25.06,0,0,1-4.73,1.17,26.76,26.76,0,0,1-4.82.72,25.06,25.06,0,0,1,4.73-1.17A26.76,26.76,0,0,1,148,215.57Z" style="fill:#263238"></path><path d="M243.58,196.75a27.18,27.18,0,0,1-4.8,1.18,26,26,0,0,1-4.9.73,25.75,25.75,0,0,1,4.81-1.18A26,26,0,0,1,243.58,196.75Z" style="fill:#263238"></path><path d="M160.43,204a2.42,2.42,0,0,1-.35.57L159,206.19l0,0h0c-3.07.68-8.87,1.87-15.51,3.18l-10.5,2,.13-.09-1.85,3.18,0-.1c.21,1.2.38,2.19.51,3a5.12,5.12,0,0,1,.13,1.06,7.2,7.2,0,0,1-.28-1c-.17-.76-.38-1.73-.64-2.92v0l0-.05,1.77-3.23,0-.07.08,0L143.32,209c6.64-1.31,12.46-2.41,15.55-2.95l-.07.05,1.18-1.52C160.26,204.19,160.41,204,160.43,204Z" style="fill:#263238"></path><path d="M215.45,192.79a1.65,1.65,0,0,1-.2.48l-.66,1.33-2.53,4.93,0,.06-.08,0c-5.09,1-12.56,2.55-20.86,4.19-9,1.77-17,3.32-22.1,4.27h-.08l0-.06-3-3.55-.79-1a3,3,0,0,1-.25-.34,1.52,1.52,0,0,1,.31.29l.85.91,3.11,3.46-.13-.05c5.07-1.05,13.07-2.66,22.06-4.44,8.3-1.63,15.78-3.08,20.89-4l-.11.08,2.66-4.86.73-1.3A2.25,2.25,0,0,1,215.45,192.79Z" style="fill:#263238"></path><path d="M129.3,215.67c.06,0,.09.13.18.19s.16.06.22,0,0-.14-.09-.21-.2,0-.26,0,0-.23.25-.28a.47.47,0,0,1,.45.14.55.55,0,0,1,.06.61.53.53,0,0,1-.55.28.46.46,0,0,1-.36-.3C129.1,215.77,129.26,215.63,129.3,215.67Z" style="fill:#263238"></path><path d="M129.67,217.52c.06,0,.08.12.17.19s.16.06.22,0,0-.15-.09-.21-.2,0-.25,0,0-.23.25-.29a.52.52,0,0,1,.45.15.53.53,0,1,1-.86.59C129.47,217.62,129.62,217.48,129.67,217.52Z" style="fill:#263238"></path><path d="M125.63,219.76a5.36,5.36,0,0,1-.64-2.06,5.29,5.29,0,0,1-.19-2.15,9.74,9.74,0,0,1,.83,4.21Z" style="fill:#263238"></path><path d="M112.42,222.12c-.13,0-.38-.72-.57-1.67s-.24-1.74-.11-1.76.38.72.57,1.67A3.66,3.66,0,0,1,112.42,222.12Z" style="fill:#263238"></path><path d="M220.12,192.21a2.46,2.46,0,0,1,.6.29l1.68,1-.09,0c3.07-.67,8.87-1.86,15.51-3.17l10.5-2,.09,0,.07.06,2.85,2.31,0,0v.05c.21,1.2.38,2.18.52,2.94a6.41,6.41,0,0,1,.13,1.06,4.71,4.71,0,0,1-.29-1c-.16-.75-.38-1.73-.64-2.92l.05.09-2.91-2.25.15,0-10.48,2.11c-6.64,1.31-12.46,2.41-15.55,2.95h-.05l0,0-1.61-1A3.26,3.26,0,0,1,220.12,192.21Z" style="fill:#263238"></path><path d="M253.34,191.16s.22,0,.23.3a.5.5,0,0,1-.22.41.51.51,0,0,1-.61-.05.52.52,0,0,1-.18-.58.49.49,0,0,1,.36-.31c.27-.05.38.13.34.17s-.14.06-.22.14-.09.15,0,.22.13.06.22-.05S253.29,191.21,253.34,191.16Z" style="fill:#263238"></path><path d="M253.7,193s.23,0,.24.29a.49.49,0,0,1-.23.42.53.53,0,0,1-.61-.05.52.52,0,0,1-.18-.58.51.51,0,0,1,.36-.31c.27-.05.38.12.34.16s-.14.06-.22.14-.09.15,0,.23.14.05.22-.06S253.66,193.06,253.7,193Z" style="fill:#263238"></path><path d="M258.28,193.55a10.15,10.15,0,0,1-.83-4.21,5.09,5.09,0,0,1,.65,2.06A5,5,0,0,1,258.28,193.55Z" style="fill:#263238"></path><path d="M271.41,190.72c-.13,0-.38-.72-.57-1.67s-.24-1.74-.11-1.76.38.72.57,1.67A3.66,3.66,0,0,1,271.41,190.72Z" style="fill:#263238"></path><path d="M172,211.86c.05,0-.11.25,0,.58a.55.55,0,1,0,.82-.55c-.28-.2-.53-.12-.56-.18s.24-.3.71-.12a1,1,0,0,1,.57.64.95.95,0,1,1-1.86.24C171.65,212,172,211.8,172,211.86Z" style="fill:#263238"></path><path d="M191.89,207.93c.05,0-.11.25,0,.59a.55.55,0,1,0,.82-.55c-.28-.2-.53-.12-.56-.18s.23-.3.71-.12a.9.9,0,0,1,.15,1.62.93.93,0,0,1-1.07,0,1,1,0,0,1-.38-.76C191.53,208,191.87,207.88,191.89,207.93Z" style="fill:#263238"></path><path d="M210.23,204.32c.05.05-.12.25,0,.59a.55.55,0,1,0,.81-.56c-.28-.19-.53-.12-.55-.18s.23-.29.7-.11a.95.95,0,1,1-1.29.87C209.87,204.43,210.21,204.26,210.23,204.32Z" style="fill:#263238"></path><path d="M216.25,206.81c0,.12-10.57,2.32-23.67,4.9s-23.74,4.58-23.76,4.45,10.57-2.32,23.67-4.9S216.23,206.68,216.25,206.81Z" style="fill:#263238"></path><path d="M195.53,232.46s-.09,0-.28.11-.48.11-.85.18a15,15,0,0,1-7.77-1,13.9,13.9,0,0,1-4.54-3.6,28.26,28.26,0,0,1-4.93-9.21c-.43-1.26-.75-2.29-1-3a5.91,5.91,0,0,1-.27-1.13,5.48,5.48,0,0,1,.45,1.07c.29.79.65,1.78,1.09,3a30.25,30.25,0,0,0,5,9,13.79,13.79,0,0,0,4.36,3.51,14.68,14.68,0,0,0,4.44,1.19A20.06,20.06,0,0,0,195.53,232.46Z" style="fill:#263238"></path><path d="M208.62,208.31a3.15,3.15,0,0,1,.23.8,20.33,20.33,0,0,1,.33,2.24,36.55,36.55,0,0,1-.12,7.46,27,27,0,0,1-1.75,7.25c-.18.44-.4.83-.56,1.17s-.38.56-.54.82a3.36,3.36,0,0,1-.6.59,3.23,3.23,0,0,1,.45-.7l.46-.83c.14-.35.33-.73.49-1.17a31.93,31.93,0,0,0,1.59-7.19,45.32,45.32,0,0,0,.25-7.37C208.75,209.49,208.55,208.33,208.62,208.31Z" style="fill:#263238"></path><path d="M153.86,198.42a5.69,5.69,0,0,1,.76-.55,4.38,4.38,0,0,0,1.61-1.8,1.85,1.85,0,0,0-.11-1.55,3.28,3.28,0,0,0-1.4-1.24,9,9,0,0,0-2.05-.7,20.92,20.92,0,0,0-2.33-.42,38.18,38.18,0,0,0-8.33.09,31.05,31.05,0,0,1-3.46.29,3.56,3.56,0,0,1,.91-.22c.59-.11,1.45-.25,2.52-.4a33.06,33.06,0,0,1,8.42-.22,20,20,0,0,1,2.38.43,9.38,9.38,0,0,1,2.14.77,3.64,3.64,0,0,1,1.54,1.44,2.23,2.23,0,0,1,.08,1.85,4.2,4.2,0,0,1-1.82,1.83A2.51,2.51,0,0,1,153.86,198.42Z" style="fill:#263238"></path><path d="M158.13,191.8c-.09.11-1.41-1-3.33-1.67s-3.61-.82-3.6-1a6.74,6.74,0,0,1,3.77.52A6.85,6.85,0,0,1,158.13,191.8Z" style="fill:#263238"></path><path d="M289.46,176.66a7.58,7.58,0,0,1,1.38-.53c.89-.32,2.2-.75,3.79-1.35a42.6,42.6,0,0,0,5.41-2.42,15.31,15.31,0,0,0,2.88-1.91,3.26,3.26,0,0,0,.91-1.46,2,2,0,0,0-.23-1.65,2.74,2.74,0,0,0-1.43-1,8.86,8.86,0,0,0-1.77-.38c-1.21-.17-2.38-.3-3.49-.4-2.23-.19-4.25-.27-6-.29s-3.06,0-4,0a11.91,11.91,0,0,1-1.48,0,1.22,1.22,0,0,1,.38-.08c.25,0,.61-.08,1.09-.12.94-.08,2.32-.17,4-.2s3.74,0,6,.19c1.13.09,2.3.22,3.52.38a8.58,8.58,0,0,1,1.87.4,3.19,3.19,0,0,1,1.66,1.17,2.4,2.4,0,0,1,.28,2,3.53,3.53,0,0,1-1,1.66,15,15,0,0,1-3,2,38.33,38.33,0,0,1-5.51,2.36c-1.61.56-2.93.95-3.85,1.21A9.09,9.09,0,0,1,289.46,176.66Z" style="fill:#263238"></path><path d="M228.3,187.05s-.21,0-.6,0a5.1,5.1,0,0,1-1.55-.55,5.74,5.74,0,0,1-1.84-1.61,5.25,5.25,0,0,1-.44-5.75,5.67,5.67,0,0,1,1.57-1.88,5.12,5.12,0,0,1,1.45-.78c.37-.11.58-.13.59-.1a10.25,10.25,0,0,0-1.83,1.14,5.29,5.29,0,0,0,.67,8.7A10.94,10.94,0,0,0,228.3,187.05Z" style="fill:#263238"></path><rect x="165.91" y="218.86" width="3.83" height="12.97" rx="1.49" transform="translate(-40.43 36.73) rotate(-11.16)" style="fill:#263238"></rect></g><g id="freepik--Plant--inject-19"><path d="M251.55,411.17c-2,2.84-5.87,1.9-7.66.16s-2.56-4.26-3.25-6.66c-1.58-5.49-3.17-11.25-2-16.84a9.4,9.4,0,0,1,2.15-4.58,4.9,4.9,0,0,1,4.63-1.54c2,.52,3.17,2.43,4.05,4.25a40.19,40.19,0,0,1,4,17.23c0,2.77-.32,5.68-1.89,8" style="fill:#BA68C8"></path><g style="opacity:0.2"><path d="M251.55,411.17c-2,2.84-5.87,1.9-7.66.16s-2.56-4.26-3.25-6.66c-1.58-5.49-3.17-11.25-2-16.84a9.4,9.4,0,0,1,2.15-4.58,4.9,4.9,0,0,1,4.63-1.54c2,.52,3.17,2.43,4.05,4.25a40.19,40.19,0,0,1,4,17.23c0,2.77-.32,5.68-1.89,8"></path></g><path d="M244.08,425.59a17.28,17.28,0,0,0-10.72-1.3,8.91,8.91,0,0,0-5.3,2.36c-1.32,1.46-1.57,4-.05,5.29a5.06,5.06,0,0,0,3.34.85c2.83,0,6-.54,8.24,1.17,1.29,1,2.15,2.59,3.7,3.07a3.67,3.67,0,0,0,4-1.79,6.27,6.27,0,0,0,.45-4.61A7,7,0,0,0,244.08,425.59Z" style="fill:#BA68C8"></path><path d="M257,415.25a10.32,10.32,0,0,1-1.61-9.53,18.44,18.44,0,0,1,5.64-8.2,30.57,30.57,0,0,1,10.12-6,10.79,10.79,0,0,1,4.55-.77,4.8,4.8,0,0,1,3.82,2.31c1.06,2,0,4.49-1.06,6.5a77.08,77.08,0,0,1-6.65,10.12c-2,2.57-4.27,5.1-7.3,6.26s-6.19,1-7.8-1.08" style="fill:#BA68C8"></path><path d="M251.69,454.13a5.88,5.88,0,0,1-.18-1.3c-.09-.94-.21-2.12-.35-3.53a50.84,50.84,0,0,0-.79-5.18,40.56,40.56,0,0,0-1.88-6.11,22.23,22.23,0,0,0-3.13-5.53,11.62,11.62,0,0,0-3.94-3.29,11.15,11.15,0,0,0-3.33-1,6.32,6.32,0,0,1-1.29-.19,7.11,7.11,0,0,1,1.32,0,10.18,10.18,0,0,1,3.46.9,11.75,11.75,0,0,1,4.17,3.31,22,22,0,0,1,3.23,5.65,37.3,37.3,0,0,1,1.87,6.21,44.81,44.81,0,0,1,.69,5.25c.11,1.5.15,2.71.18,3.55A7.45,7.45,0,0,1,251.69,454.13Z" style="fill:#263238"></path><path d="M251.44,451.41a3.13,3.13,0,0,1,0-.6v-1.72c0-1.49,0-3.64-.07-6.31-.13-5.32-.59-12.68-1.48-20.76s-2.07-15.35-3.15-20.57q-.39-2-.75-3.51c-.23-1-.43-1.93-.62-2.65s-.3-1.23-.4-1.67a3,3,0,0,1-.11-.59,2.29,2.29,0,0,1,.21.56c.13.44.3,1,.5,1.65s.45,1.6.71,2.63.55,2.2.83,3.5A195.32,195.32,0,0,1,250.39,422c.89,8.1,1.29,15.48,1.33,20.82,0,2.67,0,4.83-.1,6.32,0,.7-.08,1.26-.1,1.71A2.17,2.17,0,0,1,251.44,451.41Z" style="fill:#263238"></path><path d="M251.41,437.19a11.17,11.17,0,0,1,0-1.79c.07-1.16.23-2.82.55-4.86a64.44,64.44,0,0,1,1.58-7.09,63.61,63.61,0,0,1,3-8.37,44.71,44.71,0,0,1,8.7-13.54,22.94,22.94,0,0,1,2-1.91c.32-.26.59-.53.88-.74l.79-.54a11.33,11.33,0,0,1,1.51-1,55.34,55.34,0,0,0-4.95,4.42A47,47,0,0,0,257,415.29a67.72,67.72,0,0,0-3,8.3c-.77,2.6-1.29,5-1.68,7s-.58,3.67-.71,4.81A11.54,11.54,0,0,1,251.41,437.19Z" style="fill:#263238"></path></g><g id="freepik--Flag--inject-19"><rect x="367.02" y="243.23" width="0.02" height="8.29" style="fill:none"></rect><rect x="367.02" y="175.77" width="0.02" height="8.29" style="fill:none"></rect><rect x="367.02" y="276.79" width="0.02" height="8.29" style="fill:none"></rect><rect x="367.02" y="309.83" width="0.02" height="8.29" style="fill:none"></rect><rect x="367.02" y="209.34" width="0.02" height="8.29" style="fill:none"></rect><rect x="367.02" y="343.72" width="0.02" height="8.29" style="fill:none"></rect><rect x="375.45" y="234.82" width="8.41" height="8.29" style="fill:#ebebeb"></rect><polygon points="367.02 243.11 367.02 243.23 367.04 243.23 367.04 251.51 375.44 251.51 375.44 243.23 375.44 243.11 367.04 243.11 367.04 234.82 358.63 234.82 358.63 243.11 367.02 243.11" style="fill:#ebebeb"></polygon><polygon points="399.66 243.11 399.66 234.7 392.26 234.7 392.26 234.76 392.26 243.11 399.66 243.11" style="fill:#ebebeb"></polygon><rect x="342.46" y="234.82" width="7.76" height="8.41" style="fill:#ebebeb"></rect><polygon points="392.26 243.11 392.26 234.76 383.85 234.76 383.85 234.82 383.85 243.11 392.26 243.11" style="fill:#BA68C8"></polygon><polygon points="375.44 243.11 375.44 234.82 367.04 234.82 367.04 234.82 367.04 243.11 375.44 243.11" style="fill:#BA68C8"></polygon><rect x="350.22" y="243.23" width="8.39" height="8.29" style="fill:#ebebeb"></rect><polygon points="383.85 243.11 383.85 243.23 383.85 251.51 392.26 251.51 392.26 243.11 383.85 243.11" style="fill:#ebebeb"></polygon><polygon points="383.85 243.11 375.44 243.11 375.44 243.23 375.44 251.51 383.85 251.51 383.85 243.23 383.85 243.11" style="fill:#BA68C8"></polygon><rect x="392.26" y="243.11" width="7.4" height="8.41" style="fill:#BA68C8"></rect><rect x="342.46" y="243.23" width="7.76" height="8.29" style="fill:#BA68C8"></rect><rect x="375.45" y="251.51" width="8.41" height="8.41" style="fill:#ebebeb"></rect><polygon points="367.02 251.51 358.63 251.51 358.63 251.63 358.63 259.92 367.04 259.92 367.04 251.51 367.02 251.51" style="fill:#ebebeb"></polygon><rect x="392.26" y="251.51" width="7.4" height="8.41" style="fill:#ebebeb"></rect><polygon points="350.22 251.51 342.46 251.51 342.46 259.92 350.22 259.92 350.22 251.63 350.22 251.51" style="fill:#ebebeb"></polygon><rect x="383.85" y="251.51" width="8.41" height="8.41" style="fill:#BA68C8"></rect><rect x="367.04" y="251.51" width="8.41" height="8.41" style="fill:#BA68C8"></rect><polygon points="358.63 251.51 367.02 251.51 367.02 243.23 367.02 243.11 358.63 243.11 358.63 234.82 358.63 234.82 350.22 234.82 350.22 243.23 358.61 243.23 358.61 243.23 358.61 251.51 350.22 251.51 350.22 251.63 350.22 259.92 358.63 259.92 358.63 251.63 358.63 251.51" style="fill:#BA68C8"></polygon><rect x="367.04" y="259.92" width="8.41" height="8.41" style="fill:#ebebeb"></rect><rect x="350.22" y="259.92" width="8.41" height="8.41" style="fill:#ebebeb"></rect><polygon points="391.62 268.33 391.62 261.78 392.26 261.78 392.26 259.92 383.85 259.92 383.85 268.33 391.62 268.33" style="fill:#ebebeb"></polygon><rect x="358.63" y="259.92" width="8.41" height="8.41" style="fill:#BA68C8"></rect><rect x="342.46" y="259.92" width="7.76" height="8.41" style="fill:#BA68C8"></rect><rect x="375.45" y="268.38" width="8.41" height="8.29" style="fill:#ebebeb"></rect><polygon points="367.02 276.67 367.02 276.79 367.04 276.79 367.04 285.08 375.44 285.08 375.44 276.79 375.44 276.67 367.04 276.67 367.04 268.38 358.63 268.38 358.63 276.67 367.02 276.67" style="fill:#ebebeb"></polygon><polygon points="392.26 268.33 392.26 268.33 392.26 276.67 399.66 276.67 399.66 268.27 392.26 268.27 392.26 268.33" style="fill:#ebebeb"></polygon><rect x="342.46" y="268.38" width="7.76" height="8.41" style="fill:#ebebeb"></rect><polygon points="392.26 276.67 392.26 268.33 392.26 268.33 392.26 268.27 399.66 268.27 399.66 261.78 392.26 261.78 391.62 261.78 391.62 268.33 383.85 268.33 383.85 259.92 375.44 259.92 375.44 268.33 383.85 268.33 383.85 268.38 383.85 276.67 392.26 276.67" style="fill:#BA68C8"></polygon><polygon points="375.44 276.67 375.44 268.38 367.04 268.38 367.04 268.38 367.04 276.67 375.44 276.67" style="fill:#BA68C8"></polygon><rect x="350.22" y="276.79" width="8.39" height="8.29" style="fill:#ebebeb"></rect><polygon points="383.85 276.67 383.85 276.79 383.85 285.08 392.26 285.08 392.26 276.67 383.85 276.67" style="fill:#ebebeb"></polygon><polygon points="383.85 276.67 375.44 276.67 375.44 276.79 375.44 285.08 383.85 285.08 383.85 276.79 383.85 276.67" style="fill:#BA68C8"></polygon><rect x="392.26" y="276.67" width="7.4" height="8.41" style="fill:#BA68C8"></rect><rect x="342.46" y="276.79" width="7.76" height="8.29" style="fill:#BA68C8"></rect><rect x="375.45" y="285.08" width="8.41" height="8.41" style="fill:#ebebeb"></rect><polygon points="367.02 285.08 358.63 285.08 358.63 285.2 358.63 293.49 367.04 293.49 367.04 285.08 367.02 285.08" style="fill:#ebebeb"></polygon><rect x="392.26" y="285.08" width="7.4" height="8.41" style="fill:#ebebeb"></rect><polygon points="350.22 285.08 342.46 285.08 342.46 293.49 350.22 293.49 350.22 285.2 350.22 285.08" style="fill:#ebebeb"></polygon><rect x="383.85" y="285.08" width="8.41" height="8.41" style="fill:#BA68C8"></rect><rect x="367.04" y="285.08" width="8.41" height="8.41" style="fill:#BA68C8"></rect><polygon points="358.63 285.08 367.02 285.08 367.02 276.79 367.02 276.67 358.63 276.67 358.63 268.38 358.63 268.38 350.22 268.38 350.22 276.79 358.61 276.79 358.61 276.79 358.61 285.08 350.22 285.08 350.22 285.2 350.22 293.49 358.63 293.49 358.63 285.2 358.63 285.08" style="fill:#BA68C8"></polygon><rect x="367.04" y="293.49" width="8.41" height="7.94" style="fill:#ebebeb"></rect><rect x="350.22" y="293.49" width="8.41" height="7.94" style="fill:#ebebeb"></rect><polygon points="392.26 301.37 392.26 301.9 392.26 309.71 399.66 309.71 399.66 301.31 392.26 301.31 392.26 293.49 383.85 293.49 383.85 301.37 392.26 301.37" style="fill:#ebebeb"></polygon><polygon points="383.85 301.43 383.85 301.9 383.85 309.71 392.26 309.71 392.26 301.9 392.26 301.37 383.85 301.37 383.85 293.49 375.44 293.49 375.44 301.43 383.85 301.43" style="fill:#BA68C8"></polygon><rect x="392.26" y="293.49" width="7.4" height="7.82" style="fill:#BA68C8"></rect><rect x="342.46" y="293.49" width="7.76" height="7.94" style="fill:#BA68C8"></rect><path d="M367,175.66v.11h0v8.29h8.41v-6.33c-1-.72-2.06-1.42-3.13-2.07H367v-2.87a58.34,58.34,0,0,0-8.41-3.21v6.08Z" style="fill:#ebebeb"></path><path d="M346,167.37h-3.53v8.4h7.76v-8C348.82,167.6,347.41,167.45,346,167.37Z" style="fill:#ebebeb"></path><path d="M372.32,175.66a56.11,56.11,0,0,0-5.28-2.87v2.87Z" style="fill:#BA68C8"></path><rect x="350.22" y="175.77" width="8.39" height="8.29" style="fill:#ebebeb"></rect><path d="M383,184.06a58.33,58.33,0,0,0-7.52-6.33v6.33Z" style="fill:#BA68C8"></path><path d="M358.61,184.06h-8.39v8.41h8.41v-8.41H367v-8.4h-8.39v-6.08a57.09,57.09,0,0,0-8.41-1.79v8h8.39Z" style="fill:#BA68C8"></path><rect x="342.46" y="175.77" width="7.76" height="8.29" style="fill:#BA68C8"></rect><path d="M375.45,192.47h8.4V185l-.88-.93h-7.52Z" style="fill:#ebebeb"></path><polygon points="367.02 184.06 358.63 184.06 358.63 184.18 358.63 192.47 367.04 192.47 367.04 184.06 367.02 184.06" style="fill:#ebebeb"></polygon><polygon points="350.22 184.06 342.46 184.06 342.46 192.47 350.22 192.47 350.22 184.18 350.22 184.06" style="fill:#ebebeb"></polygon><path d="M389.89,192.47a58,58,0,0,0-6-7.48v7.48Z" style="fill:#BA68C8"></path><rect x="367.04" y="184.06" width="8.41" height="8.41" style="fill:#BA68C8"></rect><rect x="367.04" y="192.47" width="8.41" height="8.41" style="fill:#ebebeb"></rect><rect x="350.22" y="192.47" width="8.41" height="8.41" style="fill:#ebebeb"></rect><path d="M392.26,200.88h0v8.34h5.34a57.7,57.7,0,0,0-3.05-8.41h-2.29v-4.49c-.74-1.31-1.52-2.6-2.37-3.85h-6v8.41Z" style="fill:#ebebeb"></path><path d="M394.55,200.81q-1.05-2.3-2.29-4.49v4.49Z" style="fill:#BA68C8"></path><rect x="358.63" y="192.47" width="8.41" height="8.41" style="fill:#BA68C8"></rect><rect x="342.46" y="192.47" width="7.76" height="8.41" style="fill:#BA68C8"></rect><rect x="375.45" y="200.93" width="8.41" height="8.29" style="fill:#ebebeb"></rect><polygon points="367.02 209.22 367.02 209.34 367.04 209.34 367.04 217.63 375.44 217.63 375.44 209.34 375.44 209.22 367.04 209.22 367.04 200.93 358.63 200.93 358.63 209.22 367.02 209.22" style="fill:#ebebeb"></polygon><rect x="342.46" y="200.93" width="7.76" height="8.41" style="fill:#ebebeb"></rect><polygon points="392.26 209.22 392.26 200.88 392.26 200.88 383.85 200.88 383.85 192.47 375.44 192.47 375.44 200.88 383.85 200.88 383.85 200.93 383.85 209.22 392.26 209.22" style="fill:#BA68C8"></polygon><polygon points="375.44 209.22 375.44 200.93 367.04 200.93 367.04 200.93 367.04 209.22 375.44 209.22" style="fill:#BA68C8"></polygon><rect x="350.22" y="209.34" width="8.39" height="8.29" style="fill:#ebebeb"></rect><polygon points="383.85 209.34 383.85 217.63 392.26 217.63 392.26 209.22 383.85 209.22 383.85 209.34" style="fill:#ebebeb"></polygon><polygon points="383.85 209.22 375.44 209.22 375.44 209.34 375.44 217.63 383.85 217.63 383.85 209.34 383.85 209.22" style="fill:#BA68C8"></polygon><path d="M392.26,209.22v8.41h7a57.1,57.1,0,0,0-1.64-8.41Z" style="fill:#BA68C8"></path><rect x="342.46" y="209.34" width="7.76" height="8.29" style="fill:#BA68C8"></rect><rect x="375.45" y="217.63" width="8.41" height="8.41" style="fill:#ebebeb"></rect><polygon points="367.02 217.63 358.63 217.63 358.63 217.75 358.63 226.04 367.04 226.04 367.04 217.63 367.02 217.63" style="fill:#ebebeb"></polygon><path d="M392.26,226h7.4v-1.59a56.89,56.89,0,0,0-.42-6.82h-7Z" style="fill:#ebebeb"></path><polygon points="350.22 217.63 342.46 217.63 342.46 226.04 350.22 226.04 350.22 217.75 350.22 217.63" style="fill:#ebebeb"></polygon><rect x="383.85" y="217.63" width="8.41" height="8.41" style="fill:#BA68C8"></rect><rect x="367.04" y="217.63" width="8.41" height="8.41" style="fill:#BA68C8"></rect><polygon points="358.63 217.63 367.02 217.63 367.02 209.34 367.02 209.22 358.63 209.22 358.63 200.93 358.63 200.93 350.22 200.93 350.22 209.34 358.61 209.34 358.61 209.34 358.61 217.63 350.22 217.63 350.22 217.75 350.22 226.04 358.63 226.04 358.63 217.75 358.63 217.63" style="fill:#BA68C8"></polygon><rect x="367.04" y="226.04" width="8.41" height="8.41" style="fill:#ebebeb"></rect><rect x="350.22" y="226.04" width="8.41" height="8.41" style="fill:#ebebeb"></rect><rect x="383.85" y="226.04" width="8.41" height="8.41" style="fill:#ebebeb"></rect><rect x="375.45" y="226.04" width="8.41" height="8.41" style="fill:#BA68C8"></rect><rect x="392.26" y="226.04" width="7.4" height="8.41" style="fill:#BA68C8"></rect><rect x="358.63" y="226.04" width="8.41" height="8.41" style="fill:#BA68C8"></rect><rect x="342.46" y="226.04" width="7.76" height="8.41" style="fill:#BA68C8"></rect><rect x="375.45" y="335.31" width="8.41" height="8.29" style="fill:#ebebeb"></rect><polygon points="367.02 343.6 367.02 343.72 367.04 343.72 367.04 352.01 375.44 352.01 375.44 343.72 375.44 343.6 367.04 343.6 367.04 335.31 358.63 335.31 358.63 343.6 367.02 343.6" style="fill:#ebebeb"></polygon><polygon points="399.66 343.6 399.66 335.19 392.26 335.19 392.26 335.26 392.26 343.6 399.66 343.6" style="fill:#ebebeb"></polygon><rect x="342.46" y="335.31" width="7.76" height="8.41" style="fill:#ebebeb"></rect><polygon points="392.26 343.6 392.26 335.26 383.85 335.26 383.85 335.31 383.85 343.6 392.26 343.6" style="fill:#BA68C8"></polygon><polygon points="375.44 343.6 375.44 335.31 367.04 335.31 367.04 335.31 367.04 343.6 375.44 343.6" style="fill:#BA68C8"></polygon><rect x="350.22" y="343.72" width="8.39" height="8.29" style="fill:#ebebeb"></rect><polygon points="383.85 343.6 383.85 343.72 383.85 352.01 392.26 352.01 392.26 343.6 383.85 343.6" style="fill:#ebebeb"></polygon><polygon points="383.85 343.6 375.44 343.6 375.44 343.72 375.44 352.01 383.85 352.01 383.85 343.72 383.85 343.6" style="fill:#BA68C8"></polygon><rect x="392.26" y="343.6" width="7.4" height="8.41" style="fill:#BA68C8"></rect><rect x="342.46" y="343.72" width="7.76" height="8.29" style="fill:#BA68C8"></rect><rect x="375.45" y="352.01" width="8.41" height="8.41" style="fill:#ebebeb"></rect><polygon points="367.02 352.01 358.63 352.01 358.63 352.13 358.63 360.42 367.04 360.42 367.04 352.01 367.02 352.01" style="fill:#ebebeb"></polygon><rect x="392.26" y="352.01" width="7.4" height="8.41" style="fill:#ebebeb"></rect><polygon points="350.22 352.01 342.46 352.01 342.46 360.42 350.22 360.42 350.22 352.13 350.22 352.01" style="fill:#ebebeb"></polygon><rect x="383.85" y="352.01" width="8.41" height="8.41" style="fill:#BA68C8"></rect><rect x="367.04" y="352.01" width="8.41" height="8.41" style="fill:#BA68C8"></rect><polygon points="358.63 352.01 367.02 352.01 367.02 343.72 367.02 343.6 358.63 343.6 358.63 335.31 358.63 335.31 350.22 335.31 350.22 343.72 358.61 343.72 358.61 343.72 358.61 352.01 350.22 352.01 350.22 352.13 350.22 360.42 358.63 360.42 358.63 352.13 358.63 352.01" style="fill:#BA68C8"></polygon><rect x="367.04" y="360.42" width="8.41" height="4.31" style="fill:#ebebeb"></rect><rect x="350.22" y="360.42" width="8.41" height="4.31" style="fill:#ebebeb"></rect><rect x="383.85" y="360.42" width="8.41" height="4.31" style="fill:#ebebeb"></rect><rect x="375.45" y="360.42" width="8.41" height="4.31" style="fill:#BA68C8"></rect><rect x="392.26" y="360.42" width="7.4" height="4.31" style="fill:#BA68C8"></rect><rect x="358.63" y="360.42" width="8.41" height="4.31" style="fill:#BA68C8"></rect><rect x="342.46" y="360.42" width="7.76" height="4.31" style="fill:#BA68C8"></rect><polygon points="383.85 301.9 383.85 301.43 375.44 301.43 375.44 301.9 375.44 309.71 383.85 309.71 383.85 301.9" style="fill:#ebebeb"></polygon><polygon points="350.22 301.43 342.46 301.43 342.46 309.83 350.22 309.83 350.22 301.9 350.22 301.43" style="fill:#ebebeb"></polygon><polygon points="375.44 309.71 367.04 309.71 367.04 301.9 367.04 301.43 358.63 301.43 358.63 301.9 358.63 309.71 367.02 309.71 367.02 309.83 367.04 309.83 367.04 318.12 375.44 318.12 375.44 309.83 375.44 309.71" style="fill:#ebebeb"></polygon><rect x="350.22" y="309.83" width="8.39" height="8.29" style="fill:#ebebeb"></rect><polygon points="383.85 309.71 383.85 309.83 383.85 318.12 392.26 318.12 392.26 309.71 383.85 309.71" style="fill:#ebebeb"></polygon><polygon points="383.85 309.71 375.44 309.71 375.44 309.83 375.44 318.12 383.85 318.12 383.85 309.83 383.85 309.71" style="fill:#BA68C8"></polygon><rect x="392.26" y="309.71" width="7.4" height="8.41" style="fill:#BA68C8"></rect><rect x="342.46" y="309.83" width="7.76" height="8.29" style="fill:#BA68C8"></rect><rect x="375.45" y="318.12" width="8.41" height="8.41" style="fill:#ebebeb"></rect><polygon points="367.02 318.12 358.63 318.12 358.63 318.24 358.63 326.53 367.04 326.53 367.04 318.12 367.02 318.12" style="fill:#ebebeb"></polygon><rect x="392.26" y="318.12" width="7.4" height="8.41" style="fill:#ebebeb"></rect><polygon points="350.22 318.12 342.46 318.12 342.46 326.53 350.22 326.53 350.22 318.24 350.22 318.12" style="fill:#ebebeb"></polygon><rect x="383.85" y="318.12" width="8.41" height="8.41" style="fill:#BA68C8"></rect><rect x="367.04" y="318.12" width="8.41" height="8.41" style="fill:#BA68C8"></rect><polygon points="358.63 318.12 367.02 318.12 367.02 309.83 367.02 309.71 358.63 309.71 358.63 301.9 358.63 301.43 367.04 301.43 367.04 301.9 367.04 309.71 375.44 309.71 375.44 301.9 375.44 301.43 367.04 301.43 367.04 293.49 358.63 293.49 358.63 301.43 350.22 301.43 350.22 301.9 350.22 309.83 358.61 309.83 358.61 309.83 358.61 318.12 350.22 318.12 350.22 318.24 350.22 326.53 358.63 326.53 358.63 318.24 358.63 318.12" style="fill:#BA68C8"></polygon><rect x="367.04" y="326.53" width="8.41" height="8.41" style="fill:#ebebeb"></rect><rect x="350.22" y="326.53" width="8.41" height="8.41" style="fill:#ebebeb"></rect><rect x="383.85" y="326.53" width="8.41" height="8.41" style="fill:#ebebeb"></rect><rect x="375.45" y="326.53" width="8.41" height="8.41" style="fill:#BA68C8"></rect><rect x="392.26" y="326.53" width="7.4" height="8.41" style="fill:#BA68C8"></rect><rect x="358.63" y="326.53" width="8.41" height="8.41" style="fill:#BA68C8"></rect><rect x="342.46" y="326.53" width="7.76" height="8.41" style="fill:#BA68C8"></rect><path d="M342.46,167.25c.43,0,.78,64,.78,142.89s-.35,142.9-.78,142.9-.78-64-.78-142.9S342,167.25,342.46,167.25Z" style="fill:#263238"></path></g></svg>