<svg xmlns="http://www.w3.org/2000/svg" viewBox="0 0 500 500"><g id="freepik--Floor--inject-5"><g id="freepik--floor--inject-5"><ellipse id="freepik--floor--inject-5" cx="250" cy="332.5" rx="229.39" ry="132.44" style="fill:#909CF9"></ellipse><path d="M412.2,426.15c-89.58,51.72-234.82,51.72-324.41,0s-89.58-135.58,0-187.3c46-26.56,106.68-39.48,167-38.76l1.18,0,2.39,0c.4,0,.8,0,1.2,0a385.16,385.16,0,0,1,58,5.72l1.93.35,3.72.7,1.85.36c31.85,6.35,61.75,16.86,87.17,31.54C501.78,290.57,501.78,374.43,412.2,426.15Z" style="opacity:0.1"></path><path d="M474.18,304.39,201.31,461.93c-41.6-5.19-81.18-17.11-113.52-35.78a175.67,175.67,0,0,1-36.67-27.6L265.57,274.74l.93-.54,75-43.28.93-.54,22-12.7a260.16,260.16,0,0,1,47.8,21.17C444.53,257.52,465.19,280.37,474.18,304.39Z" style="fill:#455a64"></path><g id="freepik--finish-line--inject-5"><polygon points="171.87 328.83 301.86 403.88 314.04 396.85 184.06 321.8 171.87 328.83" style="fill:#455a64"></polygon><polygon points="175.94 331.18 179.99 328.83 184.06 331.18 179.99 333.52 175.94 331.18" style="fill:#e6e6e6"></polygon><polygon points="184.06 335.87 188.12 333.52 192.18 335.87 188.12 338.21 184.06 335.87" style="fill:#e6e6e6"></polygon><polygon points="192.18 340.56 196.24 338.21 200.3 340.56 196.24 342.91 192.18 340.56" style="fill:#e6e6e6"></polygon><polygon points="200.3 345.25 204.36 342.91 208.42 345.25 204.36 347.6 200.3 345.25" style="fill:#e6e6e6"></polygon><polygon points="208.42 349.94 212.48 347.6 216.54 349.94 212.48 352.29 208.42 349.94" style="fill:#e6e6e6"></polygon><polygon points="216.54 354.63 220.6 352.29 224.66 354.63 220.6 356.98 216.54 354.63" style="fill:#e6e6e6"></polygon><polygon points="224.67 359.32 228.72 356.98 232.79 359.32 228.72 361.67 224.67 359.32" style="fill:#e6e6e6"></polygon><polygon points="232.79 364.01 236.85 361.67 240.91 364.01 236.85 366.36 232.79 364.01" style="fill:#e6e6e6"></polygon><polygon points="240.91 368.7 244.97 366.36 249.03 368.71 244.97 371.05 240.91 368.7" style="fill:#e6e6e6"></polygon><polygon points="249.03 373.4 253.09 371.05 257.15 373.4 253.09 375.74 249.03 373.4" style="fill:#e6e6e6"></polygon><polygon points="257.15 378.09 261.21 375.74 265.27 378.09 261.21 380.43 257.15 378.09" style="fill:#e6e6e6"></polygon><polygon points="265.27 382.78 269.33 380.43 273.39 382.78 269.33 385.12 265.27 382.78" style="fill:#e6e6e6"></polygon><polygon points="273.4 387.47 277.45 385.12 281.52 387.47 277.45 389.81 273.4 387.47" style="fill:#e6e6e6"></polygon><polygon points="281.52 392.16 285.58 389.81 289.64 392.16 285.58 394.5 281.52 392.16" style="fill:#e6e6e6"></polygon><polygon points="289.64 396.85 293.7 394.5 297.76 396.85 293.7 399.19 289.64 396.85" style="fill:#e6e6e6"></polygon><polygon points="297.76 401.54 301.82 399.19 305.88 401.54 301.82 403.89 297.76 401.54" style="fill:#e6e6e6"></polygon><polygon points="184.08 326.49 188.13 324.14 192.2 326.49 188.13 328.83 184.08 326.49" style="fill:#e6e6e6"></polygon><polygon points="192.2 331.18 196.25 328.83 200.32 331.18 196.25 333.52 192.2 331.18" style="fill:#e6e6e6"></polygon><polygon points="200.32 335.87 204.38 333.52 208.44 335.87 204.38 338.21 200.32 335.87" style="fill:#e6e6e6"></polygon><polygon points="208.44 340.56 212.5 338.21 216.56 340.56 212.5 342.9 208.44 340.56" style="fill:#e6e6e6"></polygon><polygon points="216.56 345.25 220.62 342.9 224.68 345.25 220.62 347.6 216.56 345.25" style="fill:#e6e6e6"></polygon><polygon points="224.68 349.94 228.74 347.6 232.8 349.94 228.74 352.29 224.68 349.94" style="fill:#e6e6e6"></polygon><polygon points="232.81 354.63 236.86 352.29 240.93 354.63 236.86 356.98 232.81 354.63" style="fill:#e6e6e6"></polygon><polygon points="240.93 359.32 244.99 356.98 249.05 359.32 244.99 361.67 240.93 359.32" style="fill:#e6e6e6"></polygon><polygon points="249.05 364.01 253.11 361.67 257.17 364.01 253.11 366.36 249.05 364.01" style="fill:#e6e6e6"></polygon><polygon points="257.17 368.7 261.23 366.36 265.29 368.7 261.23 371.05 257.17 368.7" style="fill:#e6e6e6"></polygon><polygon points="265.29 373.39 269.35 371.05 273.41 373.39 269.35 375.74 265.29 373.39" style="fill:#e6e6e6"></polygon><polygon points="273.41 378.08 277.47 375.74 281.53 378.08 277.47 380.43 273.41 378.08" style="fill:#e6e6e6"></polygon><polygon points="281.54 382.78 285.59 380.43 289.66 382.78 285.59 385.12 281.54 382.78" style="fill:#e6e6e6"></polygon><polygon points="289.66 387.47 293.72 385.12 297.78 387.47 293.72 389.81 289.66 387.47" style="fill:#e6e6e6"></polygon><polygon points="297.78 392.16 301.84 389.81 305.9 392.16 301.84 394.5 297.78 392.16" style="fill:#e6e6e6"></polygon><polygon points="305.9 396.85 309.96 394.5 314.02 396.85 309.96 399.19 305.9 396.85" style="fill:#e6e6e6"></polygon><polygon points="175.95 326.49 180.01 324.14 184.07 326.49 180.01 328.83 175.95 326.49" style="fill:#e6e6e6"></polygon><polygon points="184.07 331.18 188.13 328.83 192.19 331.18 188.13 333.52 184.07 331.18" style="fill:#e6e6e6"></polygon><polygon points="192.19 335.87 196.25 333.52 200.31 335.87 196.25 338.21 192.19 335.87" style="fill:#e6e6e6"></polygon><polygon points="200.32 340.56 204.37 338.22 208.44 340.56 204.37 342.91 200.32 340.56" style="fill:#e6e6e6"></polygon><polygon points="208.44 345.25 212.5 342.91 216.56 345.25 212.5 347.6 208.44 345.25" style="fill:#e6e6e6"></polygon><polygon points="216.56 349.94 220.62 347.6 224.68 349.94 220.62 352.29 216.56 349.94" style="fill:#e6e6e6"></polygon><polygon points="224.68 354.63 228.74 352.29 232.8 354.63 228.74 356.98 224.68 354.63" style="fill:#e6e6e6"></polygon><polygon points="232.8 359.32 236.86 356.98 240.92 359.32 236.86 361.67 232.8 359.32" style="fill:#e6e6e6"></polygon><polygon points="240.93 364.01 244.98 361.67 249.04 364.01 244.98 366.36 240.93 364.01" style="fill:#e6e6e6"></polygon><polygon points="249.05 368.71 253.1 366.36 257.17 368.71 253.1 371.05 249.05 368.71" style="fill:#e6e6e6"></polygon><polygon points="257.17 373.4 261.23 371.05 265.29 373.4 261.23 375.74 257.17 373.4" style="fill:#e6e6e6"></polygon><polygon points="265.29 378.09 269.35 375.74 273.41 378.09 269.35 380.43 265.29 378.09" style="fill:#e6e6e6"></polygon><polygon points="273.41 382.78 277.47 380.43 281.53 382.78 277.47 385.12 273.41 382.78" style="fill:#e6e6e6"></polygon><polygon points="281.53 387.47 285.59 385.12 289.65 387.47 285.59 389.81 281.53 387.47" style="fill:#e6e6e6"></polygon><polygon points="289.65 392.16 293.71 389.81 297.77 392.16 293.71 394.5 289.65 392.16" style="fill:#e6e6e6"></polygon><polygon points="297.78 396.85 301.83 394.5 305.9 396.85 301.83 399.19 297.78 396.85" style="fill:#e6e6e6"></polygon><polygon points="220.58 305.38 224.66 303.03 342.45 371.05 338.38 373.4 220.58 305.38" style="fill:#f5f5f5"></polygon><path d="M238.38,321.15c.23.14.33.3.3.47s-.19.33-.47.44l-2.78,1a2.26,2.26,0,0,1-1,.14,2,2,0,0,1-.91-.23l-10.2-5.89-7.55,2.81,9.56,5.52c.24.13.34.29.31.47s-.19.32-.47.43l-2.75,1a3.12,3.12,0,0,1-1,.12,1.93,1.93,0,0,1-.91-.24L211,321.73l-8.89,3.32a2.28,2.28,0,0,1-1,.14,2.14,2.14,0,0,1-.92-.23l-2.59-1.5c-.23-.14-.33-.29-.3-.47s.19-.32.46-.43l25.07-9.38a2.28,2.28,0,0,1,1-.14,2.06,2.06,0,0,1,.91.23Z" style="fill:#f5f5f5"></path><path d="M218.36,335.44c-.23-.13-.33-.29-.3-.47s.18-.32.46-.43l25.07-9.38a2.26,2.26,0,0,1,1-.14,2.09,2.09,0,0,1,.91.23l2.59,1.5c.24.13.34.29.31.47s-.19.32-.47.43L222.84,337a2.47,2.47,0,0,1-1,.14,2,2,0,0,1-.91-.24Z" style="fill:#f5f5f5"></path><path d="M243.36,349.87c-.36-.21-.52-.41-.48-.62a2.64,2.64,0,0,1,.13-.47l7.26-11.57-16.47,6.15a2.42,2.42,0,0,1-1,.14,2.06,2.06,0,0,1-.91-.23l-2.59-1.5c-.24-.13-.34-.29-.31-.47s.19-.32.47-.43l25.06-9.38a2.31,2.31,0,0,1,1-.14,2.13,2.13,0,0,1,.91.23l1.85,1.07c.36.21.53.42.5.62a1.11,1.11,0,0,1-.15.44l-7.22,11.66,16.43-6.2a2.31,2.31,0,0,1,1-.14,2,2,0,0,1,.91.23l2.59,1.49q.35.21.3.48c0,.17-.19.32-.46.43l-25,9.4a2.43,2.43,0,0,1-1,.13,1.93,1.93,0,0,1-.91-.23Z" style="fill:#f5f5f5"></path><path d="M253.59,355.78c-.23-.13-.33-.29-.3-.47s.18-.32.46-.43l25.07-9.38a2.26,2.26,0,0,1,1-.14,2.09,2.09,0,0,1,.91.23l2.59,1.5c.24.13.34.29.31.47s-.19.32-.47.43l-25.06,9.38a2.47,2.47,0,0,1-1,.14,2,2,0,0,1-.91-.24Z" style="fill:#f5f5f5"></path><path d="M298.45,355.48a10.6,10.6,0,0,1,3,2.4,4.69,4.69,0,0,1,1.08,2.29,2.59,2.59,0,0,1-.48,1.92,3.89,3.89,0,0,1-1.66,1.31,2.15,2.15,0,0,1-1,.15,1.91,1.91,0,0,1-.89-.24L296.28,362c-.36-.21-.56-.4-.58-.57a.72.72,0,0,1,.19-.54,1.58,1.58,0,0,0,.23-1.48c-.17-.55-.9-1.2-2.18-1.93a11.44,11.44,0,0,0-3.72-1.36,6.5,6.5,0,0,0-3.5.18,2.31,2.31,0,0,0-1.15.72.94.94,0,0,0,0,1,5.13,5.13,0,0,0,1.11,1.4c.55.54,1.26,1.21,2.14,2,1.89,1.74,2.73,3.19,2.49,4.37s-1.34,2.15-3.32,2.9a15.62,15.62,0,0,1-3.6.93,16.47,16.47,0,0,1-3.92.07,19.07,19.07,0,0,1-4.23-.95,26.51,26.51,0,0,1-4.59-2.13,14.43,14.43,0,0,1-2.88-2.16,6.46,6.46,0,0,1-1.59-2.37,2.87,2.87,0,0,1,.06-2.23,3.72,3.72,0,0,1,2.11-1.73,2,2,0,0,1,1-.15,2,2,0,0,1,.9.24l2.23,1.29c.37.21.57.4.61.57a.58.58,0,0,1-.22.54,2.91,2.91,0,0,0-.47.69,1.1,1.1,0,0,0,0,.84,2.67,2.67,0,0,0,.72,1,8.49,8.49,0,0,0,1.77,1.27,18.23,18.23,0,0,0,2,1,11.81,11.81,0,0,0,2.16.7,10.35,10.35,0,0,0,2.09.25,5.42,5.42,0,0,0,1.9-.33c.58-.21.89-.47.95-.78a1.62,1.62,0,0,0-.42-1.15,12.25,12.25,0,0,0-1.47-1.58c-.65-.61-1.39-1.33-2.22-2.15q-2.26-2.24-1.76-3.86t3.65-2.84a15.85,15.85,0,0,1,7.51-1A20.35,20.35,0,0,1,298.45,355.48Z" style="fill:#f5f5f5"></path><path d="M330.48,374.35c.24.13.34.29.31.47s-.19.32-.47.43l-25.06,9.38a2.31,2.31,0,0,1-1,.14,2.13,2.13,0,0,1-.91-.23l-2.59-1.5c-.23-.14-.33-.29-.3-.47s.19-.32.46-.43l10.23-3.84-9.65-5.58-10.23,3.84a2.31,2.31,0,0,1-1,.14,2,2,0,0,1-.91-.23L286.81,375c-.23-.14-.34-.29-.32-.47s.18-.32.48-.44L312,364.69a2.26,2.26,0,0,1,1-.13,1.82,1.82,0,0,1,.91.23l2.59,1.49c.24.14.34.29.31.47s-.19.32-.47.44l-10,3.72,9.65,5.58,10-3.73a2.26,2.26,0,0,1,1-.14,2.06,2.06,0,0,1,.91.23Z" style="fill:#f5f5f5"></path></g></g></g><g id="freepik--Shadow--inject-5"><polygon id="freepik--shadow--inject-5" points="50 276 137.46 225.5 224.93 276 137.46 326.49 50 276" style="opacity:0.2"></polygon></g><g id="freepik--Character--inject-5"><g id="freepik--Tower--inject-5"><path d="M129.6,245.23V315.5a2.83,2.83,0,0,0,1.67,2.33,8.92,8.92,0,0,0,8.08,0A2.83,2.83,0,0,0,141,315.5V245.23Z" style="fill:#b16668"></path><path d="M203.78,203.67v70.27a2.83,2.83,0,0,0,1.67,2.33,8.9,8.9,0,0,0,8.07,0,2.82,2.82,0,0,0,1.68-2.33V203.67Z" style="fill:#b16668"></path><path d="M66.84,203.67v70.27a2.83,2.83,0,0,1-1.67,2.33,8.9,8.9,0,0,1-8.07,0,2.81,2.81,0,0,1-1.67-2.33V203.67Z" style="fill:#b16668"></path><polygon points="50.01 169.36 135.31 120.11 220.61 169.36 135.31 218.61 50.01 169.36" style="fill:#455a64"></polygon><polygon points="50.01 169.36 50.01 211.57 135.31 260.82 135.31 218.61 50.01 169.36" style="fill:#263238"></polygon><polygon points="220.61 169.36 220.61 211.57 135.31 260.82 135.31 218.61 220.61 169.36" style="fill:#37474f"></polygon><polygon points="220.61 169.36 220.61 211.57 135.31 260.82 135.31 218.61 220.61 169.36" style="fill:#37474f;opacity:0.1"></polygon><polygon points="135.31 124.8 212.49 169.36 135.31 213.92 58.13 169.36 135.31 124.8" style="fill:#455a64"></polygon><polygon points="135.31 124.8 212.49 169.36 135.31 213.92 58.13 169.36 135.31 124.8" style="opacity:0.1"></polygon><polygon points="135.31 124.8 135.31 167.01 175.93 190.47 212.49 169.36 135.31 124.8" style="fill:#263238"></polygon><polygon points="58.13 169.36 94.69 190.47 135.31 167.01 135.31 124.8 58.13 169.36" style="fill:#37474f"></polygon></g><g id="freepik--character--inject-5"><path d="M209.38,132.08c-.48-1.47-1.31-1.62-3.72-2.3-1.38-.39-4.08.35-6.14,1.06a16.86,16.86,0,0,1-5.85.92l-14.54-.32s-6.94-13.89-8.39-18.34-4-7.28-5.73-7.12l1.28,19.68s5.11,8.94,6.49,11,2.15,2.64,5.5,2.41c2.4-.17,17.91-1.43,17.91-1.43,2.2,0,7.09,1.57,9.47,0S209.87,133.54,209.38,132.08Z" style="fill:#ffa8a7"></path><path d="M209.06,131.51A4.07,4.07,0,0,0,208,132a1.23,1.23,0,0,1-.25.14,1,1,0,0,1-.24,0,11,11,0,0,0-4,.73,11.49,11.49,0,0,0-1.08.61,2.33,2.33,0,0,0-.95.81,4.1,4.1,0,0,0-.52,1.43,2.16,2.16,0,0,0,.31,1.49,1.69,1.69,0,0,0,1,.71,1.47,1.47,0,0,1,.15-.58,1.1,1.1,0,0,1-.33-.93,1,1,0,0,1,.25-.45s.38-.29.4-.25a.7.7,0,0,1,.15-.67,1.85,1.85,0,0,1,.58-.41,5.45,5.45,0,0,1,1-.45,4.06,4.06,0,0,1,1-.11,4,4,0,0,0,1.55-.35,2.07,2.07,0,0,0,.67-.54,3.8,3.8,0,0,1,.54-.71,1.78,1.78,0,0,1,.43-.23l.65-.28,0,0a3.15,3.15,0,0,0-.22-.49Z" style="fill:#f28f8f"></path><path d="M223.12,123.37c11.51-6.76,17.52-10.19,30.72-17.24a41.12,41.12,0,0,0-.32,8.11,62.1,62.1,0,0,0,2.93,14c2.4,8.09,6.57,15.65,7.39,24.52C252.33,159.56,246.33,163,233.13,170,235.7,153.43,224.28,136.13,223.12,123.37Z" style="fill:#37474f"></path><path d="M228,120.54a37.85,37.85,0,0,0,1,5.88l-4.61,2.78a44.82,44.82,0,0,1-1.25-5.83Z" style="fill:#e6e6e6"></path><path d="M230.61,132.19c.74,2.29,1.16,3.43,2,5.71l-4.4,2.75c-.84-2.28-1.26-3.41-2-5.7Z" style="fill:#e6e6e6"></path><path d="M234.67,143.59c.81,2.28,1.21,3.42,1.9,5.73L232,152.09c-.62-2.31-1-3.45-1.78-5.74Z" style="fill:#e6e6e6"></path><path d="M238,155.11a35.51,35.51,0,0,1,.76,5.92l-5.05,2.86a31.89,31.89,0,0,0-.46-6C235.19,156.8,236.14,156.24,238,155.11Z" style="fill:#e6e6e6"></path><path d="M233.66,123.62a51.75,51.75,0,0,0,1.45,5.8l-4.5,2.77c-.74-2.3-1.08-3.45-1.63-5.77C230.84,125.3,231.77,124.74,233.66,123.62Z" style="fill:#e6e6e6"></path><path d="M237,135.14c.81,2.28,1.24,3.42,2.07,5.7l-4.41,2.75c-.81-2.28-1.24-3.41-2.07-5.69Z" style="fill:#e6e6e6"></path><path d="M241.07,146.55c.74,2.29,1.08,3.44,1.63,5.77l-4.68,2.8a49.17,49.17,0,0,0-1.45-5.8Z" style="fill:#e6e6e6"></path><path d="M243.71,158.19a29.43,29.43,0,0,1,.14,6c-2.09,1.16-3.15,1.74-5.29,2.9a29,29,0,0,0,.22-6.08Z" style="fill:#e6e6e6"></path><path d="M238,114.84a32.07,32.07,0,0,0,.46,6c-1.92,1.12-2.87,1.69-4.75,2.81a35.51,35.51,0,0,1-.76-5.92Z" style="fill:#e6e6e6"></path><path d="M239.66,126.64c.62,2.31,1,3.46,1.78,5.74L237,135.14c-.81-2.28-1.21-3.42-1.9-5.72Z" style="fill:#e6e6e6"></path><path d="M243.48,138.08c.84,2.28,1.26,3.42,2.05,5.7l-4.46,2.77c-.74-2.3-1.16-3.43-2-5.71Z" style="fill:#e6e6e6"></path><path d="M247.3,149.53a43.26,43.26,0,0,1,1.26,5.83l-4.85,2.83a37.52,37.52,0,0,0-1-5.87Z" style="fill:#e6e6e6"></path><path d="M243.25,118a39,39,0,0,0,1,5.87l-4.61,2.79a45.18,45.18,0,0,1-1.25-5.83C240.33,119.68,241.3,119.11,243.25,118Z" style="fill:#e6e6e6"></path><path d="M245.9,129.62c.74,2.29,1.16,3.43,2,5.71l-4.4,2.76c-.83-2.28-1.26-3.42-2-5.7Z" style="fill:#e6e6e6"></path><path d="M250,141c.81,2.28,1.21,3.42,1.89,5.72-1.8,1.11-2.71,1.67-4.54,2.78-.63-2.31-1-3.46-1.78-5.74Z" style="fill:#e6e6e6"></path><path d="M253.31,152.55a34.48,34.48,0,0,1,.75,5.92c-2,1.14-3,1.71-5,2.86a32.07,32.07,0,0,0-.46-6Z" style="fill:#e6e6e6"></path><path d="M248.41,109.06a28.3,28.3,0,0,0-.22,6.08L243.25,118a29.47,29.47,0,0,1-.13-6C245.21,110.8,246.26,110.22,248.41,109.06Z" style="fill:#e6e6e6"></path><path d="M248.94,121.05a51.26,51.26,0,0,0,1.46,5.8l-4.5,2.77a59,59,0,0,1-1.63-5.77Z" style="fill:#e6e6e6"></path><path d="M252.29,132.58c.82,2.28,1.25,3.41,2.08,5.69L250,141c-.81-2.28-1.25-3.42-2.08-5.7Z" style="fill:#e6e6e6"></path><path d="M256.35,144a59,59,0,0,1,1.63,5.77c-1.85,1.12-2.79,1.68-4.67,2.8a51.26,51.26,0,0,0-1.46-5.8Z" style="fill:#e6e6e6"></path><path d="M253.24,112.27a32.07,32.07,0,0,0,.46,6l-4.76,2.81a35.52,35.52,0,0,1-.75-5.91Z" style="fill:#e6e6e6"></path><path d="M255,124.07c.62,2.32,1,3.46,1.78,5.75-1.78,1.1-2.67,1.65-4.43,2.76-.82-2.28-1.21-3.43-1.9-5.73Z" style="fill:#e6e6e6"></path><path d="M258.77,135.52c.83,2.28,1.26,3.41,2,5.7L256.35,144c-.74-2.29-1.15-3.43-2-5.71Z" style="fill:#e6e6e6"></path><path d="M262.59,147a43.7,43.7,0,0,1,1.25,5.84c-1.92,1.12-2.88,1.69-4.84,2.82a40.47,40.47,0,0,0-1-5.87C259.84,148.63,260.76,148.08,262.59,147Z" style="fill:#e6e6e6"></path><path d="M195.9,138.73a.6.6,0,0,1-.59-.29.59.59,0,0,1,.22-.8l60-33.56a.57.57,0,0,1,.79.22.59.59,0,0,1-.22.8l-60,33.56A.48.48,0,0,1,195.9,138.73Z" style="fill:#37474f"></path><path d="M196.8,131.88c2.41-.4,3.67-1.45,5.9-1.43a6.34,6.34,0,0,1,2.47.5l2.52,1.14a.25.25,0,0,1,.12.08.28.28,0,0,1,0,.18,1.4,1.4,0,0,1-.91,1c-1.59.69-3.44-.16-5.13.16a12.72,12.72,0,0,0-2.14.77,5.32,5.32,0,0,1-2.49.57c-1-.17-.47-1-.38-1.66C196.81,133.12,196.75,131.89,196.8,131.88Z" style="fill:#ffa8a7"></path><path d="M169.46,132.3l-8.11-15.9,2.27-10.8a6,6,0,0,1,4,1.34c1.54,1.26,2.78,3.31,4.31,7,1.2,2.93,7.34,17.15,7.34,17.15l11.9.6s1.75,3.66-.79,6.42c0,0-12.56,1.13-14.42,1.33s-2.14-.15-3.26-1.63S169.46,132.3,169.46,132.3Z" style="fill:#909CF9"></path><path d="M169.46,132.3l-8.11-15.9,2.27-10.8a6,6,0,0,1,4,1.34c1.54,1.26,2.78,3.31,4.31,7,1.2,2.93,7.34,17.15,7.34,17.15l11.9.6s1.75,3.66-.79,6.42c0,0-12.56,1.13-14.42,1.33s-2.14-.15-3.26-1.63S169.46,132.3,169.46,132.3Z" style="opacity:0.35000000000000003"></path><polygon points="138.24 223.92 143.43 223.92 144.12 214.93 138.24 216.36 138.24 223.92" style="fill:#ffa8a7"></polygon><path d="M150.39,232.21a1.89,1.89,0,0,1-.06,1.43,5.17,5.17,0,0,1-3.7,1.62,8.69,8.69,0,0,1-5.23-.91,3.83,3.83,0,0,1-2-3c-.12-1.23,0-2.26-.55-3.2s-1.66-2-1.81-2.45a5.63,5.63,0,0,1,.08-2.29Z" style="fill:#263238"></path><path d="M144.5,221.54a4.94,4.94,0,0,0,.25,1.36,12.44,12.44,0,0,0,1.32,2.69,10.2,10.2,0,0,0,.89,1.26c.65.77,1.46,1.41,2.15,2.15a4.41,4.41,0,0,1,1.33,2.64c.09,1.68-1.74,2.25-3.15,2.5a10.28,10.28,0,0,1-4.58-.23,4.2,4.2,0,0,1-3.08-3.35c-.08-.47,0-.95-.11-1.42a6.59,6.59,0,0,0-1.31-2.95,8.57,8.57,0,0,1-1-1.6,5,5,0,0,1,.19-3.25c.24-.9.52-1.91.84-1.83,0,.47,0,.51.33.83s.44,1,.88,1.35a6.88,6.88,0,0,1-.31-1.2.65.65,0,0,1,.1-.47,1.25,1.25,0,0,1,.51-.28,11.08,11.08,0,0,1,2.05-.47,6.39,6.39,0,0,1,2,0,.88.88,0,0,1,.5.29,1,1,0,0,1,.18.58C144.51,220.39,144.49,221.09,144.5,221.54Z" style="fill:#909CF9"></path><path d="M144.5,221.54a4.94,4.94,0,0,0,.25,1.36,12.44,12.44,0,0,0,1.32,2.69,10.2,10.2,0,0,0,.89,1.26c.65.77,1.46,1.41,2.15,2.15a4.41,4.41,0,0,1,1.33,2.64c.09,1.68-1.74,2.25-3.15,2.5a10.28,10.28,0,0,1-4.58-.23,4.2,4.2,0,0,1-3.08-3.35c-.08-.47,0-.95-.11-1.42a6.59,6.59,0,0,0-1.31-2.95,8.57,8.57,0,0,1-1-1.6,5,5,0,0,1,.19-3.25c.24-.9.52-1.91.84-1.83,0,.47,0,.51.33.83s.44,1,.88,1.35a6.88,6.88,0,0,1-.31-1.2.65.65,0,0,1,.1-.47,1.25,1.25,0,0,1,.51-.28,11.08,11.08,0,0,1,2.05-.47,6.39,6.39,0,0,1,2,0,.88.88,0,0,1,.5.29,1,1,0,0,1,.18.58C144.51,220.39,144.49,221.09,144.5,221.54Z" style="opacity:0.5"></path><path d="M146.29,225.94a4.82,4.82,0,0,0-2.8-.39,4.68,4.68,0,0,0-2.18.76.5.5,0,0,1-.65-.05h0a.46.46,0,0,1,.05-.71,4.71,4.71,0,0,1,2.46-.91,4.85,4.85,0,0,1,2.45.19S146.48,225.38,146.29,225.94Z" style="fill:#263238"></path><path d="M147.74,227.67a6.08,6.08,0,0,0-3.11-.32,4.29,4.29,0,0,0-2.12.81.51.51,0,0,1-.65,0h0a.48.48,0,0,1,0-.72,5,5,0,0,1,2.51-1c1.9-.13,2.39.25,2.39.25A1.57,1.57,0,0,1,147.74,227.67Z" style="fill:#263238"></path><path d="M142.42,222.83a4.58,4.58,0,0,1,2.37.2c.34.18.56.71.34.84a4.43,4.43,0,0,0-2.11-.29,6.08,6.08,0,0,0-2,.57c-.16.07-.36.17-.52.26a.45.45,0,0,1-.63-.19h0a.42.42,0,0,1,.17-.54A6,6,0,0,1,142.42,222.83Z" style="fill:#263238"></path><polygon points="156.62 215.04 162.13 212.55 162.13 204.69 155.97 204.61 156.16 210.71 156.62 215.04" style="fill:#ffa8a7"></polygon><path d="M174.08,220.4a2.07,2.07,0,0,1-.08,1.5c-.21.44-2.81,1.51-5.9,1.3a11.73,11.73,0,0,1-6.1-2,7.4,7.4,0,0,0-3.93-1c-1.54-.09-3.55-.85-3.88-1.57a3.36,3.36,0,0,1,.05-2Z" style="fill:#263238"></path><path d="M161.6,210.76l.24,0a1,1,0,0,1,.41,0,.71.71,0,0,1,.38.26,7.57,7.57,0,0,1,.79,1.23,9.08,9.08,0,0,0,3.5,2.73c1,.55,2,1,3,1.44a24.51,24.51,0,0,1,3.31,1.33,2.23,2.23,0,0,1,0,3.68,10.9,10.9,0,0,1-7.63.52c-1.79-.5-3.78-2.42-6.13-2.6-1.5-.12-4.33-.54-5.29-1.67-.36-.51.12-2.1.51-3.48s.93-3.86,1.43-3.73c.07,1,1.36,1.16,2.14,1.15A17.33,17.33,0,0,0,161.6,210.76Z" style="fill:#909CF9"></path><path d="M161.6,210.76l.24,0a1,1,0,0,1,.41,0,.71.71,0,0,1,.38.26,7.57,7.57,0,0,1,.79,1.23,9.08,9.08,0,0,0,3.5,2.73c1,.55,2,1,3,1.44a24.51,24.51,0,0,1,3.31,1.33,2.23,2.23,0,0,1,0,3.68,10.9,10.9,0,0,1-7.63.52c-1.79-.5-3.78-2.42-6.13-2.6-1.5-.12-4.33-.54-5.29-1.67-.36-.51.12-2.1.51-3.48s.93-3.86,1.43-3.73c.07,1,1.36,1.16,2.14,1.15A17.33,17.33,0,0,0,161.6,210.76Z" style="opacity:0.5"></path><path d="M165.52,214.1a1.41,1.41,0,0,0-1.11-.74,4,4,0,0,0-2.63,1,.56.56,0,0,0,.08.92h0a.54.54,0,0,0,.64-.07A4.29,4.29,0,0,1,165.52,214.1Z" style="fill:#263238"></path><path d="M167.63,215.28a1.58,1.58,0,0,0-1.31-.67,5,5,0,0,0-2.88,1.07.54.54,0,0,0,.08.89h0a.51.51,0,0,0,.61-.07A4.3,4.3,0,0,1,167.63,215.28Z" style="fill:#263238"></path><path d="M170,216.35a1.76,1.76,0,0,0-1.36-.61,4.8,4.8,0,0,0-2.76,1.08.55.55,0,0,0,.08.9h0a.53.53,0,0,0,.61-.08A4.11,4.11,0,0,1,170,216.35Z" style="fill:#263238"></path><path d="M168.11,115.7c.62-5.07-.6-8.59-5.36-10.5l-8.85,0-5.78.1c-3.17,1.7-4.22,5.9-5,8.88a151.63,151.63,0,0,0-4.61,23.38c-1.05,9.78-.94,37.47-.94,37.47a56.39,56.39,0,0,0-.87,11.38c.39,7.44,1.48,31.1,1.48,31.1s2,1.72,5.66.33c0,0,4.52-33.65,5.45-41,.81-6.44,1.94-20.84,1.94-20.84l1.43,17.93a54.49,54.49,0,0,0,0,8.93c.39,3.39,3.41,26.77,3.41,26.77a9.43,9.43,0,0,0,6-.14s1.64-32.17,1.89-35.29c.28-3.55.08-25.81,0-33.59h0C164.72,131.64,166.7,127.2,168.11,115.7Z" style="fill:#909CF9"></path><path d="M168.11,115.7c.62-5.07-.6-8.59-5.36-10.5l-8.85,0-5.78.1c-3.17,1.7-4.22,5.9-5,8.88a151.63,151.63,0,0,0-4.61,23.38c-1.05,9.78-.94,37.47-.94,37.47a56.39,56.39,0,0,0-.87,11.38c.39,7.44,1.48,31.1,1.48,31.1s2,1.72,5.66.33c0,0,4.52-33.65,5.45-41,.81-6.44,1.94-20.84,1.94-20.84l1.43,17.93a54.49,54.49,0,0,0,0,8.93c.39,3.39,3.41,26.77,3.41,26.77a9.43,9.43,0,0,0,6-.14s1.64-32.17,1.89-35.29c.28-3.55.08-25.81,0-33.59h0C164.72,131.64,166.7,127.2,168.11,115.7Z" style="opacity:0.2"></path><path d="M159.8,112.38s-1.77,17.38-4.31,26.55A90.59,90.59,0,0,0,158.78,125C160.29,116,159.8,112.38,159.8,112.38Z" style="opacity:0.15"></path><path d="M140.48,136.58h0a.5.5,0,0,1,.37.67,7.45,7.45,0,0,0-.27,2.34.4.4,0,0,1-.54.43h0a.85.85,0,0,1-.61-.73,7.21,7.21,0,0,1,.29-2.28A.66.66,0,0,1,140.48,136.58Z" style="opacity:0.15"></path><path d="M146.12,138.19h0a.6.6,0,0,1,.44.7c-.12.68-.2,1.46-.27,2.31a.47.47,0,0,1-.61.44h0a.75.75,0,0,1-.55-.73,16,16,0,0,1,.3-2.26A.57.57,0,0,1,146.12,138.19Z" style="opacity:0.15"></path><path d="M152.12,139.13h0a.6.6,0,0,0-.59.59c0,.71-.12,1.48-.21,2.32a.48.48,0,0,0,.52.55h0a.74.74,0,0,0,.67-.61,17.63,17.63,0,0,0,.18-2.27A.57.57,0,0,0,152.12,139.13Z" style="opacity:0.15"></path><path d="M160.37,139.13h0a.5.5,0,0,0-.5.58,7.47,7.47,0,0,1-.22,2.34.41.41,0,0,0,.44.54h0a.87.87,0,0,0,.75-.59,7.21,7.21,0,0,0,.18-2.3A.66.66,0,0,0,160.37,139.13Z" style="opacity:0.15"></path><path d="M151.55,153.07a20.84,20.84,0,0,0,7.22-4.3s-1.39,2.61-5.55,5l-.66,17.35L151.29,156Z" style="opacity:0.15"></path><path d="M157.63,87a7.6,7.6,0,1,0,8.19-7A7.61,7.61,0,0,0,157.63,87Z" style="fill:#263238"></path><path d="M151.68,92a64.72,64.72,0,0,0,1.18,6.85,2.63,2.63,0,0,0,1.41,1.33l.24-4.06Z" style="fill:#263238"></path><path d="M153.89,83.81a2.88,2.88,0,0,0-2.43.64c-1.09,1-.78,4.23.22,7.5l2.29.45Z" style="fill:#263238"></path><path d="M154.66,92.46c-.48.23-1.07-.71-1.6-1.35a2,2,0,0,0-3.41.27c-1.11,1.92.45,4.71,1.88,5.29,2.47,1,3-.6,3-.6l-.54,9.15c1.23,1.62,5.44,2.5,6.12,5.29,1.26-3.06,2.13-1.15,2.14-4.87l.22-2.78a31.11,31.11,0,0,0,3.4.45c1.3,0,2.77-.82,3.75-3.63A33.11,33.11,0,0,0,170.78,87c-.47-6.3-8-7.07-12.57-4.66S154.66,92.46,154.66,92.46Z" style="fill:#ffa8a7"></path><path d="M154.6,93.23c-.2-.11-1-1.55-1.54-2.12-.74-.79.83-7.3.83-7.3a3.12,3.12,0,0,1,1-3.27,6.66,6.66,0,0,1,6.44-1.63c2.26.6,4.57,1.32,6.91.88a26,26,0,0,1,3.49-.6.52.52,0,0,1,.39.09.51.51,0,0,1,.11.42,3.62,3.62,0,0,1-.84,2.08l1.46-.32a.41.41,0,0,1,.31,0,.4.4,0,0,1,.11.3,3.47,3.47,0,0,1-1.23,2.72,8,8,0,0,1-5.51,1.75,26,26,0,0,1-8.25-1.16c-.86-.19-1.11.63-1.75,2.87C156,89.92,156.37,94.26,154.6,93.23Z" style="fill:#263238"></path><path d="M153.85,84.33l-2.69-1.73a1.55,1.55,0,0,1,2.18-.53A1.67,1.67,0,0,1,153.85,84.33Z" style="fill:#263238"></path><path d="M162.45,102.86A31.86,31.86,0,0,1,157,100.8a4.8,4.8,0,0,1-1.85-2.15,6.59,6.59,0,0,0,.95,2.44c1,1.44,6.29,2.87,6.29,2.87Z" style="fill:#f28f8f"></path><path d="M162.8,92.09a.83.83,0,1,1-.76-.94A.85.85,0,0,1,162.8,92.09Z" style="fill:#263238"></path><path d="M162.2,89l-1.86.84a1.06,1.06,0,0,1,.53-1.38A1,1,0,0,1,162.2,89Z" style="fill:#263238"></path><path d="M162.05,97.81l1.84.87a1,1,0,0,1-1.34.52A1.06,1.06,0,0,1,162.05,97.81Z" style="fill:#f28f8f"></path><path d="M170.52,90.47l-1.72-1.12a1,1,0,0,1,1.4-.33A1.08,1.08,0,0,1,170.52,90.47Z" style="fill:#263238"></path><path d="M169.63,92.55a.83.83,0,1,1-.76-.94A.86.86,0,0,1,169.63,92.55Z" style="fill:#263238"></path><polygon points="165.17 91.33 164.31 96.32 167.38 96.23 165.17 91.33" style="fill:#f28f8f"></polygon><path d="M160.09,110.51a18.58,18.58,0,0,0-.51-2.73c-.3-1-3.76-2.13-5.47-4.86l.07-1.26s-.39-.43-1.08.71a24.91,24.91,0,0,0-1.42,2.89,10.63,10.63,0,0,0,3.09,5.1c2.64,2.58,3.4,2,3.4,2s.07-3.11.61-3.26S160.09,110.51,160.09,110.51Z" style="fill:#909CF9"></path><path d="M160.09,110.51a18.58,18.58,0,0,0-.51-2.73c-.3-1-3.76-2.13-5.47-4.86l.07-1.26s-.39-.43-1.08.71a24.91,24.91,0,0,0-1.42,2.89,10.63,10.63,0,0,0,3.09,5.1c2.64,2.58,3.4,2,3.4,2s.07-3.11.61-3.26S160.09,110.51,160.09,110.51Z" style="opacity:0.35000000000000003"></path><path d="M160.09,110.51a26.89,26.89,0,0,1,1.26-3.06,13.8,13.8,0,0,0,.92-2.23l.14-1.85a3.06,3.06,0,0,1,.51.72,11.82,11.82,0,0,1,.85,3.72c.11,1.45-.59,3.86-1.32,4.38-1.06.76-.51-2.62-1-3.11S160.09,110.51,160.09,110.51Z" style="fill:#909CF9"></path><path d="M160.09,110.51a26.89,26.89,0,0,1,1.26-3.06,13.8,13.8,0,0,0,.92-2.23l.14-1.85a3.06,3.06,0,0,1,.51.72,11.82,11.82,0,0,1,.85,3.72c.11,1.45-.59,3.86-1.32,4.38-1.06.76-.51-2.62-1-3.11S160.09,110.51,160.09,110.51Z" style="opacity:0.35000000000000003"></path><path d="M126.47,128.35c-.14-1.67,3.38-7,7.55-12.53,7.24-9.67,10-11.4,14.55-10.34l-3.42,11.85-11.31,12.33a81,81,0,0,0,2.93,12.26,3.13,3.13,0,0,0,1.43,1.69c1.79,1,2.53,2.1,3.9,3.42,1.07,1,2,1.26,1.83,1.6a1.69,1.69,0,0,1-2.13.86,12.06,12.06,0,0,1-2.52-1.24,16.46,16.46,0,0,0,2.72,4.1c2.56,2.89,3.79,5-1.12,5.27-3.09.16-6.66-2.27-9.26-9-.75-1.93-2-5-2.68-7.51A57.79,57.79,0,0,1,126.47,128.35Z" style="fill:#ffa8a7"></path><path d="M149.62,105.3s-4.68-1.21-7,.32c-3.47,2.31-11.12,12.62-13,14.91-4.14,5.12-4.88,5.59-3.51,11.45a55.41,55.41,0,0,0,2,7c1.69.58,6.3-.76,7.29-2.54l-1.18-6.5,11.26-11.42S152.69,111.77,149.62,105.3Z" style="fill:#909CF9"></path><path d="M149.62,105.3s-4.68-1.21-7,.32c-3.47,2.31-11.12,12.62-13,14.91-4.14,5.12-4.88,5.59-3.51,11.45a55.41,55.41,0,0,0,2,7c1.69.58,6.3-.76,7.29-2.54l-1.18-6.5,11.26-11.42S152.69,111.77,149.62,105.3Z" style="opacity:0.35000000000000003"></path></g><g id="freepik--Wall--inject-5"><polygon points="216.55 167.01 131.25 216.26 135.31 218.61 220.61 169.36 216.55 167.01" style="fill:#455a64"></polygon><polygon points="220.61 169.36 220.61 211.57 135.31 260.82 135.31 218.61 220.61 169.36" style="fill:#37474f"></polygon><path d="M142,222.45,153,216.07c1.44-.83,2.6-.45,2.6.85a5.19,5.19,0,0,1-2.6,3.84L142,227.14c-1.43.83-2.6.45-2.6-.84A5.22,5.22,0,0,1,142,222.45Z" style="fill:#e0e0e0"></path></g></g><g id="freepik--Obstacle--inject-5"><path d="M304.68,191c-30-17.33-54.35-3.28-54.35,31.38s24.33,76.8,54.35,94.13S359,319.79,359,285.13,334.69,208.33,304.68,191Zm42.65,120.08A22.66,22.66,0,0,1,329,319.65h0c-6.72,0-14.37-2.37-22.13-6.85-28.79-16.62-52.21-57.18-52.21-90.42,0-10.9,2.57-19.87,7.42-25.95a22.66,22.66,0,0,1,18.38-8.57c6.71,0,14.37,2.37,22.13,6.85,28.79,16.62,52.21,57.18,52.21,90.42C354.75,296,352.18,305,347.33,311.08Z" style="fill:#909CF9"></path><path d="M304.68,191c-30-17.33-54.35-3.28-54.35,31.38s24.33,76.8,54.35,94.13S359,319.79,359,285.13,334.69,208.33,304.68,191Zm42.65,120.08A22.66,22.66,0,0,1,329,319.65h0c-6.72,0-14.37-2.37-22.13-6.85-28.79-16.62-52.21-57.18-52.21-90.42,0-10.9,2.57-19.87,7.42-25.95a22.66,22.66,0,0,1,18.38-8.57c6.71,0,14.37,2.37,22.13,6.85,28.79,16.62,52.21,57.18,52.21,90.42C354.75,296,352.18,305,347.33,311.08Z" style="fill:#fff;opacity:0.35000000000000003"></path><g style="opacity:0.1"><path d="M265.57,274.74c9.88,17.54,23.75,32.9,39.11,41.77,8.72,5,17,7.42,24.27,7.42,17.83,0,30.07-14.21,30.07-38.79,0-17.74-6.37-37.43-16.62-54.76l-.93.54C351.63,248.08,358,267.6,358,285.14c0,23.27-11.11,37.72-29,37.72-7.39,0-15.37-2.44-23.74-7.27-15.18-8.77-28.92-24-38.71-41.39Z"></path></g><g style="opacity:0.1"><path d="M319.46,206.25l-1.93-.35c21.5,19.87,37.21,52,37.21,79.23,0,10.9-2.56,19.88-7.41,26A22.7,22.7,0,0,1,329,319.66a36.44,36.44,0,0,1-10.68-1.74,57,57,0,0,1-11.45-5.11c-28.79-16.62-52.21-57.19-52.21-90.43,0-8.84,1.68-16.41,4.92-22.2-.4,0-.8,0-1.2,0-3.15,5.88-4.79,13.46-4.79,22.23,0,33.58,23.66,74.56,52.74,91.35,7.92,4.58,15.76,7,22.67,7a23.69,23.69,0,0,0,19.21-9c5-6.27,7.65-15.47,7.65-26.62C355.81,258.16,340.54,226.41,319.46,206.25Z"></path></g><path d="M339.63,232l-.9.52a119.18,119.18,0,0,0-21.2-26.59l1.91.35A120.9,120.9,0,0,1,339.63,232Z" style="fill:#909CF9"></path><path d="M269.23,272.62l-.91.53c-9.14-16.24-14.78-34.38-14.78-50.77,0-8.77,1.65-16.34,4.79-22.22l1.19,0c-3.22,5.79-4.91,13.36-4.91,22.2C254.61,238.59,260.18,256.55,269.23,272.62Z" style="fill:#909CF9"></path><path d="M342.4,230.38l-.93.54a124.54,124.54,0,0,0-18.28-24l1.84.36A127.22,127.22,0,0,1,342.4,230.38Z" style="fill:#909CF9"></path><path d="M266.5,274.2l-.93.54c-9.44-16.73-15.24-35.44-15.24-52.36,0-8.83,1.59-16.31,4.44-22.28h1.17c-3,6-4.54,13.61-4.54,22.27C251.4,239.11,257.16,257.63,266.5,274.2Z" style="fill:#909CF9"></path><path d="M325,207.31l-1.85-.36a90.66,90.66,0,0,0-19-15c-8.36-4.83-16.35-7.28-23.74-7.28a25.76,25.76,0,0,0-20.88,9.78,31.27,31.27,0,0,0-3.58,5.68l-1.18,0c5.08-10.67,14.21-16.51,25.64-16.51,7.31,0,15.55,2.39,24.28,7.43A92.91,92.91,0,0,1,325,207.31Z" style="fill:#fff;opacity:0.7000000000000001"></path><path d="M319.46,206.25l-1.93-.35a84.69,84.69,0,0,0-15-11.19c-7.76-4.48-15.42-6.85-22.14-6.85A22.72,22.72,0,0,0,262,196.43a26.82,26.82,0,0,0-2.49,3.75c-.4,0-.8,0-1.2,0a27.17,27.17,0,0,1,2.86-4.39,23.7,23.7,0,0,1,19.21-9c6.91,0,14.75,2.42,22.67,7A86.67,86.67,0,0,1,319.46,206.25Z" style="fill:#fff;opacity:0.7000000000000001"></path><g style="opacity:0.5"><path d="M329,322.06h0c-7.24,0-15.1-2.41-23.34-7.17-29.45-17-53.41-58.5-53.41-92.51,0-22.78,10.81-36.93,28.21-36.93,7.24,0,15.09,2.41,23.33,7.17,29.45,17,53.41,58.51,53.41,92.51,0,11.45-2.74,20.95-7.94,27.46A25,25,0,0,1,329,322.06Zm0-.54h0a24.47,24.47,0,0,0,19.84-9.27c5.12-6.41,7.83-15.79,7.83-27.12,0-33.83-23.84-75.12-53.14-92-8.16-4.71-15.93-7.1-23.07-7.1-17.07,0-27.67,13.94-27.67,36.39,0,33.84,23.84,75.13,53.14,92C314,319.13,321.8,321.52,329,321.52Z" style="fill:#fff"></path></g><path d="M339.63,232l-.9.52a119.18,119.18,0,0,0-21.2-26.59l1.91.35A120.9,120.9,0,0,1,339.63,232Z" style="fill:#fafafa;opacity:0.2"></path><path d="M342.4,230.38l-.93.54a124.54,124.54,0,0,0-18.28-24l1.84.36A127.22,127.22,0,0,1,342.4,230.38Z" style="fill:#fafafa;opacity:0.2"></path><path d="M269.23,272.62l-.91.53c-9.14-16.24-14.78-34.38-14.78-50.77,0-8.77,1.65-16.34,4.79-22.22l1.19,0c-3.22,5.79-4.91,13.36-4.91,22.2C254.61,238.59,260.18,256.55,269.23,272.62Z" style="fill:#fafafa;opacity:0.2"></path><path d="M266.5,274.2l-.93.54c-9.44-16.73-15.24-35.44-15.24-52.36,0-8.83,1.59-16.31,4.44-22.28h1.17c-3,6-4.54,13.61-4.54,22.27C251.4,239.11,257.16,257.63,266.5,274.2Z" style="fill:#fafafa;opacity:0.2"></path><path d="M280.41,175.56c9,0,18.51,2.86,28.28,8.5,10.69,6.17,20.71,15.31,29.34,26.11l1.69.41c-8.9-11.38-19.34-21-30.5-27.45-9.93-5.73-19.62-8.64-28.81-8.64-17,0-29.65,9.57-35.53,25.6H246C251.84,184.71,264.08,175.56,280.41,175.56Z" style="fill:#909CF9;opacity:0.1"></path><path d="M257.84,279.2l.91-.52c-10.16-18-16.44-38.13-16.44-56.3A63.16,63.16,0,0,1,246,200.09h-1.16a64.66,64.66,0,0,0-3.64,22.29C241.24,240.72,247.58,261,257.84,279.2Z" style="fill:#fafafa;opacity:0.30000000000000004"></path><path d="M349.23,226.44l.91-.53a143.88,143.88,0,0,0-10.42-15.33l-1.69-.41A141.15,141.15,0,0,1,349.23,226.44Z" style="fill:#fafafa;opacity:0.30000000000000004"></path><path d="M367,285.13c0,13.72-3.49,25.35-10.1,33.63-6.89,8.63-16.57,13.19-28,13.19h0c-9,0-18.52-2.86-28.28-8.5-16.44-9.49-31.31-26-41.92-44.77l-.91.52c10.71,19,25.71,35.6,42.29,45.18,9.93,5.73,19.63,8.64,28.82,8.64h0c11.76,0,21.73-4.7,28.83-13.6,6.76-8.47,10.33-20.33,10.33-34.29,0-19.15-6.9-40.45-18-59.22l-.91.53C360.2,245,367,266.15,367,285.13Z" style="fill:#909CF9;opacity:0.1"></path><path d="M250.72,200.06c5.43-12.72,15.92-20.22,29.69-20.22,8.24,0,17,2.66,26.14,7.92a99.68,99.68,0,0,1,24.67,20.84l1.72.39c-7.76-9.09-16.54-16.78-25.86-22.15s-18.24-8.07-26.67-8.07c-14.41,0-25.34,7.91-30.87,21.29Z" style="fill:#909CF9;opacity:0.30000000000000004"></path><path d="M246.59,222.38a56.77,56.77,0,0,1,4.13-22.32h-1.18a58.4,58.4,0,0,0-4,22.32c0,17.66,6.09,37.22,16,54.72l.91-.53C252.62,259.24,246.59,239.87,246.59,222.38Z" style="fill:#fafafa;opacity:0.5"></path><path d="M331.22,208.6a133.94,133.94,0,0,1,14.35,20l.92-.53a136,136,0,0,0-13.55-19Z" style="fill:#fafafa;opacity:0.5"></path><path d="M362.77,285.13c0,12.74-3.17,23.44-9.17,31S339,327.67,329,327.67h0c-8.24,0-17-2.66-26.14-7.92C287,310.6,272.63,294.7,262.4,276.57l-.91.53c10.32,18.3,24.78,34.34,40.78,43.58,9.27,5.35,18.25,8.06,26.68,8.06h0c10.41,0,19.23-4.14,25.49-12s9.4-18.65,9.4-31.63c0-18.47-6.67-39-17.35-57.11l-.92.53C356.16,246.47,362.77,266.83,362.77,285.13Z" style="fill:#909CF9;opacity:0.30000000000000004"></path></g><g id="freepik--Drones--inject-5"><g id="freepik--color-dron--inject-5"><rect x="335.66" y="117.34" width="4.62" height="3.36" style="fill:#455a64"></rect><polygon points="340.28 120.7 343.18 117.7 343.17 115.69 340.28 117.37 340.28 120.7" style="fill:#37474f"></polygon><polygon points="335.66 120.7 332.76 117.7 332.76 115.69 335.66 117.37 335.66 120.7" style="fill:#37474f"></polygon><path d="M362.82,106c-1.74,0-2.29-11.29-2.29-11.29h4.58S364.56,106,362.82,106" style="fill:#909CF9"></path><path d="M361.2,93.74a3.56,3.56,0,0,1,3.24,0,1,1,0,0,1,0,1.87,3.56,3.56,0,0,1-3.24,0A1,1,0,0,1,361.2,93.74Z" style="fill:#455a64"></path><path d="M313.24,106c1.74,0,2.29-11.29,2.29-11.29H311S311.5,106,313.24,106" style="fill:#909CF9"></path><path d="M314.86,93.74a3.56,3.56,0,0,0-3.24,0,1,1,0,0,0,0,1.87,3.56,3.56,0,0,0,3.24,0A1,1,0,0,0,314.86,93.74Z" style="fill:#455a64"></path><polygon points="313.67 99.66 331.02 113.69 313.67 127.72 315.4 128.72 337.97 117.7 360.53 128.72 362.27 127.72 344.91 113.69 362.27 99.66 360.53 98.66 337.97 109.68 315.4 98.66 313.67 99.66" style="fill:#909CF9"></polygon><polygon points="313.67 99.66 331.02 113.69 313.67 127.72 315.4 128.72 337.97 117.7 360.53 128.72 362.27 127.72 344.91 113.69 362.27 99.66 360.53 98.66 337.97 109.68 315.4 98.66 313.67 99.66" style="opacity:0.6000000000000001"></polygon><polygon points="315.4 126.72 337.97 113.69 360.53 126.72 362.27 125.71 344.91 109.68 362.27 97.66 360.53 96.65 337.97 105.67 315.4 96.65 313.67 97.66 331.02 109.68 313.67 125.71 315.4 126.72" style="fill:#909CF9"></polygon><polygon points="315.4 126.72 337.97 113.69 360.53 126.72 362.27 125.71 344.91 109.68 362.27 97.66 360.53 96.65 337.97 105.67 315.4 96.65 313.67 97.66 331.02 109.68 313.67 125.71 315.4 126.72" style="opacity:0.30000000000000004"></polygon><polygon points="360.53 126.72 360.53 128.72 362.27 127.72 362.27 125.71 360.53 126.72" style="fill:#263238"></polygon><polygon points="337.97 113.69 337.97 117.7 360.53 128.72 360.53 126.72 337.97 113.69" style="fill:#909CF9"></polygon><polygon points="337.97 113.69 337.97 117.7 360.53 128.72 360.53 126.72 337.97 113.69" style="opacity:0.45"></polygon><polygon points="313.67 97.66 331.02 109.68 328.71 111.82 313.67 99.66 313.67 97.66" style="fill:#909CF9"></polygon><polygon points="313.67 97.66 331.02 109.68 328.71 111.82 313.67 99.66 313.67 97.66" style="opacity:0.45"></polygon><polygon points="344.91 109.68 347.22 111.82 362.27 99.66 362.27 97.66 344.91 109.68" style="fill:#909CF9"></polygon><polygon points="344.91 109.68 347.22 111.82 362.27 99.66 362.27 97.66 344.91 109.68" style="opacity:0.6000000000000001"></polygon><rect x="334.5" y="107.85" width="6.94" height="3.67" rx="0.33" style="fill:#455a64"></rect><polygon points="315.4 126.72 315.4 128.72 313.67 127.72 313.67 125.71 315.4 126.72" style="fill:#ebebeb"></polygon><path d="M362.52,136.54c-1.74,0-2.29-11.29-2.29-11.29h4.58s-.55,11.29-2.29,11.29" style="fill:#909CF9"></path><path d="M360.9,124.32a3.56,3.56,0,0,1,3.24,0,1,1,0,0,1,0,1.87,3.56,3.56,0,0,1-3.24,0A1,1,0,0,1,360.9,124.32Z" style="fill:#455a64"></path><path d="M313.42,136.54c1.74,0,2.29-11.29,2.29-11.29h-4.58s.55,11.29,2.29,11.29" style="fill:#909CF9"></path><path d="M315,124.32a3.56,3.56,0,0,0-3.24,0,1,1,0,0,0,0,1.87,3.56,3.56,0,0,0,3.24,0A1,1,0,0,0,315,124.32Z" style="fill:#455a64"></path><path d="M371.45,119.55l-8.93,5.16-8.94-5.16C358.52,116.71,366.52,116.71,371.45,119.55Z" style="fill:#909CF9;opacity:0.30000000000000004"></path><path d="M371.45,129.87l-8.93-5.16,8.93-5.16C376.39,122.4,376.39,127,371.45,129.87Z" style="fill:#909CF9;opacity:0.1"></path><path d="M371.45,129.87c-4.93,2.85-12.93,2.85-17.87,0l8.94-5.16Z" style="fill:#909CF9;opacity:0.30000000000000004"></path><path d="M362.52,124.71l-8.94,5.16c-4.93-2.85-4.93-7.47,0-10.32Z" style="fill:#909CF9;opacity:0.1"></path><path d="M363.84,125.37v-.56h-.44a2,2,0,0,0-1.77,0h-.43v.56h0a.67.67,0,0,0,.39.54,2.1,2.1,0,0,0,1.86,0A.67.67,0,0,0,363.84,125.37Z" style="fill:#909CF9"></path><path d="M363.84,125.37v-.56h-.44a2,2,0,0,0-1.77,0h-.43v.56h0a.67.67,0,0,0,.39.54,2.1,2.1,0,0,0,1.86,0A.67.67,0,0,0,363.84,125.37Z" style="opacity:0.30000000000000004"></path><path d="M363.45,124.27a2,2,0,0,0-1.86,0,.57.57,0,0,0,0,1.08,2.1,2.1,0,0,0,1.86,0A.57.57,0,0,0,363.45,124.27Z" style="fill:#909CF9"></path><path d="M363,124.54a1,1,0,0,0-.92,0c-.26.15-.26.39,0,.53a1,1,0,0,0,.92,0C363.24,124.93,363.24,124.69,363,124.54Z" style="fill:#455a64"></path><path d="M322.35,119.55l-8.93,5.16-8.94-5.16C309.41,116.71,317.41,116.71,322.35,119.55Z" style="fill:#909CF9;opacity:0.30000000000000004"></path><path d="M322.35,129.87l-8.93-5.16,8.93-5.16C327.28,122.4,327.28,127,322.35,129.87Z" style="fill:#909CF9;opacity:0.1"></path><path d="M322.35,129.87c-4.94,2.85-12.94,2.85-17.87,0l8.94-5.16Z" style="fill:#909CF9;opacity:0.30000000000000004"></path><path d="M313.42,124.71l-8.94,5.16c-4.93-2.85-4.93-7.47,0-10.32Z" style="fill:#909CF9;opacity:0.1"></path><path d="M314.73,125.37v-.56h-.43a2,2,0,0,0-1.77,0h-.43v.56h0a.67.67,0,0,0,.38.54,2.12,2.12,0,0,0,1.87,0A.63.63,0,0,0,314.73,125.37Z" style="fill:#909CF9"></path><path d="M314.73,125.37v-.56h-.43a2,2,0,0,0-1.77,0h-.43v.56h0a.67.67,0,0,0,.38.54,2.12,2.12,0,0,0,1.87,0A.63.63,0,0,0,314.73,125.37Z" style="opacity:0.30000000000000004"></path><path d="M314.35,124.27a2.06,2.06,0,0,0-1.87,0,.57.57,0,0,0,0,1.08,2.12,2.12,0,0,0,1.87,0A.57.57,0,0,0,314.35,124.27Z" style="fill:#909CF9"></path><path d="M313.88,124.54a1,1,0,0,0-.93,0c-.25.15-.25.39,0,.53a1,1,0,0,0,.93,0C314.14,124.93,314.14,124.69,313.88,124.54Z" style="fill:#455a64"></path><path d="M371.76,89l-8.94,5.16L353.89,89C358.82,86.1,366.82,86.1,371.76,89Z" style="fill:#909CF9;opacity:0.30000000000000004"></path><path d="M371.76,99.27l-8.94-5.16L371.76,89C376.69,91.8,376.69,96.42,371.76,99.27Z" style="fill:#909CF9;opacity:0.1"></path><path d="M371.76,99.27c-4.94,2.85-12.94,2.85-17.87,0l8.93-5.16Z" style="fill:#909CF9;opacity:0.30000000000000004"></path><path d="M362.82,94.11l-8.93,5.16C349,96.42,349,91.8,353.89,89Z" style="fill:#909CF9;opacity:0.1"></path><path d="M364.14,94.77v-.56h-.44a2,2,0,0,0-1.76,0h-.44v.56h0a.67.67,0,0,0,.39.54,2.1,2.1,0,0,0,1.86,0A.67.67,0,0,0,364.14,94.77Z" style="fill:#909CF9"></path><path d="M364.14,94.77v-.56h-.44a2,2,0,0,0-1.76,0h-.44v.56h0a.67.67,0,0,0,.39.54,2.1,2.1,0,0,0,1.86,0A.67.67,0,0,0,364.14,94.77Z" style="opacity:0.30000000000000004"></path><path d="M363.75,93.67a2,2,0,0,0-1.86,0c-.52.3-.52.78,0,1.07a2,2,0,0,0,1.86,0C364.27,94.45,364.27,94,363.75,93.67Z" style="fill:#909CF9"></path><path d="M363.28,93.94a1,1,0,0,0-.92,0c-.26.15-.26.39,0,.53a1,1,0,0,0,.92,0C363.54,94.33,363.54,94.09,363.28,93.94Z" style="fill:#455a64"></path><path d="M322.18,89l-8.94,5.16L304.31,89C309.24,86.1,317.24,86.1,322.18,89Z" style="fill:#909CF9;opacity:0.30000000000000004"></path><path d="M322.18,99.27l-8.94-5.16L322.18,89C327.11,91.8,327.11,96.42,322.18,99.27Z" style="fill:#909CF9;opacity:0.1"></path><path d="M322.18,99.27c-4.94,2.85-12.94,2.85-17.87,0l8.93-5.16Z" style="fill:#909CF9;opacity:0.30000000000000004"></path><path d="M313.24,94.11l-8.93,5.16c-4.93-2.85-4.93-7.47,0-10.32Z" style="fill:#909CF9;opacity:0.1"></path><path d="M314.56,94.77v-.56h-.43a2,2,0,0,0-1.77,0h-.44v.56h0a.67.67,0,0,0,.39.54,2.1,2.1,0,0,0,1.86,0A.67.67,0,0,0,314.56,94.77Z" style="fill:#909CF9"></path><path d="M314.56,94.77v-.56h-.43a2,2,0,0,0-1.77,0h-.44v.56h0a.67.67,0,0,0,.39.54,2.1,2.1,0,0,0,1.86,0A.67.67,0,0,0,314.56,94.77Z" style="opacity:0.30000000000000004"></path><path d="M314.17,93.67a2,2,0,0,0-1.86,0,.57.57,0,0,0,0,1.07,2,2,0,0,0,1.86,0C314.69,94.45,314.69,94,314.17,93.67Z" style="fill:#909CF9"></path><path d="M313.7,93.94a1,1,0,0,0-.92,0c-.26.15-.26.39,0,.53a1,1,0,0,0,.92,0C314,94.33,314,94.09,313.7,93.94Z" style="fill:#455a64"></path><path d="M338.71,109.25a1.67,1.67,0,0,0-1.48,0,.45.45,0,0,0,0,.86,1.61,1.61,0,0,0,1.48,0A.45.45,0,0,0,338.71,109.25Z" style="fill:#263238"></path></g><g id="freepik--white-dron--inject-5"><rect x="428.69" y="66.63" width="3.9" height="2.83" style="fill:#455a64"></rect><polygon points="432.59 69.47 435.03 66.93 435.03 65.24 432.59 66.65 432.59 69.47" style="fill:#37474f"></polygon><polygon points="428.69 69.47 426.25 66.93 426.25 65.24 428.69 66.65 428.69 69.47" style="fill:#37474f"></polygon><path d="M451.61,57c-1.47,0-1.93-9.52-1.93-9.52h3.86S453.08,57,451.61,57" style="fill:#455a64"></path><path d="M450.24,46.72a3,3,0,0,1,2.73,0,.83.83,0,0,1,0,1.58,3,3,0,0,1-2.73,0A.84.84,0,0,1,450.24,46.72Z" style="fill:#455a64"></path><path d="M409.78,57c1.47,0,1.93-9.52,1.93-9.52h-3.86s.46,9.52,1.93,9.52" style="fill:#455a64"></path><path d="M411.15,46.72a3,3,0,0,0-2.74,0,.84.84,0,0,0,0,1.58,3.07,3.07,0,0,0,2.74,0A.84.84,0,0,0,411.15,46.72Z" style="fill:#455a64"></path><polygon points="410.14 51.71 424.78 63.55 410.14 75.38 411.61 76.23 430.64 66.93 449.68 76.23 451.14 75.38 436.5 63.55 451.14 51.71 449.68 50.87 430.64 60.17 411.61 50.87 410.14 51.71" style="fill:#909CF9"></polygon><polygon points="410.14 51.71 424.78 63.55 410.14 75.38 411.61 76.23 430.64 66.93 449.68 76.23 451.14 75.38 436.5 63.55 451.14 51.71 449.68 50.87 430.64 60.17 411.61 50.87 410.14 51.71" style="fill:#fff;opacity:0.5"></polygon><polygon points="411.61 74.54 430.64 63.55 449.68 74.54 451.14 73.69 436.5 60.17 451.14 50.02 449.68 49.18 430.64 56.78 411.61 49.18 410.14 50.02 424.78 60.17 410.14 73.69 411.61 74.54" style="fill:#909CF9"></polygon><polygon points="411.61 74.54 430.64 63.55 449.68 74.54 451.14 73.69 436.5 60.17 451.14 50.02 449.68 49.18 430.64 56.78 411.61 49.18 410.14 50.02 424.78 60.17 410.14 73.69 411.61 74.54" style="fill:#fff;opacity:0.75"></polygon><polygon points="449.68 74.54 449.68 76.23 451.14 75.38 451.14 73.69 449.68 74.54" style="fill:#263238"></polygon><polygon points="430.64 63.55 430.64 66.93 449.68 76.23 449.68 74.54 430.64 63.55" style="fill:#909CF9"></polygon><polygon points="430.64 63.55 430.64 66.93 449.68 76.23 449.68 74.54 430.64 63.55" style="fill:#fff;opacity:0.65"></polygon><polygon points="410.14 50.02 424.78 60.17 422.83 61.97 410.14 51.71 410.14 50.02" style="fill:#909CF9"></polygon><polygon points="410.14 50.02 424.78 60.17 422.83 61.97 410.14 51.71 410.14 50.02" style="fill:#fff;opacity:0.65"></polygon><polygon points="436.5 60.17 438.45 61.97 451.14 51.71 451.14 50.02 436.5 60.17" style="fill:#909CF9"></polygon><polygon points="436.5 60.17 438.45 61.97 451.14 51.71 451.14 50.02 436.5 60.17" style="fill:#fff;opacity:0.5"></polygon><rect x="427.71" y="58.62" width="5.86" height="3.09" rx="0.28" style="fill:#455a64"></rect><polygon points="411.61 74.54 411.61 76.23 410.14 75.38 410.14 73.69 411.61 74.54" style="fill:#ebebeb"></polygon><path d="M451.35,82.83c-1.46,0-1.93-9.53-1.93-9.53h3.87s-.47,9.53-1.94,9.53" style="fill:#455a64"></path><path d="M450,72.52a3,3,0,0,1,2.73,0,.83.83,0,0,1,0,1.57,3,3,0,0,1-2.73,0A.83.83,0,0,1,450,72.52Z" style="fill:#455a64"></path><path d="M409.93,82.83c1.47,0,1.93-9.53,1.93-9.53H408s.46,9.53,1.93,9.53" style="fill:#455a64"></path><path d="M411.29,72.52a3,3,0,0,0-2.73,0,.83.83,0,0,0,0,1.57,3,3,0,0,0,2.73,0A.83.83,0,0,0,411.29,72.52Z" style="fill:#455a64"></path><path d="M458.89,68.5l-7.54,4.35-7.53-4.35A16.61,16.61,0,0,1,458.89,68.5Z" style="fill:#909CF9;opacity:0.30000000000000004"></path><path d="M458.89,77.2l-7.54-4.35,7.54-4.35C463.05,70.9,463.05,74.79,458.89,77.2Z" style="fill:#909CF9;opacity:0.1"></path><path d="M458.89,77.2a16.67,16.67,0,0,1-15.07,0l7.53-4.35Z" style="fill:#909CF9;opacity:0.30000000000000004"></path><path d="M451.35,72.85l-7.53,4.35c-4.17-2.41-4.17-6.3,0-8.7Z" style="fill:#909CF9;opacity:0.1"></path><path d="M452.47,73.4v-.47h-.37a1.76,1.76,0,0,0-1.49,0h-.37v.47h0a.56.56,0,0,0,.33.46,1.74,1.74,0,0,0,1.57,0A.57.57,0,0,0,452.47,73.4Z" style="fill:#909CF9"></path><path d="M452.47,73.4v-.47h-.37a1.76,1.76,0,0,0-1.49,0h-.37v.47h0a.56.56,0,0,0,.33.46,1.74,1.74,0,0,0,1.57,0A.57.57,0,0,0,452.47,73.4Z" style="opacity:0.30000000000000004"></path><path d="M452.14,72.47a1.74,1.74,0,0,0-1.57,0,.48.48,0,0,0,0,.91,1.74,1.74,0,0,0,1.57,0A.48.48,0,0,0,452.14,72.47Z" style="fill:#909CF9"></path><path d="M451.74,72.7a.89.89,0,0,0-.78,0c-.21.13-.21.33,0,.45a.83.83,0,0,0,.78,0C452,73,452,72.83,451.74,72.7Z" style="fill:#455a64"></path><path d="M417.47,68.5l-7.54,4.35-7.54-4.35A16.63,16.63,0,0,1,417.47,68.5Z" style="fill:#909CF9;opacity:0.30000000000000004"></path><path d="M417.47,77.2l-7.54-4.35,7.54-4.35C421.63,70.9,421.63,74.79,417.47,77.2Z" style="fill:#909CF9;opacity:0.1"></path><path d="M417.47,77.2a16.69,16.69,0,0,1-15.08,0l7.54-4.35Z" style="fill:#909CF9;opacity:0.30000000000000004"></path><path d="M409.93,72.85l-7.54,4.35c-4.16-2.41-4.16-6.3,0-8.7Z" style="fill:#909CF9;opacity:0.1"></path><path d="M411,73.4v-.47h-.37a1.76,1.76,0,0,0-1.49,0h-.36v.47h0a.55.55,0,0,0,.32.46,1.74,1.74,0,0,0,1.57,0A.57.57,0,0,0,411,73.4Z" style="fill:#909CF9"></path><path d="M411,73.4v-.47h-.37a1.76,1.76,0,0,0-1.49,0h-.36v.47h0a.55.55,0,0,0,.32.46,1.74,1.74,0,0,0,1.57,0A.57.57,0,0,0,411,73.4Z" style="opacity:0.30000000000000004"></path><path d="M410.71,72.47a1.74,1.74,0,0,0-1.57,0,.48.48,0,0,0,0,.91,1.74,1.74,0,0,0,1.57,0A.48.48,0,0,0,410.71,72.47Z" style="fill:#909CF9"></path><path d="M410.32,72.7a.89.89,0,0,0-.78,0c-.22.13-.22.33,0,.45a.83.83,0,0,0,.78,0C410.53,73,410.53,72.83,410.32,72.7Z" style="fill:#455a64"></path><path d="M459.15,42.68,451.61,47l-7.54-4.35A16.69,16.69,0,0,1,459.15,42.68Z" style="fill:#909CF9;opacity:0.30000000000000004"></path><path d="M459.15,51.38,451.61,47l7.54-4.35C463.31,45.08,463.31,49,459.15,51.38Z" style="fill:#909CF9;opacity:0.1"></path><path d="M459.15,51.38a16.69,16.69,0,0,1-15.08,0L451.61,47Z" style="fill:#909CF9;opacity:0.30000000000000004"></path><path d="M451.61,47l-7.54,4.35c-4.16-2.4-4.16-6.3,0-8.7Z" style="fill:#909CF9;opacity:0.1"></path><path d="M452.72,47.58v-.47h-.37a1.76,1.76,0,0,0-1.49,0h-.36v.47h0a.57.57,0,0,0,.32.46,1.74,1.74,0,0,0,1.57,0A.56.56,0,0,0,452.72,47.58Z" style="fill:#909CF9"></path><path d="M452.72,47.58v-.47h-.37a1.76,1.76,0,0,0-1.49,0h-.36v.47h0a.57.57,0,0,0,.32.46,1.74,1.74,0,0,0,1.57,0A.56.56,0,0,0,452.72,47.58Z" style="opacity:0.30000000000000004"></path><path d="M452.39,46.66a1.74,1.74,0,0,0-1.57,0,.48.48,0,0,0,0,.9,1.68,1.68,0,0,0,1.57,0C452.83,47.31,452.83,46.91,452.39,46.66Z" style="fill:#909CF9"></path><path d="M452,46.89a.83.83,0,0,0-.78,0c-.22.12-.22.32,0,.45a.89.89,0,0,0,.78,0C452.21,47.21,452.21,47,452,46.89Z" style="fill:#455a64"></path><path d="M417.32,42.68,409.78,47l-7.54-4.35A16.69,16.69,0,0,1,417.32,42.68Z" style="fill:#909CF9;opacity:0.30000000000000004"></path><path d="M417.32,51.38,409.78,47l7.54-4.35C421.48,45.08,421.48,49,417.32,51.38Z" style="fill:#909CF9;opacity:0.1"></path><path d="M417.32,51.38a16.69,16.69,0,0,1-15.08,0L409.78,47Z" style="fill:#909CF9;opacity:0.30000000000000004"></path><path d="M409.78,47l-7.54,4.35c-4.16-2.4-4.16-6.3,0-8.7Z" style="fill:#909CF9;opacity:0.1"></path><path d="M410.89,47.58v-.47h-.36a1.79,1.79,0,0,0-1.5,0h-.36v.47h0A.57.57,0,0,0,409,48a1.76,1.76,0,0,0,1.58,0A.57.57,0,0,0,410.89,47.58Z" style="fill:#909CF9"></path><path d="M410.89,47.58v-.47h-.36a1.79,1.79,0,0,0-1.5,0h-.36v.47h0A.57.57,0,0,0,409,48a1.76,1.76,0,0,0,1.58,0A.57.57,0,0,0,410.89,47.58Z" style="opacity:0.30000000000000004"></path><path d="M410.57,46.66a1.76,1.76,0,0,0-1.58,0,.48.48,0,0,0,0,.9,1.7,1.7,0,0,0,1.58,0A.48.48,0,0,0,410.57,46.66Z" style="fill:#909CF9"></path><path d="M410.17,46.89a.83.83,0,0,0-.78,0c-.22.12-.22.32,0,.45a.89.89,0,0,0,.78,0C410.39,47.21,410.39,47,410.17,46.89Z" style="fill:#455a64"></path><path d="M431.27,59.8a1.38,1.38,0,0,0-1.25,0,.39.39,0,0,0,0,.73,1.38,1.38,0,0,0,1.25,0A.39.39,0,0,0,431.27,59.8Z" style="fill:#263238"></path></g><g id="freepik--black-dron--inject-5"><rect x="422.81" y="192.45" width="4.62" height="3.36" style="fill:#455a64"></rect><polygon points="427.43 195.81 430.33 192.8 430.33 190.8 427.43 192.47 427.43 195.81" style="fill:#37474f"></polygon><polygon points="422.81 195.81 419.91 192.8 419.91 190.8 422.81 192.47 422.81 195.81" style="fill:#37474f"></polygon><path d="M450,181.07c-1.74,0-2.29-11.29-2.29-11.29h4.58s-.55,11.29-2.29,11.29" style="fill:#37474f"></path><path d="M448.35,168.85a3.56,3.56,0,0,1,3.24,0,1,1,0,0,1,0,1.87,3.62,3.62,0,0,1-3.24,0A1,1,0,0,1,448.35,168.85Z" style="fill:#455a64"></path><path d="M400.39,181.07c1.74,0,2.29-11.29,2.29-11.29H398.1s.55,11.29,2.29,11.29" style="fill:#37474f"></path><path d="M402,168.85a3.56,3.56,0,0,0-3.24,0,1,1,0,0,0,0,1.87,3.62,3.62,0,0,0,3.24,0A1,1,0,0,0,402,168.85Z" style="fill:#455a64"></path><polygon points="400.82 174.77 418.18 188.79 400.82 202.82 402.56 203.82 425.12 192.8 447.68 203.82 449.42 202.82 432.06 188.79 449.42 174.77 447.68 173.76 425.12 184.79 402.56 173.76 400.82 174.77" style="fill:#263238"></polygon><polygon points="402.56 201.82 425.12 188.79 447.68 201.82 449.42 200.82 432.06 184.79 449.42 172.76 447.68 171.76 425.12 180.78 402.56 171.76 400.82 172.76 418.18 184.79 400.82 200.82 402.56 201.82" style="fill:#455a64"></polygon><polygon points="447.68 201.82 447.68 203.82 449.42 202.82 449.42 200.82 447.68 201.82" style="fill:#263238"></polygon><polygon points="425.12 188.79 425.12 192.8 447.68 203.82 447.68 201.82 425.12 188.79" style="fill:#37474f"></polygon><polygon points="400.82 172.76 418.18 184.79 415.86 186.93 400.82 174.77 400.82 172.76" style="fill:#37474f"></polygon><polygon points="432.06 184.79 434.38 186.93 449.42 174.77 449.42 172.76 432.06 184.79" style="fill:#263238"></polygon><rect x="421.65" y="182.95" width="6.94" height="3.67" rx="0.33" style="fill:#909CF9"></rect><polygon points="402.56 201.82 402.56 203.82 400.82 202.82 400.82 200.82 402.56 201.82" style="fill:#ebebeb"></polygon><path d="M449.67,211.65c-1.74,0-2.29-11.29-2.29-11.29H452s-.55,11.29-2.29,11.29" style="fill:#37474f"></path><path d="M448.05,199.43a3.56,3.56,0,0,1,3.24,0,1,1,0,0,1,0,1.87,3.62,3.62,0,0,1-3.24,0A1,1,0,0,1,448.05,199.43Z" style="fill:#455a64"></path><path d="M400.57,211.65c1.74,0,2.29-11.29,2.29-11.29h-4.58s.55,11.29,2.29,11.29" style="fill:#37474f"></path><path d="M402.19,199.43a3.56,3.56,0,0,0-3.24,0,1,1,0,0,0,0,1.87,3.62,3.62,0,0,0,3.24,0A1,1,0,0,0,402.19,199.43Z" style="fill:#455a64"></path><path d="M458.61,194.66l-8.94,5.16-8.93-5.16C445.67,191.81,453.67,191.81,458.61,194.66Z" style="opacity:0.30000000000000004"></path><path d="M458.61,205l-8.94-5.15,8.94-5.16C463.54,197.51,463.54,202.13,458.61,205Z" style="opacity:0.1"></path><path d="M458.61,205c-4.94,2.85-12.94,2.85-17.87,0l8.93-5.15Z" style="opacity:0.30000000000000004"></path><path d="M449.67,199.82,440.74,205c-4.94-2.84-4.94-7.46,0-10.31Z" style="opacity:0.1"></path><path d="M451,200.47v-.56h-.44a2.08,2.08,0,0,0-1.76,0h-.44v.57h0a.65.65,0,0,0,.39.53,2,2,0,0,0,1.86,0A.65.65,0,0,0,451,200.47Z" style="fill:#909CF9"></path><path d="M451,200.47v-.56h-.44a2.08,2.08,0,0,0-1.76,0h-.44v.57h0a.65.65,0,0,0,.39.53,2,2,0,0,0,1.86,0A.65.65,0,0,0,451,200.47Z" style="opacity:0.30000000000000004"></path><path d="M450.6,199.38a2,2,0,0,0-1.86,0c-.52.29-.52.77,0,1.07a2,2,0,0,0,1.86,0C451.12,200.15,451.12,199.67,450.6,199.38Z" style="fill:#909CF9"></path><path d="M450.13,199.65a1,1,0,0,0-.92,0c-.26.14-.26.38,0,.53a1,1,0,0,0,.92,0C450.39,200,450.39,199.79,450.13,199.65Z" style="fill:#455a64"></path><path d="M409.5,194.66l-8.93,5.16-8.94-5.16C396.57,191.81,404.57,191.81,409.5,194.66Z" style="opacity:0.30000000000000004"></path><path d="M409.5,205l-8.93-5.15,8.93-5.16C414.44,197.51,414.44,202.13,409.5,205Z" style="opacity:0.1"></path><path d="M409.5,205c-4.93,2.85-12.93,2.85-17.87,0l8.94-5.15Z" style="opacity:0.30000000000000004"></path><path d="M400.57,199.82,391.63,205c-4.93-2.84-4.93-7.46,0-10.31Z" style="opacity:0.1"></path><path d="M401.89,200.47v-.56h-.44a2.11,2.11,0,0,0-1.77,0h-.43v.57h0a.65.65,0,0,0,.39.53,2,2,0,0,0,1.86,0A.65.65,0,0,0,401.89,200.47Z" style="fill:#909CF9"></path><path d="M401.89,200.47v-.56h-.44a2.11,2.11,0,0,0-1.77,0h-.43v.57h0a.65.65,0,0,0,.39.53,2,2,0,0,0,1.86,0A.65.65,0,0,0,401.89,200.47Z" style="opacity:0.30000000000000004"></path><path d="M401.5,199.38a2,2,0,0,0-1.86,0c-.52.29-.52.77,0,1.07a2,2,0,0,0,1.86,0C402,200.15,402,199.67,401.5,199.38Z" style="fill:#909CF9"></path><path d="M401,199.65a1,1,0,0,0-.92,0c-.26.14-.26.38,0,.53a1,1,0,0,0,.92,0C401.29,200,401.29,199.79,401,199.65Z" style="fill:#455a64"></path><path d="M458.91,164.06,450,169.22,441,164.06C446,161.21,454,161.21,458.91,164.06Z" style="opacity:0.30000000000000004"></path><path d="M458.91,174.37,450,169.22l8.94-5.16C463.84,166.91,463.84,171.53,458.91,174.37Z" style="opacity:0.1"></path><path d="M458.91,174.37c-4.94,2.85-12.94,2.85-17.87,0l8.93-5.15Z" style="opacity:0.30000000000000004"></path><path d="M450,169.22,441,174.37c-4.93-2.84-4.93-7.46,0-10.31Z" style="opacity:0.1"></path><path d="M451.29,169.87v-.56h-.43a2.11,2.11,0,0,0-1.77,0h-.44v.56h0a.65.65,0,0,0,.39.54,2,2,0,0,0,1.86,0A.65.65,0,0,0,451.29,169.87Z" style="fill:#909CF9"></path><path d="M451.29,169.87v-.56h-.43a2.11,2.11,0,0,0-1.77,0h-.44v.56h0a.65.65,0,0,0,.39.54,2,2,0,0,0,1.86,0A.65.65,0,0,0,451.29,169.87Z" style="opacity:0.30000000000000004"></path><path d="M450.9,168.77a2.1,2.1,0,0,0-1.86,0,.57.57,0,0,0,0,1.08,2,2,0,0,0,1.86,0A.57.57,0,0,0,450.9,168.77Z" style="fill:#909CF9"></path><path d="M450.44,169.05a1,1,0,0,0-.93,0c-.26.14-.26.38,0,.53a1,1,0,0,0,.93,0C450.69,169.43,450.69,169.19,450.44,169.05Z" style="fill:#455a64"></path><path d="M409.33,164.06l-8.94,5.16-8.93-5.16C396.39,161.21,404.39,161.21,409.33,164.06Z" style="opacity:0.30000000000000004"></path><path d="M409.33,174.37l-8.94-5.15,8.94-5.16C414.26,166.91,414.26,171.53,409.33,174.37Z" style="opacity:0.1"></path><path d="M409.33,174.37c-4.94,2.85-12.94,2.85-17.87,0l8.93-5.15Z" style="opacity:0.30000000000000004"></path><path d="M400.39,169.22l-8.93,5.15c-4.93-2.84-4.93-7.46,0-10.31Z" style="opacity:0.1"></path><path d="M401.71,169.87v-.56h-.43a2.11,2.11,0,0,0-1.77,0h-.43v.56h0a.64.64,0,0,0,.38.54,2.06,2.06,0,0,0,1.87,0A.66.66,0,0,0,401.71,169.87Z" style="fill:#909CF9"></path><path d="M401.71,169.87v-.56h-.43a2.11,2.11,0,0,0-1.77,0h-.43v.56h0a.64.64,0,0,0,.38.54,2.06,2.06,0,0,0,1.87,0A.66.66,0,0,0,401.71,169.87Z" style="opacity:0.30000000000000004"></path><path d="M401.33,168.77a2.12,2.12,0,0,0-1.87,0,.57.57,0,0,0,0,1.08,2.06,2.06,0,0,0,1.87,0A.57.57,0,0,0,401.33,168.77Z" style="fill:#909CF9"></path><path d="M400.86,169.05a1,1,0,0,0-.93,0c-.25.14-.25.38,0,.53a1,1,0,0,0,.93,0C401.11,169.43,401.11,169.19,400.86,169.05Z" style="fill:#455a64"></path><path d="M425.86,184.36a1.61,1.61,0,0,0-1.48,0,.45.45,0,0,0,0,.86,1.67,1.67,0,0,0,1.48,0A.45.45,0,0,0,425.86,184.36Z" style="fill:#263238"></path></g></g></svg>